SplineFontDB: 3.0
FontName: DroidSansMonoChessASCII
FullName: Droid Sans Mono Chess ASCII
FamilyName: Droid Sans Mono Chess ASCII
Weight: Book
Copyright: Digitized data copyright (c) 2006, Google Corporation.
Version: 1.00 build 107
ItalicAngle: 0
UnderlinePosition: -205
UnderlineWidth: 102
Ascent: 1638
Descent: 410
InvalidEm: 0
sfntRevision: 0x00010000
LayerCount: 2
Layer: 0 1 "Back" 1
Layer: 1 1 "Zeichen" 0
XUID: [1021 594 -1947527798 12676]
StyleMap: 0x0000
FSType: 0
OS2Version: 3
OS2_WeightWidthSlopeOnly: 0
OS2_UseTypoMetrics: 0
CreationTime: 1168259284
ModificationTime: 1505931906
PfmFamily: 17
TTFWeight: 400
TTFWidth: 5
LineGap: 0
VLineGap: 0
Panose: 2 11 6 9 3 8 4 2 2 4
OS2TypoAscent: 1567
OS2TypoAOffset: 0
OS2TypoDescent: -492
OS2TypoDOffset: 0
OS2TypoLinegap: 132
OS2WinAscent: 1901
OS2WinAOffset: 0
OS2WinDescent: 483
OS2WinDOffset: 0
HheadAscent: 1901
HheadAOffset: 0
HheadDescent: -483
HheadDOffset: 0
OS2SubXSize: 1434
OS2SubYSize: 1331
OS2SubXOff: 0
OS2SubYOff: 286
OS2SupXSize: 1434
OS2SupYSize: 1331
OS2SupXOff: 0
OS2SupYOff: 976
OS2StrikeYSize: 102
OS2StrikeYPos: 498
OS2CapHeight: 1462
OS2XHeight: 1098
OS2Vendor: '1ASC'
OS2CodePages: 2000009f.00000000
OS2UnicodeRanges: e00002af.4000205b.00000028.00000000
MarkAttachClasses: 1
DEI: 91125
TtTable: prep
NPUSHB
 21
 248
 3
 255
 31
 241
 111
 26
 31
 47
 239
 111
 239
 2
 230
 228
 51
 31
 229
 228
 25
 31
PUSHW_1
 256
NPUSHB
 16
 51
 255
 85
 223
 51
 221
 85
 222
 51
 3
 85
 176
 255
 208
 255
 2
PUSHW_1
 -64
NPUSHB
 104
 255
 9
 17
 70
 0
 221
 32
 221
 112
 221
 3
 221
 1
 3
 85
 220
 3
 255
 31
 214
 213
 51
 31
 211
 210
 25
 31
 135
 210
 1
 254
 194
 25
 31
 6
 186
 22
 186
 230
 186
 246
 186
 4
 15
 178
 31
 178
 47
 178
 3
 64
 178
 15
 19
 70
 167
 177
 1
 175
 83
 25
 31
 174
 173
 25
 31
 172
 74
 25
 31
 171
 170
 25
 31
 169
 3
 255
 31
 158
 157
 25
 31
 31
 157
 1
 112
 156
 128
 156
 144
 156
 208
 156
 224
 156
 240
 156
 6
 15
 153
 1
 151
 152
 1
PUSHW_1
 -8
NPUSHB
 56
 152
 9
 15
 70

StartChar: .notdef
Encoding: 65536 -1 0
Width: 1229
Flags: W
LayerCount: 2
Fore
SplineSet
193 1462 m 1,0,-1
 1034 1462 l 1,1,-1
 1034 0 l 1,2,-1
 193 0 l 1,3,-1
 193 1462 l 1,0,-1
297 104 m 1,4,-1
 930 104 l 1,5,-1
 930 1358 l 1,6,-1
 297 1358 l 1,7,-1
 297 104 l 1,4,-1
EndSplineSet
Validated: 1
EndChar

StartChar: exclam
Encoding: 33 33 4
Width: 1229
Flags: W
LayerCount: 2
Fore
SplineSet
676 414 m 1,0,-1
 555 414 l 1,1,-1
 504 1462 l 1,2,-1
 727 1462 l 1,3,-1
 676 414 l 1,0,-1
614 250 m 256,4,5
 741 250 741 250 741 111 c 0,6,7
 741 -29 741 -29 614 -29 c 256,8,9
 487 -29 487 -29 487 111 c 0,10,11
 487 250 487 250 614 250 c 256,4,5
EndSplineSet
Validated: 1
EndChar

StartChar: quotedbl
Encoding: 34 34 5
Width: 1229
Flags: W
LayerCount: 2
Fore
SplineSet
522 1462 m 1,0,-1
 481 934 l 1,1,-1
 326 934 l 1,2,-1
 285 1462 l 1,3,-1
 522 1462 l 1,0,-1
944 1462 m 1,4,-1
 903 934 l 1,5,-1
 748 934 l 1,6,-1
 707 1462 l 1,7,-1
 944 1462 l 1,4,-1
EndSplineSet
Validated: 1
EndChar

StartChar: numbersign
Encoding: 35 35 6
Width: 1229
Flags: W
LayerCount: 2
Fore
SplineSet
936 893 m 1,0,-1
 872 565 l 1,1,-1
 1112 565 l 1,2,-1
 1112 428 l 1,3,-1
 846 428 l 1,4,-1
 764 0 l 1,5,-1
 616 0 l 1,6,-1
 700 428 l 1,7,-1
 410 428 l 1,8,-1
 328 0 l 1,9,-1
 184 0 l 1,10,-1
 262 428 l 1,11,-1
 45 428 l 1,12,-1
 45 565 l 1,13,-1
 289 565 l 1,14,-1
 354 893 l 1,15,-1
 121 893 l 1,16,-1
 121 1030 l 1,17,-1
 379 1030 l 1,18,-1
 461 1462 l 1,19,-1
 608 1462 l 1,20,-1
 526 1030 l 1,21,-1
 819 1030 l 1,22,-1
 903 1462 l 1,23,-1
 1047 1462 l 1,24,-1
 963 1030 l 1,25,-1
 1184 1030 l 1,26,-1
 1184 893 l 1,27,-1
 936 893 l 1,0,-1
436 565 m 1,28,-1
 727 565 l 1,29,-1
 791 893 l 1,30,-1
 500 893 l 1,31,-1
 436 565 l 1,28,-1
EndSplineSet
Validated: 1
EndChar

StartChar: dollar
Encoding: 36 36 7
Width: 1229
Flags: W
LayerCount: 2
Fore
SplineSet
684 111 m 1,0,-1
 684 -119 l 1,1,-1
 547 -119 l 1,2,-1
 547 102 l 1,3,4
 319 102 319 102 182 172 c 1,5,-1
 182 344 l 1,6,7
 378 252 378 252 547 252 c 1,8,-1
 547 686 l 1,9,10
 354 750 354 750 276.5 831.5 c 128,-1,11
 199 913 199 913 199 1051 c 0,12,13
 199 1182 199 1182 291 1268 c 128,-1,14
 383 1354 383 1354 547 1374 c 1,15,-1
 547 1554 l 1,16,-1
 684 1554 l 1,17,-1
 684 1378 l 1,18,19
 871 1369 871 1369 1020 1300 c 1,20,-1
 954 1155 l 1,21,22
 814 1217 814 1217 684 1227 c 1,23,-1
 684 805 l 1,24,25
 883 737 883 737 963.5 656.5 c 128,-1,26
 1044 576 1044 576 1044 446 c 0,27,28
 1044 166 1044 166 684 111 c 1,0,-1
547 854 m 1,29,-1
 547 1223 l 1,30,31
 375 1194 375 1194 375 1049 c 0,32,33
 375 971 375 971 415.5 928 c 128,-1,34
 456 885 456 885 547 854 c 1,29,-1
684 635 m 1,35,-1
 684 262 l 1,36,37
 868 290 868 290 868 446 c 0,38,39
 868 573 868 573 684 635 c 1,35,-1
EndSplineSet
Validated: 1
EndChar

StartChar: percent
Encoding: 37 37 8
Width: 1229
Flags: W
LayerCount: 2
Fore
SplineSet
291 784 m 0,0,1
 160 784 160 784 80 878.5 c 128,-1,2
 0 973 0 973 0 1133 c 0,3,4
 0 1297 0 1297 79 1388 c 128,-1,5
 158 1479 158 1479 295 1479 c 0,6,7
 424 1479 424 1479 505 1386 c 128,-1,8
 586 1293 586 1293 586 1133 c 0,9,10
 586 971 586 971 507.5 877.5 c 128,-1,11
 429 784 429 784 291 784 c 0,0,1
293 903 m 0,12,13
 432 903 432 903 432 1133 c 0,14,15
 432 1358 432 1358 293 1358 c 0,16,17
 152 1358 152 1358 152 1133 c 0,18,19
 152 903 152 903 293 903 c 0,12,13
1057 1462 m 1,20,-1
 328 0 l 1,21,-1
 170 0 l 1,22,-1
 899 1462 l 1,23,-1
 1057 1462 l 1,20,-1
934 -18 m 0,24,25
 804 -18 804 -18 723.5 76.5 c 128,-1,26
 643 171 643 171 643 330 c 0,27,28
 643 494 643 494 722 585 c 128,-1,29
 801 676 801 676 938 676 c 0,30,31
 1067 676 1067 676 1148 583 c 128,-1,32
 1229 490 1229 490 1229 330 c 0,33,34
 1229 169 1229 169 1150.5 75.5 c 128,-1,35
 1072 -18 1072 -18 934 -18 c 0,24,25
936 100 m 0,36,37
 1075 100 1075 100 1075 330 c 0,38,39
 1075 555 1075 555 936 555 c 0,40,41
 795 555 795 555 795 330 c 0,42,43
 795 100 795 100 936 100 c 0,36,37
EndSplineSet
Validated: 1
EndChar

StartChar: ampersand
Encoding: 38 38 9
Width: 1229
Flags: W
LayerCount: 2
Fore
SplineSet
602 776 m 1,0,-1
 883 428 l 1,1,2
 954 549 954 549 987 694 c 1,3,-1
 1171 694 l 1,4,5
 1118 460 1118 460 993 291 c 1,6,-1
 1227 0 l 1,7,-1
 1010 0 l 1,8,-1
 879 166 l 1,9,10
 705 -20 705 -20 467 -20 c 0,11,12
 278 -20 278 -20 169.5 87 c 128,-1,13
 61 194 61 194 61 381 c 0,14,15
 61 512 61 512 124.5 609.5 c 128,-1,16
 188 707 188 707 360 809 c 1,17,18
 197 1001 197 1001 197 1165 c 0,19,20
 197 1313 197 1313 292.5 1399 c 128,-1,21
 388 1485 388 1485 567 1485 c 0,22,23
 735 1485 735 1485 827.5 1399.5 c 128,-1,24
 920 1314 920 1314 920 1165 c 0,25,26
 920 962 920 962 602 776 c 1,0,-1
508 897 m 1,27,28
 642 976 642 976 691.5 1035.5 c 128,-1,29
 741 1095 741 1095 741 1169 c 256,30,31
 741 1243 741 1243 691.5 1289 c 128,-1,32
 642 1335 642 1335 561 1335 c 0,33,34
 474 1335 474 1335 424.5 1290.5 c 128,-1,35
 375 1246 375 1246 375 1165 c 0,36,37
 375 1047 375 1047 508 897 c 1,27,28
778 287 m 1,38,-1
 455 688 l 1,39,40
 252 565 252 565 252 387 c 0,41,42
 252 282 252 282 319 211.5 c 128,-1,43
 386 141 386 141 479 141 c 0,44,45
 639 141 639 141 778 287 c 1,38,-1
EndSplineSet
Validated: 1
EndChar

StartChar: quotesingle
Encoding: 39 39 10
Width: 1229
Flags: W
LayerCount: 2
Fore
SplineSet
733 1462 m 1,0,-1
 692 934 l 1,1,-1
 537 934 l 1,2,-1
 496 1462 l 1,3,-1
 733 1462 l 1,0,-1
EndSplineSet
Validated: 1
EndChar

StartChar: parenleft
Encoding: 40 40 11
Width: 1229
Flags: W
LayerCount: 2
Fore
SplineSet
739 1462 m 1,0,-1
 932 1462 l 1,1,2
 483 1086 483 1086 483 569 c 0,3,4
 483 48 483 48 930 -324 c 1,5,-1
 739 -324 l 1,6,7
 295 29 295 29 295 567 c 0,8,9
 295 1099 295 1099 739 1462 c 1,0,-1
EndSplineSet
Validated: 1
EndChar

StartChar: parenright
Encoding: 41 41 12
Width: 1229
Flags: W
LayerCount: 2
Fore
SplineSet
489 -324 m 1,0,-1
 299 -324 l 1,1,2
 745 47 745 47 745 569 c 0,3,4
 745 1087 745 1087 297 1462 c 1,5,-1
 489 1462 l 1,6,7
 934 1101 934 1101 934 567 c 0,8,9
 934 27 934 27 489 -324 c 1,0,-1
EndSplineSet
Validated: 1
EndChar

StartChar: asterisk
Encoding: 42 42 13
Width: 1229
Flags: W
LayerCount: 2
Fore
SplineSet
715 1556 m 1,0,-1
 672 1163 l 1,1,-1
 1069 1274 l 1,2,-1
 1096 1081 l 1,3,-1
 717 1053 l 1,4,-1
 963 727 l 1,5,-1
 784 631 l 1,6,-1
 608 989 l 1,7,-1
 451 631 l 1,8,-1
 266 727 l 1,9,-1
 508 1053 l 1,10,-1
 133 1081 l 1,11,-1
 162 1274 l 1,12,-1
 553 1163 l 1,13,-1
 510 1556 l 1,14,-1
 715 1556 l 1,0,-1
EndSplineSet
Validated: 1
EndChar

StartChar: plus
Encoding: 43 43 14
Width: 1229
Flags: W
LayerCount: 2
Fore
SplineSet
539 647 m 1,0,-1
 152 647 l 1,1,-1
 152 797 l 1,2,-1
 539 797 l 1,3,-1
 539 1186 l 1,4,-1
 688 1186 l 1,5,-1
 688 797 l 1,6,-1
 1075 797 l 1,7,-1
 1075 647 l 1,8,-1
 688 647 l 1,9,-1
 688 262 l 1,10,-1
 539 262 l 1,11,-1
 539 647 l 1,0,-1
EndSplineSet
Validated: 1
EndChar

StartChar: comma
Encoding: 44 44 15
Width: 1229
Flags: W
LayerCount: 2
Fore
SplineSet
770 262 m 1,0,-1
 786 238 l 1,1,2
 729 14 729 14 592 -289 c 1,3,-1
 440 -289 l 1,4,5
 516 34 516 34 551 262 c 1,6,-1
 770 262 l 1,0,-1
EndSplineSet
Validated: 1
EndChar

StartChar: hyphen
Encoding: 45 45 16
Width: 1229
Flags: W
LayerCount: 2
Fore
SplineSet
285 465 m 1,0,-1
 285 633 l 1,1,-1
 944 633 l 1,2,-1
 944 465 l 1,3,-1
 285 465 l 1,0,-1
EndSplineSet
Validated: 1
EndChar

StartChar: period
Encoding: 46 46 17
Width: 1229
Flags: W
LayerCount: 2
Fore
SplineSet
614 301 m 0,0,1
 766 301 766 301 766 135 c 256,2,3
 766 -31 766 -31 614 -31 c 0,4,5
 463 -31 463 -31 463 135 c 256,6,7
 463 301 463 301 614 301 c 0,0,1
EndSplineSet
Validated: 1
EndChar

StartChar: slash
Encoding: 47 47 18
Width: 1229
Flags: W
LayerCount: 2
Fore
SplineSet
1016 1462 m 1,0,-1
 389 0 l 1,1,-1
 211 0 l 1,2,-1
 838 1462 l 1,3,-1
 1016 1462 l 1,0,-1
EndSplineSet
Validated: 1
EndChar

StartChar: zero
Encoding: 48 48 19
Width: 1229
Flags: W
LayerCount: 2
Fore
SplineSet
612 -20 m 0,0,1
 383 -20 383 -20 265 173.5 c 128,-1,2
 147 367 147 367 147 733 c 0,3,4
 147 1485 147 1485 612 1485 c 0,5,6
 844 1485 844 1485 962.5 1291.5 c 128,-1,7
 1081 1098 1081 1098 1081 733 c 0,8,9
 1081 -20 1081 -20 612 -20 c 0,0,1
612 135 m 0,10,11
 759 135 759 135 828 275.5 c 128,-1,12
 897 416 897 416 897 733 c 0,13,14
 897 1048 897 1048 828 1188.5 c 128,-1,15
 759 1329 759 1329 612 1329 c 0,16,17
 467 1329 467 1329 399.5 1189.5 c 128,-1,18
 332 1050 332 1050 332 733 c 0,19,20
 332 415 332 415 399.5 275 c 128,-1,21
 467 135 467 135 612 135 c 0,10,11
EndSplineSet
Validated: 1
EndChar

StartChar: one
Encoding: 49 49 20
Width: 1229
Flags: W
LayerCount: 2
Fore
SplineSet
758 0 m 1,0,-1
 582 0 l 1,1,-1
 582 913 l 2,2,3
 582 1035 582 1035 590 1274 c 1,4,5
 551 1231 551 1231 469 1161 c 2,6,-1
 322 1040 l 1,7,-1
 225 1163 l 1,8,-1
 608 1462 l 1,9,-1
 758 1462 l 1,10,-1
 758 0 l 1,0,-1
EndSplineSet
Validated: 1
EndChar

StartChar: two
Encoding: 50 50 21
Width: 1229
Flags: W
LayerCount: 2
Fore
SplineSet
1069 0 m 1,0,-1
 158 0 l 1,1,-1
 158 156 l 1,2,-1
 508 537 l 2,3,4
 703 750 703 750 765 854.5 c 128,-1,5
 827 959 827 959 827 1085 c 0,6,7
 827 1198 827 1198 763.5 1263.5 c 128,-1,8
 700 1329 700 1329 592 1329 c 0,9,10
 432 1329 432 1329 274 1192 c 1,11,-1
 172 1311 l 1,12,13
 364 1483 364 1483 594 1483 c 0,14,15
 788 1483 788 1483 900 1377 c 128,-1,16
 1012 1271 1012 1271 1012 1092 c 0,17,18
 1012 973 1012 973 953 848 c 128,-1,19
 894 723 894 723 662 473 c 2,20,-1
 381 174 l 1,21,-1
 381 166 l 1,22,-1
 1069 166 l 1,23,-1
 1069 0 l 1,0,-1
EndSplineSet
Validated: 1
EndChar

StartChar: three
Encoding: 51 51 22
Width: 1229
Flags: W
LayerCount: 2
Fore
SplineSet
694 770 m 1,0,-1
 694 764 l 1,1,2
 1055 717 1055 717 1055 416 c 0,3,4
 1055 213 1055 213 917 96.5 c 128,-1,5
 779 -20 779 -20 518 -20 c 0,6,7
 276 -20 276 -20 131 59 c 1,8,-1
 131 229 l 1,9,10
 315 133 315 133 514 133 c 0,11,12
 868 133 868 133 868 422 c 0,13,14
 868 680 868 680 487 680 c 2,15,-1
 354 680 l 1,16,-1
 354 831 l 1,17,-1
 487 831 l 2,18,19
 647 831 647 831 735 907 c 128,-1,20
 823 983 823 983 823 1108 c 0,21,22
 823 1210 823 1210 755 1269.5 c 128,-1,23
 687 1329 687 1329 573 1329 c 0,24,25
 395 1329 395 1329 229 1208 c 1,26,-1
 137 1333 l 1,27,28
 324 1483 324 1483 573 1483 c 0,29,30
 779 1483 779 1483 894.5 1384 c 128,-1,31
 1010 1285 1010 1285 1010 1120 c 0,32,33
 1010 982 1010 982 928 889 c 128,-1,34
 846 796 846 796 694 770 c 1,0,-1
EndSplineSet
Validated: 1
EndChar

StartChar: four
Encoding: 52 52 23
Width: 1229
Flags: W
LayerCount: 2
Fore
SplineSet
1126 328 m 1,0,-1
 913 328 l 1,1,-1
 913 0 l 1,2,-1
 737 0 l 1,3,-1
 737 328 l 1,4,-1
 61 328 l 1,5,-1
 61 487 l 1,6,-1
 725 1470 l 1,7,-1
 913 1470 l 1,8,-1
 913 494 l 1,9,-1
 1126 494 l 1,10,-1
 1126 328 l 1,0,-1
737 494 m 1,11,-1
 737 850 l 2,12,13
 737 1026 737 1026 750 1282 c 1,14,-1
 741 1282 l 1,15,16
 705 1180 705 1180 651 1102 c 2,17,-1
 240 494 l 1,18,-1
 737 494 l 1,11,-1
EndSplineSet
Validated: 1
EndChar

StartChar: five
Encoding: 53 53 24
Width: 1229
Flags: W
LayerCount: 2
Fore
SplineSet
172 59 m 1,0,-1
 172 231 l 1,1,2
 316 135 316 135 532 135 c 0,3,4
 868 135 868 135 868 449 c 0,5,6
 868 743 868 743 524 743 c 0,7,8
 435 743 435 743 293 717 c 1,9,-1
 203 774 l 1,10,-1
 258 1462 l 1,11,-1
 948 1462 l 1,12,-1
 948 1296 l 1,13,-1
 416 1296 l 1,14,-1
 377 877 l 1,15,16
 484 897 484 897 586 897 c 0,17,18
 796 897 796 897 925.5 782.5 c 128,-1,19
 1055 668 1055 668 1055 469 c 0,20,21
 1055 235 1055 235 917 107.5 c 128,-1,22
 779 -20 779 -20 528 -20 c 0,23,24
 304 -20 304 -20 172 59 c 1,0,-1
EndSplineSet
Validated: 1
EndChar

StartChar: six
Encoding: 54 54 25
Width: 1229
Flags: W
LayerCount: 2
Fore
SplineSet
965 1464 m 1,0,-1
 965 1309 l 1,1,2
 894 1333 894 1333 799 1333 c 0,3,4
 575 1333 575 1333 462.5 1192 c 128,-1,5
 350 1051 350 1051 340 745 c 1,6,-1
 352 745 l 1,7,8
 447 915 447 915 659 915 c 0,9,10
 854 915 854 915 964.5 796 c 128,-1,11
 1075 677 1075 677 1075 471 c 0,12,13
 1075 243 1075 243 954.5 111.5 c 128,-1,14
 834 -20 834 -20 631 -20 c 0,15,16
 413 -20 413 -20 283.5 148.5 c 128,-1,17
 154 317 154 317 154 625 c 0,18,19
 154 1483 154 1483 793 1483 c 0,20,21
 897 1483 897 1483 965 1464 c 1,0,-1
899 471 m 0,22,23
 899 616 899 616 830.5 694 c 128,-1,24
 762 772 762 772 635 772 c 256,25,26
 508 772 508 772 422 691 c 128,-1,27
 336 610 336 610 336 506 c 0,28,29
 336 354 336 354 417 243.5 c 128,-1,30
 498 133 498 133 629 133 c 0,31,32
 756 133 756 133 827.5 221 c 128,-1,33
 899 309 899 309 899 471 c 0,22,23
EndSplineSet
Validated: 1
EndChar

StartChar: seven
Encoding: 55 55 26
Width: 1229
Flags: W
LayerCount: 2
Fore
SplineSet
334 0 m 1,0,-1
 897 1296 l 1,1,-1
 143 1296 l 1,2,-1
 143 1462 l 1,3,-1
 1083 1462 l 1,4,-1
 1083 1317 l 1,5,-1
 528 0 l 1,6,-1
 334 0 l 1,0,-1
EndSplineSet
Validated: 1
EndChar

StartChar: eight
Encoding: 56 56 27
Width: 1229
Flags: W
LayerCount: 2
Fore
SplineSet
764 774 m 1,0,1
 1073 614 1073 614 1073 381 c 0,2,3
 1073 200 1073 200 947 90 c 128,-1,4
 821 -20 821 -20 614 -20 c 0,5,6
 398 -20 398 -20 277 83.5 c 128,-1,7
 156 187 156 187 156 373 c 0,8,9
 156 630 156 630 438 766 c 1,10,11
 203 912 203 912 203 1135 c 0,12,13
 203 1296 203 1296 319.5 1390.5 c 128,-1,14
 436 1485 436 1485 614 1485 c 0,15,16
 798 1485 798 1485 912 1390 c 128,-1,17
 1026 1295 1026 1295 1026 1133 c 0,18,19
 1026 903 1026 903 764 774 c 1,0,1
616 848 m 1,20,21
 848 951 848 951 848 1126 c 0,22,23
 848 1227 848 1227 785 1280 c 128,-1,24
 722 1333 722 1333 612 1333 c 0,25,26
 506 1333 506 1333 443.5 1280 c 128,-1,27
 381 1227 381 1227 381 1126 c 0,28,29
 381 1036 381 1036 430.5 973.5 c 128,-1,30
 480 911 480 911 616 848 c 1,20,21
588 696 m 1,31,32
 334 575 334 575 334 371 c 0,33,34
 334 131 334 131 610 131 c 0,35,36
 746 131 746 131 820.5 196.5 c 128,-1,37
 895 262 895 262 895 379 c 0,38,39
 895 469 895 469 832 538.5 c 128,-1,40
 769 608 769 608 618 682 c 2,41,-1
 588 696 l 1,31,32
EndSplineSet
Validated: 1
EndChar

StartChar: nine
Encoding: 57 57 28
Width: 1229
Flags: W
LayerCount: 2
Fore
SplineSet
264 -2 m 1,0,-1
 264 154 l 1,1,2
 331 129 331 129 430 129 c 0,3,4
 654 129 654 129 766.5 270 c 128,-1,5
 879 411 879 411 889 717 c 1,6,-1
 877 717 l 1,7,8
 781 547 781 547 569 547 c 0,9,10
 375 547 375 547 264.5 665 c 128,-1,11
 154 783 154 783 154 991 c 0,12,13
 154 1219 154 1219 274.5 1351 c 128,-1,14
 395 1483 395 1483 598 1483 c 0,15,16
 818 1483 818 1483 946.5 1312 c 128,-1,17
 1075 1141 1075 1141 1075 838 c 0,18,19
 1075 -20 1075 -20 436 -20 c 0,20,21
 331 -20 331 -20 264 -2 c 1,0,-1
330 991 m 0,22,23
 330 846 330 846 398.5 768 c 128,-1,24
 467 690 467 690 594 690 c 256,25,26
 721 690 721 690 807 771.5 c 128,-1,27
 893 853 893 853 893 956 c 0,28,29
 893 1107 893 1107 813 1218 c 128,-1,30
 733 1329 733 1329 600 1329 c 0,31,32
 472 1329 472 1329 401 1242 c 128,-1,33
 330 1155 330 1155 330 991 c 0,22,23
EndSplineSet
Validated: 1
EndChar

StartChar: colon
Encoding: 58 58 29
Width: 1229
Flags: W
LayerCount: 2
Fore
SplineSet
614 1126 m 256,0,1
 741 1126 741 1126 741 987 c 256,2,3
 741 848 741 848 614 848 c 256,4,5
 487 848 487 848 487 987 c 256,6,7
 487 1126 487 1126 614 1126 c 256,0,1
614 250 m 256,8,9
 741 250 741 250 741 111 c 0,10,11
 741 -29 741 -29 614 -29 c 256,12,13
 487 -29 487 -29 487 111 c 0,14,15
 487 250 487 250 614 250 c 256,8,9
EndSplineSet
Validated: 1
EndChar

StartChar: semicolon
Encoding: 59 59 30
Width: 1229
Flags: W
LayerCount: 2
Fore
SplineSet
621 1126 m 256,0,1
 748 1126 748 1126 748 987 c 256,2,3
 748 848 748 848 621 848 c 256,4,5
 494 848 494 848 494 987 c 256,6,7
 494 1126 494 1126 621 1126 c 256,0,1
709 238 m 1,8,-1
 723 215 l 1,9,10
 672 18 672 18 547 -264 c 1,11,-1
 410 -264 l 1,12,13
 472 -9 472 -9 510 238 c 1,14,-1
 709 238 l 1,8,-1
EndSplineSet
Validated: 1
EndChar

StartChar: less
Encoding: 60 60 31
Width: 1229
Flags: W
LayerCount: 2
Fore
SplineSet
1075 221 m 1,0,-1
 152 672 l 1,1,-1
 152 774 l 1,2,-1
 1075 1225 l 1,3,-1
 1075 1065 l 1,4,-1
 360 723 l 1,5,-1
 1075 381 l 1,6,-1
 1075 221 l 1,0,-1
EndSplineSet
Validated: 1
EndChar

StartChar: equal
Encoding: 61 61 32
Width: 1229
Flags: W
LayerCount: 2
Fore
SplineSet
152 852 m 1,0,-1
 152 1001 l 1,1,-1
 1075 1001 l 1,2,-1
 1075 852 l 1,3,-1
 152 852 l 1,0,-1
152 442 m 1,4,-1
 152 592 l 1,5,-1
 1075 592 l 1,6,-1
 1075 442 l 1,7,-1
 152 442 l 1,4,-1
EndSplineSet
Validated: 1
EndChar

StartChar: greater
Encoding: 62 62 33
Width: 1229
Flags: W
LayerCount: 2
Fore
SplineSet
152 381 m 1,0,-1
 866 723 l 1,1,-1
 152 1065 l 1,2,-1
 152 1225 l 1,3,-1
 1075 774 l 1,4,-1
 1075 672 l 1,5,-1
 152 221 l 1,6,-1
 152 381 l 1,0,-1
EndSplineSet
Validated: 1
EndChar

StartChar: question
Encoding: 63 63 34
Width: 1229
Flags: W
LayerCount: 2
Fore
SplineSet
465 414 m 1,0,-1
 465 451 l 2,1,2
 465 571 465 571 511 646 c 128,-1,3
 557 721 557 721 672 803 c 0,4,5
 802 900 802 900 843.5 958 c 128,-1,6
 885 1016 885 1016 885 1116 c 0,7,8
 885 1208 885 1208 810.5 1265.5 c 128,-1,9
 736 1323 736 1323 604 1323 c 0,10,11
 430 1323 430 1323 233 1233 c 1,12,-1
 168 1386 l 1,13,14
 377 1483 377 1483 594 1483 c 0,15,16
 808 1483 808 1483 933.5 1385.5 c 128,-1,17
 1059 1288 1059 1288 1059 1124 c 0,18,19
 1059 991 1059 991 1005.5 908 c 128,-1,20
 952 825 952 825 809 717 c 0,21,22
 691 630 691 630 658 576 c 128,-1,23
 625 522 625 522 625 432 c 2,24,-1
 625 414 l 1,25,-1
 465 414 l 1,0,-1
553 250 m 256,26,27
 680 250 680 250 680 111 c 0,28,29
 680 -29 680 -29 553 -29 c 256,30,31
 426 -29 426 -29 426 111 c 0,32,33
 426 250 426 250 553 250 c 256,26,27
EndSplineSet
Validated: 1
EndChar

StartChar: at
Encoding: 64 64 35
Width: 1229
Flags: W
LayerCount: 2
Fore
SplineSet
799 401 m 1,0,-1
 795 401 l 1,1,2
 721 221 721 221 565 221 c 0,3,4
 445 221 445 221 375 325.5 c 128,-1,5
 305 430 305 430 305 606 c 0,6,7
 305 812 305 812 402 938.5 c 128,-1,8
 499 1065 499 1065 657 1065 c 0,9,10
 794 1065 794 1065 913 1018 c 1,11,-1
 891 602 l 2,12,13
 889 564 889 564 889 533 c 2,14,-1
 889 526 l 2,15,16
 889 350 889 350 961 350 c 0,17,18
 1061 350 1061 350 1061 733 c 0,19,20
 1061 1011 1061 1011 950 1169 c 128,-1,21
 839 1327 839 1327 651 1327 c 0,22,23
 425 1327 425 1327 298.5 1135 c 128,-1,24
 172 943 172 943 172 608 c 0,25,26
 172 296 172 296 301.5 125.5 c 128,-1,27
 431 -45 431 -45 670 -45 c 0,28,29
 851 -45 851 -45 1016 33 c 1,30,-1
 1016 -100 l 1,31,32
 858 -182 858 -182 664 -182 c 0,33,34
 366 -182 366 -182 198.5 25 c 128,-1,35
 31 232 31 232 31 602 c 0,36,37
 31 999 31 999 198 1230.5 c 128,-1,38
 365 1462 365 1462 653 1462 c 0,39,40
 901 1462 901 1462 1049.5 1266 c 128,-1,41
 1198 1070 1198 1070 1198 731 c 0,42,43
 1198 500 1198 500 1134 360.5 c 128,-1,44
 1070 221 1070 221 956 221 c 0,45,46
 828 221 828 221 799 401 c 1,0,-1
752 915 m 1,47,48
 698 936 698 936 649 936 c 0,49,50
 560 936 560 936 512.5 842.5 c 128,-1,51
 465 749 465 749 465 602 c 0,52,53
 465 350 465 350 592 350 c 0,54,55
 723 350 723 350 737 662 c 1,56,-1
 752 915 l 1,47,48
EndSplineSet
Validated: 1
EndChar

StartChar: A
Encoding: 65 65 36
Width: 1229
Flags: W
LayerCount: 2
Fore
SplineSet
1004 0 m 1,0,-1
 860 453 l 1,1,-1
 369 453 l 1,2,-1
 223 0 l 1,3,-1
 33 0 l 1,4,-1
 516 1468 l 1,5,-1
 711 1468 l 1,6,-1
 1196 0 l 1,7,-1
 1004 0 l 1,0,-1
807 618 m 1,8,-1
 674 1042 l 2,9,10
 635 1166 635 1166 612 1268 c 1,11,12
 592 1169 592 1169 566 1085 c 2,13,-1
 422 618 l 1,14,-1
 807 618 l 1,8,-1
EndSplineSet
Validated: 1
EndChar

StartChar: B
Encoding: 66 66 37
Width: 1229
Flags: W
LayerCount: 2
Fore
SplineSet
135 1462 m 1,0,-1
 575 1462 l 2,1,2
 849 1462 849 1462 972.5 1374.5 c 128,-1,3
 1096 1287 1096 1287 1096 1092 c 0,4,5
 1096 964 1096 964 1017.5 879 c 128,-1,6
 939 794 939 794 805 776 c 1,7,-1
 805 766 l 1,8,9
 1137 712 1137 712 1137 424 c 0,10,11
 1137 226 1137 226 1009.5 113 c 128,-1,12
 882 0 882 0 662 0 c 2,13,-1
 135 0 l 1,14,-1
 135 1462 l 1,0,-1
322 842 m 1,15,-1
 606 842 l 2,16,17
 762 842 762 842 833.5 897 c 128,-1,18
 905 952 905 952 905 1079 c 0,19,20
 905 1199 905 1199 828.5 1251 c 128,-1,21
 752 1303 752 1303 586 1303 c 2,22,-1
 322 1303 l 1,23,-1
 322 842 l 1,15,-1
322 686 m 1,24,-1
 322 158 l 1,25,-1
 629 158 l 2,26,27
 940 158 940 158 940 432 c 0,28,29
 940 686 940 686 616 686 c 2,30,-1
 322 686 l 1,24,-1
EndSplineSet
Validated: 1
EndChar

StartChar: C
Encoding: 67 67 38
Width: 1229
Flags: W
LayerCount: 2
Fore
SplineSet
1124 201 m 1,0,-1
 1124 39 l 1,1,2
 978 -20 978 -20 766 -20 c 0,3,4
 457 -20 457 -20 293 176 c 128,-1,5
 129 372 129 372 129 733 c 0,6,7
 129 1079 129 1079 308 1281 c 128,-1,8
 487 1483 487 1483 797 1483 c 0,9,10
 1017 1483 1017 1483 1180 1397 c 1,11,-1
 1102 1241 l 1,12,13
 948 1319 948 1319 797 1319 c 0,14,15
 582 1319 582 1319 454 1160.5 c 128,-1,16
 326 1002 326 1002 326 731 c 0,17,18
 326 444 326 444 446 293.5 c 128,-1,19
 566 143 566 143 797 143 c 0,20,21
 927 143 927 143 1124 201 c 1,0,-1
EndSplineSet
Validated: 1
EndChar

StartChar: D
Encoding: 68 68 39
Width: 1229
Flags: W
LayerCount: 2
Fore
SplineSet
135 0 m 1,0,-1
 135 1462 l 1,1,-1
 477 1462 l 2,2,3
 794 1462 794 1462 970.5 1273 c 128,-1,4
 1147 1084 1147 1084 1147 745 c 0,5,6
 1147 384 1147 384 964 192 c 128,-1,7
 781 0 781 0 436 0 c 2,8,-1
 135 0 l 1,0,-1
322 1303 m 1,9,-1
 322 160 l 1,10,-1
 418 160 l 2,11,12
 950 160 950 160 950 739 c 0,13,14
 950 1303 950 1303 457 1303 c 2,15,-1
 322 1303 l 1,9,-1
EndSplineSet
Validated: 1
EndChar

StartChar: E
Encoding: 69 69 40
Width: 1229
Flags: W
LayerCount: 2
Fore
SplineSet
1059 0 m 1,0,-1
 217 0 l 1,1,-1
 217 1462 l 1,2,-1
 1059 1462 l 1,3,-1
 1059 1298 l 1,4,-1
 403 1298 l 1,5,-1
 403 846 l 1,6,-1
 1020 846 l 1,7,-1
 1020 684 l 1,8,-1
 403 684 l 1,9,-1
 403 164 l 1,10,-1
 1059 164 l 1,11,-1
 1059 0 l 1,0,-1
EndSplineSet
Validated: 1
EndChar

StartChar: F
Encoding: 70 70 41
Width: 1229
Flags: W
LayerCount: 2
Fore
SplineSet
430 0 m 1,0,-1
 244 0 l 1,1,-1
 244 1462 l 1,2,-1
 1085 1462 l 1,3,-1
 1085 1298 l 1,4,-1
 430 1298 l 1,5,-1
 430 782 l 1,6,-1
 1047 782 l 1,7,-1
 1047 618 l 1,8,-1
 430 618 l 1,9,-1
 430 0 l 1,0,-1
EndSplineSet
Validated: 1
EndChar

StartChar: G
Encoding: 71 71 42
Width: 1229
Flags: W
LayerCount: 2
Fore
SplineSet
672 772 m 1,0,-1
 1094 772 l 1,1,-1
 1094 55 l 1,2,3
 899 -20 899 -20 674 -20 c 0,4,5
 412 -20 412 -20 264.5 179.5 c 128,-1,6
 117 379 117 379 117 733 c 0,7,8
 117 1084 117 1084 279 1283.5 c 128,-1,9
 441 1483 441 1483 725 1483 c 0,10,11
 917 1483 917 1483 1071 1397 c 1,12,-1
 999 1235 l 1,13,14
 853 1319 853 1319 719 1319 c 0,15,16
 527 1319 527 1319 420 1163.5 c 128,-1,17
 313 1008 313 1008 313 731 c 0,18,19
 313 143 313 143 707 143 c 0,20,21
 804 143 804 143 909 172 c 1,22,-1
 909 608 l 1,23,-1
 672 608 l 1,24,-1
 672 772 l 1,0,-1
EndSplineSet
Validated: 1
EndChar

StartChar: H
Encoding: 72 72 43
Width: 1229
Flags: W
LayerCount: 2
Fore
SplineSet
1094 0 m 1,0,-1
 907 0 l 1,1,-1
 907 682 l 1,2,-1
 322 682 l 1,3,-1
 322 0 l 1,4,-1
 135 0 l 1,5,-1
 135 1462 l 1,6,-1
 322 1462 l 1,7,-1
 322 846 l 1,8,-1
 907 846 l 1,9,-1
 907 1462 l 1,10,-1
 1094 1462 l 1,11,-1
 1094 0 l 1,0,-1
EndSplineSet
Validated: 1
EndChar

StartChar: I
Encoding: 73 73 44
Width: 1229
Flags: W
LayerCount: 2
Fore
SplineSet
1001 0 m 1,0,-1
 225 0 l 1,1,-1
 225 123 l 1,2,-1
 520 143 l 1,3,-1
 520 1319 l 1,4,-1
 225 1339 l 1,5,-1
 225 1462 l 1,6,-1
 1001 1462 l 1,7,-1
 1001 1339 l 1,8,-1
 707 1319 l 1,9,-1
 707 143 l 1,10,-1
 1001 123 l 1,11,-1
 1001 0 l 1,0,-1
EndSplineSet
Validated: 1
EndChar

StartChar: J
Encoding: 74 74 45
Width: 1229
Flags: W
LayerCount: 2
Fore
SplineSet
137 39 m 1,0,-1
 137 205 l 1,1,2
 299 143 299 143 446 143 c 0,3,4
 607 143 607 143 700 222.5 c 128,-1,5
 793 302 793 302 793 449 c 2,6,-1
 793 1462 l 1,7,-1
 979 1462 l 1,8,-1
 979 451 l 2,9,10
 979 235 979 235 838.5 107.5 c 128,-1,11
 698 -20 698 -20 461 -20 c 0,12,13
 244 -20 244 -20 137 39 c 1,0,-1
EndSplineSet
Validated: 1
EndChar

StartChar: K
Encoding: 75 75 46
Width: 1229
Flags: W
LayerCount: 2
Fore
SplineSet
1198 0 m 1,0,-1
 987 0 l 1,1,-1
 537 698 l 1,2,-1
 397 584 l 1,3,-1
 397 0 l 1,4,-1
 211 0 l 1,5,-1
 211 1462 l 1,6,-1
 397 1462 l 1,7,-1
 397 731 l 1,8,-1
 518 899 l 1,9,-1
 971 1462 l 1,10,-1
 1180 1462 l 1,11,-1
 659 825 l 1,12,-1
 1198 0 l 1,0,-1
EndSplineSet
Validated: 1
EndChar

StartChar: L
Encoding: 76 76 47
Width: 1229
Flags: W
LayerCount: 2
Fore
SplineSet
233 0 m 1,0,-1
 233 1462 l 1,1,-1
 420 1462 l 1,2,-1
 420 166 l 1,3,-1
 1055 166 l 1,4,-1
 1055 0 l 1,5,-1
 233 0 l 1,0,-1
EndSplineSet
Validated: 1
EndChar

StartChar: M
Encoding: 77 77 48
Width: 1229
Flags: W
LayerCount: 2
Fore
SplineSet
532 0 m 1,0,-1
 254 1280 l 1,1,-1
 246 1280 l 1,2,3
 264 1014 264 1014 264 874 c 2,4,-1
 264 0 l 1,5,-1
 113 0 l 1,6,-1
 113 1462 l 1,7,-1
 360 1462 l 1,8,-1
 608 270 l 1,9,-1
 614 270 l 1,10,-1
 864 1462 l 1,11,-1
 1116 1462 l 1,12,-1
 1116 0 l 1,13,-1
 963 0 l 1,14,-1
 963 887 l 2,15,16
 963 989 963 989 977 1278 c 1,17,-1
 969 1278 l 1,18,-1
 686 0 l 1,19,-1
 532 0 l 1,0,-1
EndSplineSet
Validated: 1
EndChar

StartChar: N
Encoding: 78 78 49
Width: 1229
Flags: W
LayerCount: 2
Fore
SplineSet
1092 0 m 1,0,-1
 877 0 l 1,1,-1
 297 1210 l 1,2,-1
 289 1210 l 1,3,4
 307 933 307 933 307 793 c 2,5,-1
 307 0 l 1,6,-1
 135 0 l 1,7,-1
 135 1462 l 1,8,-1
 348 1462 l 1,9,-1
 926 258 l 1,10,-1
 932 258 l 1,11,12
 918 561 918 561 918 662 c 2,13,-1
 918 1462 l 1,14,-1
 1092 1462 l 1,15,-1
 1092 0 l 1,0,-1
EndSplineSet
Validated: 1
EndChar

StartChar: O
Encoding: 79 79 50
Width: 1229
Flags: W
LayerCount: 2
Fore
SplineSet
616 -20 m 0,0,1
 84 -20 84 -20 84 735 c 0,2,3
 84 1485 84 1485 618 1485 c 0,4,5
 874 1485 874 1485 1010.5 1289.5 c 128,-1,6
 1147 1094 1147 1094 1147 733 c 256,7,8
 1147 372 1147 372 1009 176 c 128,-1,9
 871 -20 871 -20 616 -20 c 0,0,1
616 143 m 0,10,11
 789 143 789 143 869.5 288 c 128,-1,12
 950 433 950 433 950 733 c 0,13,14
 950 1036 950 1036 868.5 1178.5 c 128,-1,15
 787 1321 787 1321 618 1321 c 0,16,17
 281 1321 281 1321 281 733 c 0,18,19
 281 143 281 143 616 143 c 0,10,11
EndSplineSet
Validated: 1
EndChar

StartChar: P
Encoding: 80 80 51
Width: 1229
Flags: W
LayerCount: 2
Fore
SplineSet
362 569 m 1,0,-1
 362 0 l 1,1,-1
 176 0 l 1,2,-1
 176 1462 l 1,3,-1
 580 1462 l 2,4,5
 1094 1462 1094 1462 1094 1034 c 0,6,7
 1094 815 1094 815 955.5 692 c 128,-1,8
 817 569 817 569 553 569 c 2,9,-1
 362 569 l 1,0,-1
362 727 m 1,10,-1
 532 727 l 2,11,12
 730 727 730 727 815.5 799 c 128,-1,13
 901 871 901 871 901 1024 c 0,14,15
 901 1303 901 1303 563 1303 c 2,16,-1
 362 1303 l 1,17,-1
 362 727 l 1,10,-1
EndSplineSet
Validated: 1
EndChar

StartChar: Q
Encoding: 81 81 52
Width: 1229
Flags: W
LayerCount: 2
Fore
SplineSet
862 39 m 1,0,1
 947 -141 947 -141 1141 -272 c 1,2,-1
 1020 -414 l 1,3,4
 784 -243 784 -243 692 -14 c 1,5,6
 656 -20 656 -20 616 -20 c 0,7,8
 84 -20 84 -20 84 735 c 0,9,10
 84 1485 84 1485 618 1485 c 0,11,12
 874 1485 874 1485 1010.5 1289.5 c 128,-1,13
 1147 1094 1147 1094 1147 733 c 0,14,15
 1147 207 1147 207 862 39 c 1,0,1
616 143 m 0,16,17
 789 143 789 143 869.5 288 c 128,-1,18
 950 433 950 433 950 733 c 0,19,20
 950 1036 950 1036 868.5 1178.5 c 128,-1,21
 787 1321 787 1321 618 1321 c 0,22,23
 281 1321 281 1321 281 733 c 0,24,25
 281 143 281 143 616 143 c 0,16,17
EndSplineSet
Validated: 1
EndChar

StartChar: R
Encoding: 82 82 53
Width: 1229
Flags: W
LayerCount: 2
Fore
SplineSet
373 604 m 1,0,-1
 373 0 l 1,1,-1
 186 0 l 1,2,-1
 186 1462 l 1,3,-1
 543 1462 l 2,4,5
 1063 1462 1063 1462 1063 1047 c 0,6,7
 1063 760 1063 760 774 655 c 1,8,-1
 1171 0 l 1,9,-1
 952 0 l 1,10,-1
 602 604 l 1,11,-1
 373 604 l 1,0,-1
373 762 m 1,12,-1
 537 762 l 2,13,14
 708 762 708 762 789 828 c 128,-1,15
 870 894 870 894 870 1038 c 0,16,17
 870 1179 870 1179 790 1241 c 128,-1,18
 710 1303 710 1303 532 1303 c 2,19,-1
 373 1303 l 1,20,-1
 373 762 l 1,12,-1
EndSplineSet
Validated: 1
EndChar

StartChar: S
Encoding: 83 83 54
Width: 1229
Flags: W
LayerCount: 2
Fore
SplineSet
141 49 m 1,0,-1
 141 227 l 1,1,2
 352 141 352 141 555 141 c 0,3,4
 905 141 905 141 905 381 c 0,5,6
 905 485 905 485 834.5 541 c 128,-1,7
 764 597 764 597 549 674 c 0,8,9
 341 747 341 747 250.5 848.5 c 128,-1,10
 160 950 160 950 160 1112 c 0,11,12
 160 1286 160 1286 288.5 1384.5 c 128,-1,13
 417 1483 417 1483 641 1483 c 0,14,15
 870 1483 870 1483 1057 1405 c 1,16,-1
 993 1241 l 1,17,18
 800 1319 800 1319 633 1319 c 0,19,20
 340 1319 340 1319 340 1110 c 0,21,22
 340 1008 340 1008 405.5 946 c 128,-1,23
 471 884 471 884 676 813 c 0,24,25
 922 725 922 725 1004.5 631.5 c 128,-1,26
 1087 538 1087 538 1087 391 c 0,27,28
 1087 199 1087 199 948.5 89.5 c 128,-1,29
 810 -20 810 -20 555 -20 c 0,30,31
 290 -20 290 -20 141 49 c 1,0,-1
EndSplineSet
Validated: 1
EndChar

StartChar: T
Encoding: 84 84 55
Width: 1229
Flags: W
LayerCount: 2
Fore
SplineSet
707 0 m 1,0,-1
 520 0 l 1,1,-1
 520 1298 l 1,2,-1
 102 1298 l 1,3,-1
 102 1462 l 1,4,-1
 1124 1462 l 1,5,-1
 1124 1298 l 1,6,-1
 707 1298 l 1,7,-1
 707 0 l 1,0,-1
EndSplineSet
Validated: 1
EndChar

StartChar: U
Encoding: 85 85 56
Width: 1229
Flags: W
LayerCount: 2
Fore
SplineSet
1104 1464 m 1,0,-1
 1104 516 l 2,1,2
 1104 256 1104 256 978 118 c 128,-1,3
 852 -20 852 -20 608 -20 c 0,4,5
 125 -20 125 -20 125 520 c 2,6,-1
 125 1462 l 1,7,-1
 311 1462 l 1,8,-1
 311 530 l 2,9,10
 311 143 311 143 618 143 c 0,11,12
 913 143 913 143 918 532 c 1,13,-1
 918 1464 l 1,14,-1
 1104 1464 l 1,0,-1
EndSplineSet
Validated: 1
EndChar

StartChar: V
Encoding: 86 86 57
Width: 1229
Flags: W
LayerCount: 2
Fore
SplineSet
997 1462 m 1,0,-1
 1196 1462 l 1,1,-1
 707 0 l 1,2,-1
 520 0 l 1,3,-1
 33 1462 l 1,4,-1
 229 1462 l 1,5,-1
 524 535 l 2,6,7
 565 408 565 408 612 201 c 1,8,9
 643 346 643 346 705 541 c 2,10,-1
 997 1462 l 1,0,-1
EndSplineSet
Validated: 1
EndChar

StartChar: W
Encoding: 87 87 58
Width: 1229
Flags: W
LayerCount: 2
Fore
SplineSet
528 1008 m 1,0,-1
 705 1008 l 1,1,-1
 850 487 l 2,2,3
 911 268 911 268 922 180 c 1,4,5
 924 233 924 233 987 799 c 2,6,-1
 1057 1462 l 1,7,-1
 1227 1462 l 1,8,-1
 1040 0 l 1,9,-1
 850 0 l 1,10,-1
 682 580 l 2,11,12
 642 718 642 718 616 862 c 1,13,14
 584 689 584 689 551 578 c 2,15,-1
 395 0 l 1,16,-1
 205 0 l 1,17,-1
 2 1462 l 1,18,-1
 172 1462 l 1,19,-1
 260 799 l 2,20,21
 283 623 283 623 300 421 c 128,-1,22
 317 219 317 219 317 180 c 1,23,24
 341 331 341 331 387 492 c 2,25,-1
 528 1008 l 1,0,-1
EndSplineSet
Validated: 1
EndChar

StartChar: X
Encoding: 88 88 59
Width: 1229
Flags: W
LayerCount: 2
Fore
SplineSet
1174 0 m 1,0,-1
 963 0 l 1,1,-1
 608 635 l 1,2,-1
 242 0 l 1,3,-1
 53 0 l 1,4,-1
 506 764 l 1,5,-1
 84 1462 l 1,6,-1
 283 1462 l 1,7,-1
 614 903 l 1,8,-1
 948 1462 l 1,9,-1
 1139 1462 l 1,10,-1
 717 770 l 1,11,-1
 1174 0 l 1,0,-1
EndSplineSet
Validated: 1
EndChar

StartChar: Y
Encoding: 89 89 60
Width: 1229
Flags: W
LayerCount: 2
Fore
SplineSet
612 723 m 1,0,-1
 993 1462 l 1,1,-1
 1194 1462 l 1,2,-1
 707 569 l 1,3,-1
 707 0 l 1,4,-1
 520 0 l 1,5,-1
 520 559 l 1,6,-1
 33 1462 l 1,7,-1
 236 1462 l 1,8,-1
 612 723 l 1,0,-1
EndSplineSet
Validated: 1
EndChar

StartChar: Z
Encoding: 90 90 61
Width: 1229
Flags: W
LayerCount: 2
Fore
SplineSet
1124 0 m 1,0,-1
 102 0 l 1,1,-1
 102 145 l 1,2,-1
 895 1296 l 1,3,-1
 123 1296 l 1,4,-1
 123 1462 l 1,5,-1
 1104 1462 l 1,6,-1
 1104 1317 l 1,7,-1
 311 166 l 1,8,-1
 1124 166 l 1,9,-1
 1124 0 l 1,0,-1
EndSplineSet
Validated: 1
EndChar

StartChar: bracketleft
Encoding: 91 91 62
Width: 1229
Flags: W
LayerCount: 2
Fore
SplineSet
940 -324 m 1,0,-1
 412 -324 l 1,1,-1
 412 1462 l 1,2,-1
 940 1462 l 1,3,-1
 940 1313 l 1,4,-1
 594 1313 l 1,5,-1
 594 -174 l 1,6,-1
 940 -174 l 1,7,-1
 940 -324 l 1,0,-1
EndSplineSet
Validated: 1
EndChar

StartChar: backslash
Encoding: 92 92 63
Width: 1229
Flags: W
LayerCount: 2
Fore
SplineSet
389 1462 m 1,0,-1
 1016 0 l 1,1,-1
 838 0 l 1,2,-1
 211 1462 l 1,3,-1
 389 1462 l 1,0,-1
EndSplineSet
Validated: 1
EndChar

StartChar: bracketright
Encoding: 93 93 64
Width: 1229
Flags: W
LayerCount: 2
Fore
SplineSet
289 -174 m 1,0,-1
 635 -174 l 1,1,-1
 635 1313 l 1,2,-1
 289 1313 l 1,3,-1
 289 1462 l 1,4,-1
 817 1462 l 1,5,-1
 817 -324 l 1,6,-1
 289 -324 l 1,7,-1
 289 -174 l 1,0,-1
EndSplineSet
Validated: 1
EndChar

StartChar: asciicircum
Encoding: 94 94 65
Width: 1229
Flags: W
LayerCount: 2
Fore
SplineSet
111 549 m 1,0,-1
 535 1473 l 1,1,-1
 637 1473 l 1,2,-1
 1118 549 l 1,3,-1
 956 549 l 1,4,-1
 588 1284 l 1,5,-1
 270 549 l 1,6,-1
 111 549 l 1,0,-1
EndSplineSet
Validated: 1
EndChar

StartChar: underscore
Encoding: 95 95 66
Width: 1229
Flags: W
LayerCount: 2
Fore
SplineSet
1243 -324 m 1,0,-1
 -16 -324 l 1,1,-1
 -16 -184 l 1,2,-1
 1243 -184 l 1,3,-1
 1243 -324 l 1,0,-1
EndSplineSet
Validated: 1
EndChar

StartChar: grave
Encoding: 96 96 67
Width: 1229
Flags: W
LayerCount: 2
Fore
SplineSet
811 1241 m 1,0,-1
 690 1241 l 1,1,2
 524 1383 524 1383 418 1548 c 1,3,-1
 418 1569 l 1,4,-1
 637 1569 l 1,5,6
 723 1391 723 1391 811 1268 c 1,7,-1
 811 1241 l 1,0,-1
EndSplineSet
Validated: 1
EndChar

StartChar: a
Encoding: 97 97 68
Width: 1229
Flags: W
LayerCount: 2
Fore
SplineSet
895 0 m 1,0,-1
 858 152 l 1,1,-1
 850 152 l 1,2,3
 773 55 773 55 692 17.5 c 128,-1,4
 611 -20 611 -20 483 -20 c 0,5,6
 320 -20 320 -20 227.5 66 c 128,-1,7
 135 152 135 152 135 307 c 0,8,9
 135 639 135 639 645 655 c 2,10,-1
 848 662 l 1,11,-1
 848 731 l 2,12,13
 848 967 848 967 604 967 c 0,14,15
 457 967 457 967 276 885 c 1,16,-1
 213 1022 l 1,17,18
 409 1118 409 1118 596 1118 c 0,19,20
 823 1118 823 1118 924.5 1031 c 128,-1,21
 1026 944 1026 944 1026 752 c 2,22,-1
 1026 0 l 1,23,-1
 895 0 l 1,0,-1
846 537 m 1,24,-1
 684 530 l 2,25,26
 488 522 488 522 406 468.5 c 128,-1,27
 324 415 324 415 324 305 c 0,28,29
 324 127 324 127 524 127 c 0,30,31
 671 127 671 127 758.5 208.5 c 128,-1,32
 846 290 846 290 846 438 c 2,33,-1
 846 537 l 1,24,-1
EndSplineSet
Validated: 1
EndChar

StartChar: b
Encoding: 98 98 69
Width: 1229
Flags: W
LayerCount: 2
Fore
SplineSet
340 139 m 1,0,-1
 328 139 l 1,1,-1
 291 0 l 1,2,-1
 158 0 l 1,3,-1
 158 1556 l 1,4,-1
 340 1556 l 1,5,-1
 340 1180 l 2,6,7
 340 1099 340 1099 332 954 c 1,8,-1
 340 954 l 1,9,10
 447 1118 447 1118 662 1118 c 0,11,12
 863 1118 863 1118 977.5 968.5 c 128,-1,13
 1092 819 1092 819 1092 551 c 0,14,15
 1092 281 1092 281 977 130.5 c 128,-1,16
 862 -20 862 -20 662 -20 c 0,17,18
 455 -20 455 -20 340 139 c 1,0,-1
340 551 m 0,19,20
 340 324 340 324 409.5 227.5 c 128,-1,21
 479 131 479 131 631 131 c 0,22,23
 903 131 903 131 903 553 c 0,24,25
 903 967 903 967 629 967 c 0,26,27
 474 967 474 967 407 873 c 128,-1,28
 340 779 340 779 340 551 c 0,19,20
EndSplineSet
Validated: 1
EndChar

StartChar: c
Encoding: 99 99 70
Width: 1229
Flags: W
LayerCount: 2
Fore
SplineSet
1061 1059 m 1,0,-1
 999 901 l 1,1,2
 849 958 849 958 731 958 c 0,3,4
 360 958 360 958 360 545 c 0,5,6
 360 139 360 139 721 139 c 0,7,8
 878 139 878 139 1042 201 c 1,9,-1
 1042 41 l 1,10,11
 908 -20 908 -20 713 -20 c 0,12,13
 456 -20 456 -20 314 125.5 c 128,-1,14
 172 271 172 271 172 543 c 0,15,16
 172 824 172 824 317 971 c 128,-1,17
 462 1118 462 1118 725 1118 c 0,18,19
 903 1118 903 1118 1061 1059 c 1,0,-1
EndSplineSet
Validated: 1
EndChar

StartChar: d
Encoding: 100 100 71
Width: 1229
Flags: W
LayerCount: 2
Fore
SplineSet
897 147 m 1,0,-1
 889 147 l 1,1,2
 776 -20 776 -20 567 -20 c 0,3,4
 366 -20 366 -20 251.5 129.5 c 128,-1,5
 137 279 137 279 137 547 c 0,6,7
 137 817 137 817 252 967.5 c 128,-1,8
 367 1118 367 1118 567 1118 c 0,9,10
 773 1118 773 1118 889 958 c 1,11,-1
 901 958 l 1,12,13
 889 1087 889 1087 889 1120 c 2,14,-1
 889 1556 l 1,15,-1
 1071 1556 l 1,16,-1
 1071 0 l 1,17,-1
 924 0 l 1,18,-1
 897 147 l 1,0,-1
889 506 m 1,19,-1
 889 547 l 2,20,21
 889 774 889 774 819.5 870.5 c 128,-1,22
 750 967 750 967 598 967 c 0,23,24
 326 967 326 967 326 545 c 0,25,26
 326 131 326 131 600 131 c 0,27,28
 752 131 752 131 818.5 219.5 c 128,-1,29
 885 308 885 308 889 506 c 1,19,-1
EndSplineSet
Validated: 1
EndChar

StartChar: e
Encoding: 101 101 72
Width: 1229
Flags: W
LayerCount: 2
Fore
SplineSet
1096 514 m 1,0,-1
 322 514 l 1,1,2
 330 139 330 139 666 139 c 0,3,4
 861 139 861 139 1036 215 c 1,5,-1
 1036 55 l 1,6,7
 870 -20 870 -20 672 -20 c 0,8,9
 427 -20 427 -20 280 129.5 c 128,-1,10
 133 279 133 279 133 541 c 0,11,12
 133 807 133 807 268.5 962.5 c 128,-1,13
 404 1118 404 1118 631 1118 c 0,14,15
 843 1118 843 1118 969.5 984 c 128,-1,16
 1096 850 1096 850 1096 627 c 2,17,-1
 1096 514 l 1,0,-1
326 662 m 1,18,-1
 899 662 l 1,19,20
 899 967 899 967 627 967 c 0,21,22
 352 967 352 967 326 662 c 1,18,-1
EndSplineSet
Validated: 1
EndChar

StartChar: f
Encoding: 102 102 73
Width: 1229
Flags: W
LayerCount: 2
Fore
SplineSet
1044 961 m 1,0,-1
 655 961 l 1,1,-1
 655 0 l 1,2,-1
 473 0 l 1,3,-1
 473 961 l 1,4,-1
 156 961 l 1,5,-1
 156 1071 l 1,6,-1
 473 1104 l 1,7,-1
 473 1200 l 2,8,9
 473 1393 473 1393 563 1480 c 128,-1,10
 653 1567 653 1567 862 1567 c 0,11,12
 991 1567 991 1567 1114 1532 c 1,13,-1
 1073 1389 l 1,14,15
 969 1417 969 1417 866 1417 c 0,16,17
 743 1417 743 1417 699 1367 c 128,-1,18
 655 1317 655 1317 655 1202 c 2,19,-1
 655 1098 l 1,20,-1
 1044 1098 l 1,21,-1
 1044 961 l 1,0,-1
EndSplineSet
Validated: 1
EndChar

StartChar: g
Encoding: 103 103 74
Width: 1229
Flags: W
LayerCount: 2
Fore
SplineSet
1126 1098 m 1,0,-1
 1126 985 l 1,1,-1
 930 958 l 1,2,3
 995 873 995 873 995 745 c 0,4,5
 995 584 995 584 888.5 488.5 c 128,-1,6
 782 393 782 393 592 393 c 0,7,8
 537 393 537 393 506 399 c 1,9,10
 406 343 406 343 406 266 c 0,11,12
 406 182 406 182 567 182 c 2,13,-1
 754 182 l 2,14,15
 928 182 928 182 1020 105 c 128,-1,16
 1112 28 1112 28 1112 -115 c 0,17,18
 1112 -492 1112 -492 547 -492 c 0,19,20
 329 -492 329 -492 215.5 -411.5 c 128,-1,21
 102 -331 102 -331 102 -186 c 0,22,23
 102 26 102 26 342 84 c 1,24,25
 246 131 246 131 246 238 c 0,26,27
 246 350 246 350 379 430 c 1,28,29
 290 467 290 467 239 552.5 c 128,-1,30
 188 638 188 638 188 739 c 0,31,32
 188 921 188 921 294.5 1019.5 c 128,-1,33
 401 1118 401 1118 598 1118 c 0,34,35
 684 1118 684 1118 748 1098 c 1,36,-1
 1126 1098 l 1,0,-1
594 518 m 0,37,38
 817 518 817 518 817 748 c 0,39,40
 817 987 817 987 592 987 c 256,41,42
 367 987 367 987 367 745 c 0,43,44
 367 518 367 518 594 518 c 0,37,38
692 18 m 2,45,-1
 504 18 l 2,46,47
 274 18 274 18 274 -180 c 0,48,49
 274 -354 274 -354 545 -354 c 0,50,51
 940 -354 940 -354 940 -131 c 0,52,53
 940 -43 940 -43 890 -12.5 c 128,-1,54
 840 18 840 18 692 18 c 2,45,-1
EndSplineSet
Validated: 1
EndChar

StartChar: h
Encoding: 104 104 75
Width: 1229
Flags: W
LayerCount: 2
Fore
SplineSet
887 0 m 1,0,-1
 887 707 l 2,1,2
 887 967 887 967 649 967 c 0,3,4
 342 967 342 967 342 569 c 2,5,-1
 342 0 l 1,6,-1
 160 0 l 1,7,-1
 160 1556 l 1,8,-1
 342 1556 l 1,9,-1
 342 1094 l 1,10,-1
 334 950 l 1,11,-1
 344 950 l 1,12,13
 447 1118 447 1118 680 1118 c 0,14,15
 1069 1118 1069 1118 1069 717 c 2,16,-1
 1069 0 l 1,17,-1
 887 0 l 1,0,-1
EndSplineSet
Validated: 1
EndChar

StartChar: i
Encoding: 105 105 76
Width: 1229
Flags: W
LayerCount: 2
Fore
SplineSet
633 1550 m 0,0,1
 739 1550 739 1550 739 1436 c 0,2,3
 739 1378 739 1378 707.5 1349.5 c 128,-1,4
 676 1321 676 1321 633 1321 c 0,5,6
 526 1321 526 1321 526 1436 c 0,7,8
 526 1550 526 1550 633 1550 c 0,0,1
541 954 m 1,9,-1
 272 975 l 1,10,-1
 272 1098 l 1,11,-1
 723 1098 l 1,12,-1
 723 143 l 1,13,-1
 1075 123 l 1,14,-1
 1075 0 l 1,15,-1
 197 0 l 1,16,-1
 197 123 l 1,17,-1
 541 143 l 1,18,-1
 541 954 l 1,9,-1
EndSplineSet
Validated: 1
EndChar

StartChar: j
Encoding: 106 106 77
Width: 1229
Flags: W
LayerCount: 2
Fore
SplineSet
743 1550 m 0,0,1
 850 1550 850 1550 850 1436 c 0,2,3
 850 1321 850 1321 743 1321 c 0,4,5
 637 1321 637 1321 637 1436 c 0,6,7
 637 1550 637 1550 743 1550 c 0,0,1
135 -457 m 1,8,-1
 135 -303 l 1,9,10
 269 -342 269 -342 424 -342 c 0,11,12
 541 -342 541 -342 606.5 -285 c 128,-1,13
 672 -228 672 -228 672 -127 c 2,14,-1
 672 954 l 1,15,-1
 252 975 l 1,16,-1
 252 1098 l 1,17,-1
 854 1098 l 1,18,-1
 854 -117 l 2,19,20
 854 -297 854 -297 741 -394.5 c 128,-1,21
 628 -492 628 -492 422 -492 c 0,22,23
 258 -492 258 -492 135 -457 c 1,8,-1
EndSplineSet
Validated: 1
EndChar

StartChar: k
Encoding: 107 107 78
Width: 1229
Flags: W
LayerCount: 2
Fore
SplineSet
383 553 m 1,0,-1
 518 705 l 1,1,-1
 913 1098 l 1,2,-1
 1135 1098 l 1,3,-1
 641 623 l 1,4,-1
 1163 0 l 1,5,-1
 950 0 l 1,6,-1
 524 504 l 1,7,-1
 395 422 l 1,8,-1
 395 0 l 1,9,-1
 215 0 l 1,10,-1
 215 1556 l 1,11,-1
 395 1556 l 1,12,-1
 395 842 l 1,13,-1
 379 553 l 1,14,-1
 383 553 l 1,0,-1
EndSplineSet
Validated: 1
EndChar

StartChar: l
Encoding: 108 108 79
Width: 1229
Flags: W
LayerCount: 2
Fore
SplineSet
532 1413 m 1,0,-1
 264 1434 l 1,1,-1
 264 1556 l 1,2,-1
 715 1556 l 1,3,-1
 715 143 l 1,4,-1
 1067 123 l 1,5,-1
 1067 0 l 1,6,-1
 188 0 l 1,7,-1
 188 123 l 1,8,-1
 532 143 l 1,9,-1
 532 1413 l 1,0,-1
EndSplineSet
Validated: 1
EndChar

StartChar: m
Encoding: 109 109 80
Width: 1229
Flags: W
LayerCount: 2
Fore
SplineSet
977 0 m 1,0,-1
 977 707 l 2,1,2
 977 853 977 853 950.5 910 c 128,-1,3
 924 967 924 967 862 967 c 0,4,5
 775 967 775 967 735.5 884 c 128,-1,6
 696 801 696 801 696 606 c 2,7,-1
 696 0 l 1,8,-1
 535 0 l 1,9,-1
 535 707 l 2,10,11
 535 967 535 967 410 967 c 0,12,13
 326 967 326 967 290 887.5 c 128,-1,14
 254 808 254 808 254 569 c 2,15,-1
 254 0 l 1,16,-1
 92 0 l 1,17,-1
 92 1098 l 1,18,-1
 219 1098 l 1,19,-1
 246 950 l 1,20,-1
 256 950 l 1,21,22
 323 1118 323 1118 457 1118 c 0,23,24
 620 1118 620 1118 670 936 c 1,25,-1
 676 936 l 1,26,27
 752 1118 752 1118 895 1118 c 0,28,29
 1023 1118 1023 1118 1081 1025.5 c 128,-1,30
 1139 933 1139 933 1139 717 c 2,31,-1
 1139 0 l 1,32,-1
 977 0 l 1,0,-1
EndSplineSet
Validated: 1
EndChar

StartChar: n
Encoding: 110 110 81
Width: 1229
Flags: W
LayerCount: 2
Fore
SplineSet
887 0 m 1,0,-1
 887 707 l 2,1,2
 887 967 887 967 649 967 c 0,3,4
 342 967 342 967 342 569 c 2,5,-1
 342 0 l 1,6,-1
 160 0 l 1,7,-1
 160 1098 l 1,8,-1
 307 1098 l 1,9,-1
 334 950 l 1,10,-1
 344 950 l 1,11,12
 447 1118 447 1118 680 1118 c 0,13,14
 1069 1118 1069 1118 1069 717 c 2,15,-1
 1069 0 l 1,16,-1
 887 0 l 1,0,-1
EndSplineSet
Validated: 1
EndChar

StartChar: o
Encoding: 111 111 82
Width: 1229
Flags: W
LayerCount: 2
Fore
SplineSet
610 -20 m 0,0,1
 394 -20 394 -20 254.5 135.5 c 128,-1,2
 115 291 115 291 115 551 c 0,3,4
 115 814 115 814 250.5 966 c 128,-1,5
 386 1118 386 1118 616 1118 c 0,6,7
 834 1118 834 1118 973 963 c 128,-1,8
 1112 808 1112 808 1112 551 c 0,9,10
 1112 286 1112 286 975 133 c 128,-1,11
 838 -20 838 -20 610 -20 c 0,0,1
614 131 m 0,12,13
 924 131 924 131 924 551 c 0,14,15
 924 967 924 967 612 967 c 0,16,17
 303 967 303 967 303 551 c 0,18,19
 303 131 303 131 614 131 c 0,12,13
EndSplineSet
Validated: 1
EndChar

StartChar: p
Encoding: 112 112 83
Width: 1229
Flags: W
LayerCount: 2
Fore
SplineSet
340 139 m 1,0,-1
 328 139 l 1,1,2
 340 10 340 10 340 -23 c 2,3,-1
 340 -492 l 1,4,-1
 158 -492 l 1,5,-1
 158 1098 l 1,6,-1
 305 1098 l 1,7,-1
 332 950 l 1,8,-1
 340 950 l 1,9,10
 450 1118 450 1118 662 1118 c 0,11,12
 863 1118 863 1118 977.5 968.5 c 128,-1,13
 1092 819 1092 819 1092 551 c 0,14,15
 1092 281 1092 281 977 130.5 c 128,-1,16
 862 -20 862 -20 662 -20 c 0,17,18
 455 -20 455 -20 340 139 c 1,0,-1
340 592 m 1,19,-1
 340 551 l 2,20,21
 340 324 340 324 409.5 227.5 c 128,-1,22
 479 131 479 131 631 131 c 0,23,24
 903 131 903 131 903 553 c 0,25,26
 903 967 903 967 629 967 c 0,27,28
 477 967 477 967 410.5 879 c 128,-1,29
 344 791 344 791 340 592 c 1,19,-1
EndSplineSet
Validated: 1
EndChar

StartChar: q
Encoding: 113 113 84
Width: 1229
Flags: W
LayerCount: 2
Fore
SplineSet
889 950 m 1,0,-1
 897 950 l 1,1,-1
 924 1098 l 1,2,-1
 1071 1098 l 1,3,-1
 1071 -492 l 1,4,-1
 889 -492 l 1,5,-1
 889 -23 l 2,6,7
 889 18 889 18 901 147 c 1,8,-1
 889 147 l 1,9,10
 776 -20 776 -20 567 -20 c 0,11,12
 366 -20 366 -20 251.5 129.5 c 128,-1,13
 137 279 137 279 137 547 c 0,14,15
 137 817 137 817 252 967.5 c 128,-1,16
 367 1118 367 1118 567 1118 c 0,17,18
 774 1118 774 1118 889 950 c 1,0,-1
889 506 m 1,19,-1
 889 547 l 2,20,21
 889 774 889 774 819.5 870.5 c 128,-1,22
 750 967 750 967 598 967 c 0,23,24
 326 967 326 967 326 545 c 0,25,26
 326 131 326 131 600 131 c 0,27,28
 752 131 752 131 818.5 219.5 c 128,-1,29
 885 308 885 308 889 506 c 1,19,-1
EndSplineSet
Validated: 1
EndChar

StartChar: r
Encoding: 114 114 85
Width: 1229
Flags: W
LayerCount: 2
Fore
SplineSet
1059 1073 m 1,0,-1
 1010 907 l 1,1,2
 887 952 887 952 786 952 c 0,3,4
 623 952 623 952 534.5 859.5 c 128,-1,5
 446 767 446 767 446 592 c 2,6,-1
 446 0 l 1,7,-1
 264 0 l 1,8,-1
 264 1098 l 1,9,-1
 412 1098 l 1,10,-1
 434 897 l 1,11,-1
 442 897 l 1,12,13
 518 1016 518 1016 605 1067 c 128,-1,14
 692 1118 692 1118 819 1118 c 0,15,16
 937 1118 937 1118 1059 1073 c 1,0,-1
EndSplineSet
Validated: 1
EndChar

StartChar: s
Encoding: 115 115 86
Width: 1229
Flags: W
LayerCount: 2
Fore
SplineSet
203 49 m 1,0,-1
 203 215 l 1,1,2
 396 129 396 129 573 129 c 0,3,4
 848 129 848 129 848 291 c 0,5,6
 848 348 848 348 799 390 c 128,-1,7
 750 432 750 432 573 496 c 0,8,9
 340 583 340 583 279.5 655.5 c 128,-1,10
 219 728 219 728 219 827 c 0,11,12
 219 963 219 963 330.5 1040.5 c 128,-1,13
 442 1118 442 1118 639 1118 c 0,14,15
 837 1118 837 1118 1008 1044 c 1,16,-1
 948 895 l 1,17,18
 766 967 766 967 629 967 c 0,19,20
 393 967 393 967 393 834 c 0,21,22
 393 773 393 773 443.5 736.5 c 128,-1,23
 494 700 494 700 676 635 c 0,24,25
 887 558 887 558 956.5 483.5 c 128,-1,26
 1026 409 1026 409 1026 301 c 0,27,28
 1026 151 1026 151 909 65.5 c 128,-1,29
 792 -20 792 -20 578 -20 c 0,30,31
 330 -20 330 -20 203 49 c 1,0,-1
EndSplineSet
Validated: 1
EndChar

StartChar: t
Encoding: 116 116 87
Width: 1229
Flags: W
LayerCount: 2
Fore
SplineSet
1020 150 m 1,0,-1
 1020 12 l 1,1,2
 890 -20 890 -20 768 -20 c 0,3,4
 406 -20 406 -20 406 324 c 2,5,-1
 406 961 l 1,6,-1
 139 961 l 1,7,-1
 139 1055 l 1,8,-1
 406 1104 l 1,9,-1
 483 1391 l 1,10,-1
 588 1391 l 1,11,-1
 588 1098 l 1,12,-1
 1026 1098 l 1,13,-1
 1026 961 l 1,14,-1
 588 961 l 1,15,-1
 588 324 l 2,16,17
 588 129 588 129 780 129 c 0,18,19
 873 129 873 129 1020 150 c 1,0,-1
EndSplineSet
Validated: 1
EndChar

StartChar: u
Encoding: 117 117 88
Width: 1229
Flags: W
LayerCount: 2
Fore
SplineSet
922 0 m 1,0,-1
 895 147 l 1,1,-1
 885 147 l 1,2,3
 780 -20 780 -20 551 -20 c 0,4,5
 160 -20 160 -20 160 381 c 2,6,-1
 160 1098 l 1,7,-1
 342 1098 l 1,8,-1
 342 391 l 2,9,10
 342 131 342 131 578 131 c 0,11,12
 739 131 739 131 813 223.5 c 128,-1,13
 887 316 887 316 887 528 c 2,14,-1
 887 1098 l 1,15,-1
 1069 1098 l 1,16,-1
 1069 0 l 1,17,-1
 922 0 l 1,0,-1
EndSplineSet
Validated: 1
EndChar

StartChar: v
Encoding: 118 118 89
Width: 1229
Flags: W
LayerCount: 2
Fore
SplineSet
498 0 m 1,0,-1
 82 1098 l 1,1,-1
 270 1098 l 1,2,-1
 510 446 l 2,3,4
 595 215 595 215 610 121 c 1,5,-1
 616 121 l 1,6,7
 623 165 623 165 717 446 c 1,8,-1
 956 1098 l 1,9,-1
 1145 1098 l 1,10,-1
 729 0 l 1,11,-1
 498 0 l 1,0,-1
EndSplineSet
Validated: 1
EndChar

StartChar: w
Encoding: 119 119 90
Width: 1229
Flags: W
LayerCount: 2
Fore
SplineSet
813 0 m 1,0,-1
 682 596 l 1,1,-1
 614 926 l 1,2,-1
 608 926 l 1,3,-1
 543 592 l 1,4,-1
 408 0 l 1,5,-1
 219 0 l 1,6,-1
 -4 1098 l 1,7,-1
 158 1098 l 1,8,-1
 256 555 l 2,9,10
 290 369 290 369 313 162 c 1,11,-1
 319 162 l 1,12,13
 350 347 350 347 387 520 c 2,14,-1
 520 1098 l 1,15,-1
 713 1098 l 1,16,-1
 840 520 l 2,17,18
 883 325 883 325 907 162 c 1,19,-1
 913 162 l 1,20,21
 944 404 944 404 973 555 c 2,22,-1
 1075 1098 l 1,23,-1
 1233 1098 l 1,24,-1
 1008 0 l 1,25,-1
 813 0 l 1,0,-1
EndSplineSet
Validated: 1
EndChar

StartChar: x
Encoding: 120 120 91
Width: 1229
Flags: W
LayerCount: 2
Fore
SplineSet
510 563 m 1,0,-1
 117 1098 l 1,1,-1
 324 1098 l 1,2,-1
 614 688 l 1,3,-1
 905 1098 l 1,4,-1
 1112 1098 l 1,5,-1
 717 563 l 1,6,-1
 1130 0 l 1,7,-1
 924 0 l 1,8,-1
 614 436 l 1,9,-1
 303 0 l 1,10,-1
 96 0 l 1,11,-1
 510 563 l 1,0,-1
EndSplineSet
Validated: 1
EndChar

StartChar: y
Encoding: 121 121 92
Width: 1229
Flags: W
LayerCount: 2
Fore
SplineSet
82 1098 m 1,0,-1
 270 1098 l 1,1,-1
 532 444 l 2,2,3
 614 239 614 239 621 154 c 1,4,-1
 627 154 l 1,5,6
 650 266 650 266 717 446 c 2,7,-1
 956 1098 l 1,8,-1
 1145 1098 l 1,9,-1
 670 -143 l 2,10,11
 603 -317 603 -317 514 -404.5 c 128,-1,12
 425 -492 425 -492 268 -492 c 0,13,14
 182 -492 182 -492 100 -475 c 1,15,-1
 100 -330 l 1,16,17
 162 -342 162 -342 236 -342 c 0,18,19
 332 -342 332 -342 385.5 -301 c 128,-1,20
 439 -260 439 -260 481 -160 c 2,21,-1
 539 -10 l 1,22,-1
 82 1098 l 1,0,-1
EndSplineSet
Validated: 1
EndChar

StartChar: z
Encoding: 122 122 93
Width: 1229
Flags: W
LayerCount: 2
Fore
SplineSet
1044 0 m 1,0,-1
 182 0 l 1,1,-1
 182 125 l 1,2,-1
 842 961 l 1,3,-1
 215 961 l 1,4,-1
 215 1098 l 1,5,-1
 1026 1098 l 1,6,-1
 1026 952 l 1,7,-1
 379 137 l 1,8,-1
 1044 137 l 1,9,-1
 1044 0 l 1,0,-1
EndSplineSet
Validated: 1
EndChar

StartChar: braceleft
Encoding: 123 123 94
Width: 1229
Flags: W
LayerCount: 2
Fore
SplineSet
745 -16 m 2,0,1
 745 -97 745 -97 801 -134.5 c 128,-1,2
 857 -172 857 -172 1001 -174 c 1,3,-1
 1001 -324 l 1,4,5
 563 -318 563 -318 563 -31 c 2,6,-1
 563 303 l 2,7,8
 563 492 563 492 225 492 c 1,9,-1
 225 647 l 1,10,11
 563 647 563 647 563 836 c 2,12,-1
 563 1169 l 2,13,14
 563 1456 563 1456 1001 1462 c 1,15,-1
 1001 1313 l 1,16,17
 857 1311 857 1311 801 1273.5 c 128,-1,18
 745 1236 745 1236 745 1155 c 2,19,-1
 745 823 l 2,20,21
 745 616 745 616 512 575 c 1,22,-1
 512 563 l 1,23,24
 745 522 745 522 745 315 c 2,25,-1
 745 -16 l 2,0,1
EndSplineSet
Validated: 1
EndChar

StartChar: bar
Encoding: 124 124 95
Width: 1229
Flags: W
LayerCount: 2
Fore
SplineSet
539 1556 m 1,0,-1
 688 1556 l 1,1,-1
 688 -492 l 1,2,-1
 539 -492 l 1,3,-1
 539 1556 l 1,0,-1
EndSplineSet
Validated: 1
EndChar

StartChar: braceright
Encoding: 125 125 96
Width: 1229
Flags: W
LayerCount: 2
Fore
SplineSet
483 315 m 2,0,1
 483 522 483 522 717 563 c 1,2,-1
 717 575 l 1,3,4
 483 616 483 616 483 823 c 2,5,-1
 483 1155 l 2,6,7
 483 1236 483 1236 426.5 1274 c 128,-1,8
 370 1312 370 1312 227 1313 c 1,9,-1
 227 1462 l 1,10,11
 666 1456 666 1456 666 1169 c 2,12,-1
 666 836 l 2,13,14
 666 647 666 647 1004 647 c 1,15,-1
 1004 492 l 1,16,17
 666 492 666 492 666 303 c 2,18,-1
 666 -31 l 2,19,20
 666 -318 666 -318 227 -324 c 1,21,-1
 227 -174 l 1,22,23
 370 -173 370 -173 426.5 -135 c 128,-1,24
 483 -97 483 -97 483 -16 c 2,25,-1
 483 315 l 2,0,1
EndSplineSet
Validated: 1
EndChar

StartChar: asciitilde
Encoding: 126 126 97
Width: 1229
Flags: W
LayerCount: 2
Fore
SplineSet
152 586 m 1,0,-1
 152 748 l 1,1,2
 251 856 251 856 399 856 c 0,3,4
 499 856 499 856 647 793 c 0,5,6
 777 737 777 737 848 737 c 0,7,8
 956 737 956 737 1075 858 c 1,9,-1
 1075 696 l 1,10,11
 976 588 976 588 827 588 c 0,12,13
 727 588 727 588 580 651 c 0,14,15
 449 707 449 707 379 707 c 0,16,17
 271 707 271 707 152 586 c 1,0,-1
EndSplineSet
Validated: 1
EndChar

StartChar: exclamdown
Encoding: 161 161 99
Width: 2048
Flags: W
HStem: 0 135<1912 2015> 35 100<2015 2047> 239 171<1809 2047>
VStem: 1639 170<0 239> 1912 135<35 135> 1912 103<0 35>
LayerCount: 2
Fore
SplineSet
1912 135 m 1,0,-1
 2047 135 l 1,1,-1
 2047 35 l 1,2,-1
 2015 35 l 1,3,-1
 2015 0 l 1,4,-1
 1912 0 l 1,5,-1
 1912 135 l 1,0,-1
1639 410 m 1,6,-1
 2047 410 l 1,7,-1
 2047 239 l 1,8,-1
 1809 239 l 1,9,-1
 1809 0 l 1,10,-1
 1639 0 l 1,11,-1
 1639 410 l 1,6,-1
EndSplineSet
EndChar

StartChar: cent
Encoding: 162 162 100
Width: 2048
Flags: W
LayerCount: 2
Fore
SplineSet
0 135 m 1,0,-1
 2048 135 l 1,1,-1
 2048 35 l 1,2,-1
 0 35 l 1,3,-1
 0 135 l 1,0,-1
0 410 m 1,4,-1
 2047 410 l 1,5,-1
 2047 239 l 1,6,-1
 0 239 l 1,7,-1
 0 410 l 1,4,-1
EndSplineSet
EndChar

StartChar: sterling
Encoding: 163 163 101
Width: 2048
Flags: W
LayerCount: 2
Fore
SplineSet
135 135 m 1,0,-1
 135 0 l 1,1,-1
 32 0 l 1,2,-1
 32 35 l 1,3,-1
 0 35 l 1,4,-1
 0 135 l 1,5,-1
 135 135 l 1,0,-1
409 410 m 1,6,-1
 409 0 l 1,7,-1
 238 0 l 1,8,-1
 238 239 l 1,9,-1
 0 239 l 1,10,-1
 0 410 l 1,11,-1
 409 410 l 1,6,-1
EndSplineSet
EndChar

StartChar: currency
Encoding: 164 164 102
Width: 2048
Flags: W
LayerCount: 2
Fore
SplineSet
1915 0 m 1,0,-1
 1916 2049 l 1,1,-1
 2015 2049 l 1,2,-1
 2015 0 l 1,3,-1
 1915 0 l 1,0,-1
1640 0 m 1,4,-1
 1642 2049 l 1,5,-1
 1813 2049 l 1,6,-1
 1812 0 l 1,7,-1
 1640 0 l 1,4,-1
EndSplineSet
EndChar

StartChar: yen
Encoding: 165 165 103
Width: 2048
Flags: W
LayerCount: 2
Fore
SplineSet
132 0 m 1,0,-1
 32 0 l 1,1,-1
 32 2049 l 1,2,-1
 132 2049 l 1,3,-1
 132 0 l 1,0,-1
407 0 m 1,4,-1
 236 0 l 1,5,-1
 235 2049 l 1,6,-1
 406 2049 l 1,7,-1
 407 0 l 1,4,-1
EndSplineSet
EndChar

StartChar: brokenbar
Encoding: 166 166 104
Width: 2048
Flags: W
LayerCount: 2
Fore
SplineSet
1912 1913 m 1,0,-1
 1912 2049 l 1,1,-1
 2015 2049 l 1,2,-1
 2015 2013 l 1,3,-1
 2047 2013 l 1,4,-1
 2047 1913 l 1,5,-1
 1912 1913 l 1,0,-1
1639 1638 m 1,6,-1
 1639 2049 l 1,7,-1
 1809 2049 l 1,8,-1
 1809 1809 l 1,9,-1
 2047 1809 l 1,10,-1
 2047 1638 l 1,11,-1
 1639 1638 l 1,6,-1
EndSplineSet
EndChar

StartChar: section
Encoding: 167 167 105
Width: 2048
Flags: W
LayerCount: 2
Fore
SplineSet
0 1913 m 1,0,-1
 0 2013 l 1,1,-1
 2048 2013 l 1,2,-1
 2048 1913 l 1,3,-1
 0 1913 l 1,0,-1
0 1638 m 1,4,-1
 0 1809 l 1,5,-1
 2047 1809 l 1,6,-1
 2047 1638 l 1,7,-1
 0 1638 l 1,4,-1
EndSplineSet
EndChar

StartChar: dieresis
Encoding: 168 168 106
Width: 2048
Flags: W
LayerCount: 2
Fore
SplineSet
135 1913 m 1,0,-1
 0 1913 l 1,1,-1
 0 2013 l 1,2,-1
 32 2013 l 1,3,-1
 32 2049 l 1,4,-1
 135 2049 l 1,5,-1
 135 1913 l 1,0,-1
409 1638 m 1,6,-1
 0 1638 l 1,7,-1
 0 1809 l 1,8,-1
 238 1809 l 1,9,-1
 238 2049 l 1,10,-1
 409 2049 l 1,11,-1
 409 1638 l 1,6,-1
EndSplineSet
EndChar

StartChar: copyright
Encoding: 169 169 107
Width: 2048
Flags: W
LayerCount: 2
Fore
SplineSet
1074 1446 m 1,0,-1
 1074 722 l 2,1,2
 1074 660 1074 660 1104 640 c 0,3,4
 1126 624 1126 624 1189 624 c 1,5,-1
 1189 596 l 1,6,-1
 855 596 l 1,7,-1
 855 624 l 1,8,9
 920 624 920 624 941 641 c 0,10,11
 969 667 969 667 969 728 c 2,12,-1
 969 1269 l 2,13,14
 969 1286 969 1286 963 1301 c 2,15,-1
 956 1313 l 2,16,17
 950 1322 950 1322 935 1322 c 0,18,19
 924 1322 924 1322 899 1312 c 2,20,-1
 855 1293 l 1,21,-1
 855 1322 l 1,22,-1
 1074 1446 l 1,0,-1
1915 0 m 1,23,-1
 1916 2049 l 1,24,-1
 2015 2049 l 1,25,-1
 2015 0 l 1,26,-1
 1915 0 l 1,23,-1
1640 0 m 1,27,-1
 1642 2049 l 1,28,-1
 1813 2049 l 1,29,-1
 1812 0 l 1,30,-1
 1640 0 l 1,27,-1
EndSplineSet
EndChar

StartChar: ordfeminine
Encoding: 170 170 108
Width: 2048
Flags: W
LayerCount: 2
Fore
SplineSet
1014 701 m 1,0,-1
 1071 702 l 2,1,2
 1109 703 1109 703 1128 724 c 2,3,-1
 1152 752 l 1,4,-1
 1171 777 l 1,5,-1
 1189 768 l 1,6,-1
 1122 596 l 1,7,-1
 635 596 l 1,8,-1
 635 616 l 1,9,-1
 744 732 l 1,10,-1
 843 837 l 2,11,12
 890 889 890 889 933 947 c 0,13,14
 975 1003 975 1003 992 1049 c 0,15,16
 1007 1097 1007 1097 1007 1160 c 0,17,18
 1007 1242 1007 1242 970 1291 c 0,19,20
 923 1350 923 1350 849 1350 c 0,21,22
 728 1350 728 1350 669 1222 c 1,23,-1
 659 1197 l 1,24,-1
 635 1208 l 1,25,-1
 641 1231 l 2,26,27
 666 1323 666 1323 729 1377 c 0,28,29
 762 1407 762 1407 809 1426 c 0,30,31
 861 1446 861 1446 911 1446 c 0,32,33
 1008 1444 1008 1444 1070 1381 c 0,34,35
 1132 1314 1132 1314 1132 1220 c 0,36,37
 1132 1110 1132 1110 1027 977 c 0,38,39
 968 907 968 907 914 851 c 2,40,-1
 831 765 l 1,41,-1
 771 705 l 1,42,-1
 771 701 l 1,43,-1
 1014 701 l 1,0,-1
1915 0 m 1,44,-1
 1916 2049 l 1,45,-1
 2015 2049 l 1,46,-1
 2015 0 l 1,47,-1
 1915 0 l 1,44,-1
1640 0 m 1,48,-1
 1642 2049 l 1,49,-1
 1813 2049 l 1,50,-1
 1812 0 l 1,51,-1
 1640 0 l 1,48,-1
EndSplineSet
EndChar

StartChar: guillemotleft
Encoding: 171 171 109
Width: 2048
Flags: W
LayerCount: 2
Fore
SplineSet
725 1292 m 2,0,1
 752 1368 752 1368 815 1414 c 0,2,3
 849 1439 849 1439 877 1448 c 0,4,5
 913 1459 913 1459 953 1459 c 0,6,7
 1026 1459 1026 1459 1077 1421 c 0,8,9
 1142 1373 1142 1373 1141 1292 c 0,10,11
 1139 1196 1139 1196 1064 1138 c 2,12,-1
 1036 1118 l 1,13,-1
 1036 1115 l 1,14,15
 1116 1076 1116 1076 1150 1024 c 0,16,17
 1187 965 1187 965 1189 884 c 0,18,19
 1189 747 1189 747 1085 665 c 0,20,21
 992 590 992 590 855 590 c 0,22,23
 709 587 709 587 711 661 c 0,24,25
 711 679 711 679 726 698 c 0,26,27
 740 714 740 714 763 714 c 0,28,29
 774 714 774 714 794 708 c 0,30,31
 815 700 815 700 836 690 c 0,32,33
 880 667 880 667 888 665 c 0,34,35
 910 656 910 656 940 656 c 0,36,37
 1006 656 1006 656 1052 708 c 0,38,39
 1092 754 1092 754 1094 828 c 1,40,41
 1090 915 1090 915 1027 972 c 0,42,43
 975 1017 975 1017 870 1019 c 2,44,-1
 836 1019 l 1,45,-1
 836 1048 l 1,46,47
 1010 1100 1010 1100 1039 1196 c 0,48,49
 1046 1214 1046 1214 1046 1237 c 0,50,51
 1044 1293 1044 1293 1003 1329 c 0,52,53
 966 1363 966 1363 908 1363 c 0,54,55
 848 1363 848 1363 803 1328 c 0,56,57
 775 1307 775 1307 735 1239 c 1,58,-1
 711 1250 l 1,59,-1
 725 1292 l 2,0,1
1915 0 m 1,60,-1
 1916 2049 l 1,61,-1
 2015 2049 l 1,62,-1
 2015 0 l 1,63,-1
 1915 0 l 1,60,-1
1640 0 m 1,64,-1
 1642 2049 l 1,65,-1
 1813 2049 l 1,66,-1
 1812 0 l 1,67,-1
 1640 0 l 1,64,-1
EndSplineSet
EndChar

StartChar: logicalnot
Encoding: 172 172 110
Width: 2048
Flags: W
LayerCount: 2
Fore
SplineSet
1028 1453 m 1,0,-1
 1085 1453 l 1,1,-1
 1085 899 l 1,2,-1
 1210 899 l 1,3,-1
 1210 803 l 1,4,-1
 1085 803 l 1,5,-1
 1085 603 l 1,6,-1
 980 603 l 1,7,-1
 980 803 l 1,8,-1
 655 803 l 1,9,-1
 655 913 l 1,10,-1
 1028 1453 l 1,0,-1
701 896 m 1,11,-1
 701 899 l 1,12,-1
 980 899 l 1,13,-1
 980 1295 l 1,14,-1
 982 1295 l 1,15,-1
 701 896 l 1,11,-1
1915 0 m 1,16,-1
 1916 2049 l 1,17,-1
 2015 2049 l 1,18,-1
 2015 0 l 1,19,-1
 1915 0 l 1,16,-1
1640 0 m 1,20,-1
 1642 2049 l 1,21,-1
 1813 2049 l 1,22,-1
 1812 0 l 1,23,-1
 1640 0 l 1,20,-1
EndSplineSet
EndChar

StartChar: registered
Encoding: 174 174 111
Width: 2048
Flags: W
LayerCount: 2
Fore
SplineSet
809 1087 m 1,0,1
 899 1135 899 1135 969 1135 c 0,2,3
 1045 1135 1045 1135 1097 1093 c 0,4,5
 1155 1045 1155 1045 1175 980 c 0,6,7
 1189 936 1189 936 1189 881 c 0,8,9
 1189 709 1189 709 1074 627 c 0,10,11
 1046 605 1046 605 1013 595 c 0,12,13
 972 581 972 581 926 581 c 0,14,15
 798 581 798 581 718 696 c 0,16,17
 654 788 654 788 654 932 c 0,18,19
 654 1113 654 1113 746 1240 c 0,20,21
 787 1299 787 1299 854 1348 c 0,22,23
 914 1393 914 1393 978 1419 c 0,24,25
 1048 1447 1048 1447 1125 1451 c 1,26,-1
 1170 1450 l 1,27,-1
 1170 1422 l 1,28,-1
 1135 1414 l 2,29,30
 1094 1403 1094 1403 1038 1381 c 0,31,32
 881 1313 881 1313 824 1137 c 1,33,-1
 809 1087 l 1,0,1
791 1023 m 1,34,-1
 782 978 l 2,35,36
 778 958 778 958 778 920 c 0,37,38
 778 833 778 833 799 758 c 0,39,40
 805 725 805 725 830 687 c 0,41,42
 867 627 867 627 933 629 c 1,43,44
 1063 625 1063 625 1065 833 c 0,45,46
 1065 920 1065 920 1033 984 c 0,47,48
 989 1068 989 1068 913 1068 c 0,49,50
 860 1068 860 1068 791 1023 c 1,34,-1
1915 0 m 1,51,-1
 1916 2049 l 1,52,-1
 2015 2049 l 1,53,-1
 2015 0 l 1,54,-1
 1915 0 l 1,51,-1
1640 0 m 1,55,-1
 1642 2049 l 1,56,-1
 1813 2049 l 1,57,-1
 1812 0 l 1,58,-1
 1640 0 l 1,55,-1
EndSplineSet
EndChar

StartChar: overscore
Encoding: 175 175 112
Width: 2048
Flags: W
LayerCount: 2
Fore
SplineSet
721 1433 m 1,0,-1
 1189 1433 l 1,1,-1
 911 602 l 1,2,-1
 826 602 l 1,3,-1
 1073 1324 l 1,4,-1
 1073 1328 l 1,5,-1
 830 1328 l 1,6,-1
 786 1325 l 2,7,8
 728 1320 728 1320 703 1278 c 2,9,-1
 673 1232 l 1,10,-1
 645 1242 l 1,11,-1
 721 1433 l 1,0,-1
1915 0 m 1,12,-1
 1916 2049 l 1,13,-1
 2015 2049 l 1,14,-1
 2015 0 l 1,15,-1
 1915 0 l 1,12,-1
1640 0 m 1,16,-1
 1642 2049 l 1,17,-1
 1813 2049 l 1,18,-1
 1812 0 l 1,19,-1
 1640 0 l 1,16,-1
EndSplineSet
EndChar

StartChar: degree
Encoding: 176 176 113
Width: 2048
Flags: W
LayerCount: 2
Fore
SplineSet
821 1054 m 2,0,1
 791 1075 791 1075 761 1110 c 0,2,3
 711 1166 711 1166 711 1243 c 0,4,5
 711 1340 711 1340 779 1398 c 0,6,7
 841 1451 841 1451 942 1451 c 0,8,9
 1037 1451 1037 1451 1096 1409 c 0,10,11
 1170 1357 1170 1357 1170 1271 c 0,12,13
 1168 1184 1168 1184 1098 1123 c 0,14,15
 1064 1094 1064 1094 1037 1080 c 2,16,-1
 1004 1064 l 1,17,-1
 1002 1064 l 1,18,-1
 1048 1030 l 2,19,20
 1093 997 1093 997 1126 960 c 0,21,22
 1161 921 1161 921 1176 875 c 0,23,24
 1189 840 1189 840 1189 799 c 0,25,26
 1187 691 1187 691 1112 633 c 0,27,28
 1042 580 1042 580 936 582 c 0,29,30
 836 582 836 582 770 635 c 0,31,32
 692 698 692 698 692 792 c 0,33,34
 692 830 692 830 707 868 c 0,35,36
 735 943 735 943 834 1001 c 2,37,-1
 866 1020 l 1,38,-1
 864 1020 l 1,39,-1
 821 1054 l 2,0,1
907 987 m 1,40,-1
 904 987 l 1,41,-1
 863 957 l 1,42,43
 788 894 788 894 788 801 c 0,44,45
 788 732 788 732 838 681 c 0,46,47
 891 629 891 629 960 629 c 0,48,49
 1022 629 1022 629 1058 665 c 0,50,51
 1093 700 1093 700 1093 762 c 0,52,53
 1093 830 1093 830 1028 891 c 0,54,55
 999 917 999 917 967 943 c 2,56,-1
 907 987 l 1,40,-1
953 1096 m 1,57,-1
 960 1096 l 1,58,-1
 991 1119 l 2,59,60
 1034 1152 1034 1152 1053 1187 c 0,61,62
 1074 1224 1074 1224 1074 1276 c 0,63,64
 1074 1336 1074 1336 1035 1369 c 0,65,66
 998 1403 998 1403 939 1403 c 0,67,68
 882 1403 882 1403 846 1370 c 0,69,70
 807 1336 807 1336 807 1283 c 0,71,72
 807 1205 807 1205 914 1123 c 1,73,-1
 953 1096 l 1,57,-1
1915 0 m 1,74,-1
 1916 2049 l 1,75,-1
 2015 2049 l 1,76,-1
 2015 0 l 1,77,-1
 1915 0 l 1,74,-1
1640 0 m 1,78,-1
 1642 2049 l 1,79,-1
 1813 2049 l 1,80,-1
 1812 0 l 1,81,-1
 1640 0 l 1,78,-1
EndSplineSet
EndChar

StartChar: plusminus
Encoding: 177 177 114
Width: 2048
Flags: W
LayerCount: 2
Fore
SplineSet
0 1913 m 1,0,-1
 0 2013 l 1,1,-1
 2048 2013 l 1,2,-1
 2048 1913 l 1,3,-1
 0 1913 l 1,0,-1
0 1638 m 1,4,-1
 0 1809 l 1,5,-1
 2047 1809 l 1,6,-1
 2047 1638 l 1,7,-1
 0 1638 l 1,4,-1
1081 929 m 1,8,-1
 1081 961 l 2,9,10
 1081 989 1081 989 1077 1011 c 0,11,12
 1068 1084 1068 1084 997 1086 c 0,13,14
 921 1086 921 1086 919 1026 c 2,15,-1
 919 986 l 2,16,17
 917 923 917 923 860 923 c 0,18,19
 831 923 831 923 817 942 c 0,20,21
 804 960 804 960 804 987 c 0,22,23
 804 1027 804 1027 840 1065 c 0,24,25
 868 1094 868 1094 914 1110 c 0,26,27
 954 1124 954 1124 998 1124 c 0,28,29
 1038 1124 1038 1124 1076 1112 c 0,30,31
 1153 1087 1153 1087 1175 1023 c 0,32,33
 1186 991 1186 991 1186 963 c 2,34,-1
 1186 918 l 1,35,-1
 1186 685 l 1,36,-1
 1186 634 l 1,37,38
 1190 589 1190 589 1221 589 c 0,39,40
 1241 589 1241 589 1272 608 c 1,41,-1
 1272 570 l 1,42,-1
 1262 559 l 2,43,44
 1235 534 1235 534 1212 524 c 0,45,46
 1188 513 1188 513 1163 513 c 0,47,48
 1104 511 1104 511 1087 573 c 2,49,-1
 1081 599 l 1,50,-1
 1051 573 l 2,51,52
 976 513 976 513 908 513 c 0,53,54
 847 513 847 513 812 550 c 0,55,56
 776 586 776 586 776 645 c 0,57,58
 776 691 776 691 796 724 c 0,59,60
 818 759 818 759 854 786 c 0,61,62
 911 827 911 827 1011 867 c 2,63,-1
 1081 895 l 1,64,-1
 1081 929 l 1,8,-1
1081 847 m 1,65,-1
 1019 821 l 2,66,67
 888 765 888 765 890 679 c 0,68,69
 890 641 890 641 911 617 c 0,70,71
 933 589 933 589 969 589 c 0,72,73
 1019 589 1019 589 1064 629 c 2,74,-1
 1081 646 l 1,75,-1
 1081 847 l 1,65,-1
EndSplineSet
EndChar

StartChar: twosuperior
Encoding: 178 178 115
Width: 2048
Flags: W
LayerCount: 2
Fore
SplineSet
959 1056 m 1,0,1
 1017 1116 1017 1116 1097 1116 c 0,2,3
 1134 1116 1134 1116 1169 1101 c 0,4,5
 1204 1085 1204 1085 1230 1057 c 0,6,7
 1270 1016 1270 1016 1288 965 c 0,8,9
 1311 896 1311 896 1311 832 c 0,10,11
 1309 726 1309 726 1264 651 c 0,12,13
 1211 563 1211 563 1129 527 c 0,14,15
 1077 505 1077 505 1023 505 c 0,16,17
 974 505 974 505 922 519 c 0,18,19
 875 531 875 531 852 550 c 2,20,-1
 823 575 l 1,21,-1
 823 1219 l 1,22,-1
 822 1245 l 2,23,24
 817 1287 817 1287 763 1289 c 1,25,-1
 737 1288 l 1,26,-1
 737 1317 l 1,27,-1
 929 1374 l 1,28,-1
 929 1021 l 1,29,-1
 959 1056 l 1,0,1
929 598 m 1,30,-1
 937 586 l 1,31,32
 972 543 972 543 1034 543 c 0,33,34
 1097 543 1097 543 1139 588 c 0,35,36
 1165 615 1165 615 1176 650 c 0,37,38
 1196 711 1196 711 1196 785 c 0,39,40
 1196 878 1196 878 1165 947 c 0,41,42
 1123 1040 1123 1040 1044 1040 c 0,43,44
 958 1036 958 1036 935 958 c 0,45,46
 929 940 929 940 929 911 c 2,47,-1
 929 598 l 1,30,-1
0 1913 m 1,48,-1
 0 2013 l 1,49,-1
 2048 2013 l 1,50,-1
 2048 1913 l 1,51,-1
 0 1913 l 1,48,-1
0 1638 m 1,52,-1
 0 1809 l 1,53,-1
 2047 1809 l 1,54,-1
 2047 1638 l 1,55,-1
 0 1638 l 1,52,-1
EndSplineSet
EndChar

StartChar: threesuperior
Encoding: 179 179 116
Width: 2048
Flags: W
LayerCount: 2
Fore
SplineSet
1261 702 m 1,0,-1
 1248 674 l 2,1,2
 1223 628 1223 628 1188 586 c 0,3,4
 1146 539 1146 539 1100 521 c 0,5,6
 1062 505 1062 505 1013 505 c 0,7,8
 954 505 954 505 913 527 c 0,9,10
 869 551 869 551 842 589 c 0,11,12
 809 636 809 636 795 696 c 0,13,14
 783 747 783 747 783 802 c 0,15,16
 784 949 784 949 854 1036 c 0,17,18
 914 1113 914 1113 1032 1117 c 0,19,20
 1103 1117 1103 1117 1153 1087 c 0,21,22
 1223 1048 1223 1048 1223 988 c 0,23,24
 1221 935 1221 935 1167 935 c 0,25,26
 1111 935 1111 935 1099 1009 c 0,27,28
 1089 1048 1089 1048 1076 1061 c 0,29,30
 1059 1078 1059 1078 1023 1078 c 0,31,32
 950 1078 950 1078 908 1004 c 0,33,34
 879 952 879 952 879 861 c 0,35,36
 879 801 879 801 890 755 c 0,37,38
 920 610 920 610 1054 610 c 0,39,40
 1152 610 1152 610 1220 691 c 1,41,-1
 1238 715 l 1,42,-1
 1261 702 l 1,0,-1
0 1913 m 1,43,-1
 0 2013 l 1,44,-1
 2048 2013 l 1,45,-1
 2048 1913 l 1,46,-1
 0 1913 l 1,43,-1
0 1638 m 1,47,-1
 0 1809 l 1,48,-1
 2047 1809 l 1,49,-1
 2047 1638 l 1,50,-1
 0 1638 l 1,47,-1
EndSplineSet
EndChar

StartChar: acute
Encoding: 180 180 117
Width: 2048
Flags: W
LayerCount: 2
Fore
SplineSet
1118 572 m 1,0,-1
 1097 553 l 1,1,2
 1035 505 1035 505 960 505 c 0,3,4
 877 505 877 505 813 572 c 0,5,6
 774 610 774 610 760 654 c 0,7,8
 736 714 736 714 736 786 c 0,9,10
 736 912 736 912 801 1006 c 0,11,12
 878 1117 878 1117 993 1117 c 0,13,14
 1057 1117 1057 1117 1105 1080 c 2,15,-1
 1118 1069 l 1,16,-1
 1118 1220 l 1,17,-1
 1117 1246 l 2,18,19
 1112 1287 1112 1287 1059 1289 c 2,20,-1
 1032 1289 l 1,21,-1
 1032 1317 l 1,22,-1
 1223 1375 l 1,23,-1
 1223 652 l 2,24,25
 1223 609 1223 609 1236 600 c 2,26,-1
 1245 594 l 2,27,28
 1255 589 1255 589 1277 589 c 2,29,-1
 1309 591 l 1,30,-1
 1309 562 l 1,31,-1
 1118 505 l 1,32,-1
 1118 572 l 1,0,-1
1118 632 m 1,33,-1
 1118 921 l 2,34,35
 1118 962 1118 962 1108 997 c 0,36,37
 1098 1027 1098 1027 1065 1055 c 0,38,39
 1034 1078 1034 1078 998 1078 c 0,40,41
 942 1078 942 1078 908 1036 c 0,42,43
 883 1011 883 1011 871 972 c 0,44,45
 851 916 851 916 851 845 c 0,46,47
 851 770 851 770 874 705 c 0,48,49
 915 584 915 584 1018 581 c 0,50,51
 1083 582 1083 582 1118 632 c 1,33,-1
0 1913 m 1,52,-1
 0 2013 l 1,53,-1
 2048 2013 l 1,54,-1
 2048 1913 l 1,55,-1
 0 1913 l 1,52,-1
0 1638 m 1,56,-1
 0 1809 l 1,57,-1
 2047 1809 l 1,58,-1
 2047 1638 l 1,59,-1
 0 1638 l 1,56,-1
EndSplineSet
EndChar

StartChar: mu
Encoding: 181 181 118
Width: 2048
Flags: W
LayerCount: 2
Fore
SplineSet
1267 701 m 1,0,-1
 1254 673 l 1,1,2
 1166 505 1166 505 1013 505 c 0,3,4
 900 505 900 505 834 597 c 0,5,6
 779 674 779 674 779 798 c 0,7,8
 779 874 779 874 803 946 c 0,9,10
 828 1023 828 1023 885 1069 c 0,11,12
 945 1116 945 1116 1023 1116 c 0,13,14
 1121 1114 1121 1114 1182 1051 c 0,15,16
 1240 992 1240 992 1247 890 c 2,17,-1
 1248 877 l 1,18,-1
 876 877 l 1,19,-1
 875 859 l 2,20,21
 875 787 875 787 890 739 c 0,22,23
 927 610 927 610 1054 609 c 0,24,25
 1156 609 1156 609 1225 691 c 2,26,-1
 1244 715 l 1,27,-1
 1267 701 l 1,0,-1
1114 925 m 1,28,-1
 1111 952 l 2,29,30
 1098 1035 1098 1035 1054 1062 c 0,31,32
 1028 1078 1028 1078 1002 1078 c 0,33,34
 949 1078 949 1078 916 1032 c 256,35,36
 883 986 883 986 878 940 c 1,37,-1
 875 925 l 1,38,-1
 1114 925 l 1,28,-1
0 1913 m 1,39,-1
 0 2013 l 1,40,-1
 2048 2013 l 1,41,-1
 2048 1913 l 1,42,-1
 0 1913 l 1,39,-1
0 1638 m 1,43,-1
 0 1809 l 1,44,-1
 2047 1809 l 1,45,-1
 2047 1638 l 1,46,-1
 0 1638 l 1,43,-1
EndSplineSet
EndChar

StartChar: paragraph
Encoding: 182 182 119
Width: 2048
Flags: W
LayerCount: 2
Fore
SplineSet
902 1078 m 1,0,-1
 905 1135 l 2,1,2
 910 1227 910 1227 964 1290 c 0,3,4
 1019 1353 1019 1353 1114 1355 c 0,5,6
 1243 1353 1243 1353 1246 1274 c 0,7,8
 1246 1221 1246 1221 1194 1221 c 0,9,10
 1160 1221 1160 1221 1132 1272 c 0,11,12
 1106 1315 1106 1315 1074 1317 c 0,13,14
 1010 1317 1010 1317 1010 1223 c 1,15,-1
 1008 1182 l 1,16,-1
 1007 1142 l 1,17,-1
 1007 1078 l 1,18,-1
 1151 1078 l 1,19,-1
 1151 1030 l 1,20,-1
 1007 1030 l 1,21,-1
 1007 660 l 2,22,23
 1007 605 1007 605 1016 574 c 0,24,25
 1025 535 1025 535 1086 534 c 2,26,-1
 1112 533 l 1,27,-1
 1112 505 l 1,28,-1
 816 505 l 1,29,-1
 816 533 l 1,30,31
 875 533 875 533 892 570 c 0,32,33
 902 591 902 591 902 660 c 2,34,-1
 902 1030 l 1,35,-1
 807 1030 l 1,36,-1
 807 1078 l 1,37,-1
 902 1078 l 1,0,-1
0 1913 m 1,38,-1
 0 2013 l 1,39,-1
 2048 2013 l 1,40,-1
 2048 1913 l 1,41,-1
 0 1913 l 1,38,-1
0 1638 m 1,42,-1
 0 1809 l 1,43,-1
 2047 1809 l 1,44,-1
 2047 1638 l 1,45,-1
 0 1638 l 1,42,-1
EndSplineSet
EndChar

StartChar: periodcentered
Encoding: 183 183 120
Width: 2048
Flags: W
LayerCount: 2
Fore
SplineSet
1298 1033 m 1,0,-1
 1195 1033 l 1,1,-1
 1195 1031 l 1,2,-1
 1211 978 l 2,3,4
 1222 938 1222 938 1222 909 c 0,5,6
 1222 856 1222 856 1192 804 c 0,7,8
 1163 752 1163 752 1112 729 c 0,9,10
 1067 708 1067 708 1025 708 c 0,11,12
 997 708 997 708 954 717 c 1,13,-1
 923 690 l 2,14,15
 898 665 898 665 897 645 c 0,16,17
 895 621 895 621 942 617 c 0,18,19
 960 615 960 615 980 613.5 c 128,-1,20
 1000 612 1000 612 1021 612 c 2,21,-1
 1125 609 l 1,22,23
 1289 600 1289 600 1289 469 c 0,24,25
 1287 374 1287 374 1166 309 c 0,26,27
 1073 259 1073 259 964 259 c 0,28,29
 888 259 888 259 834 287 c 0,30,31
 754 329 754 329 754 389 c 0,32,33
 754 411 754 411 784 448 c 2,34,-1
 809 476 l 1,35,-1
 868 536 l 1,36,37
 811 560 811 560 811 599 c 0,38,39
 811 632 811 632 851 671 c 2,40,-1
 893 708 l 1,41,-1
 916 728 l 1,42,43
 852 765 852 765 830 800 c 0,44,45
 802 844 802 844 802 906 c 0,46,47
 802 1000 802 1000 862 1059 c 0,48,49
 925 1119 925 1119 1016 1119 c 0,50,51
 1075 1119 1075 1119 1129 1093 c 2,52,-1
 1143 1087 l 1,53,-1
 1143 1088 l 1,54,55
 1162 1081 1162 1081 1203 1081 c 2,56,-1
 1298 1081 l 1,57,-1
 1298 1033 l 1,0,-1
904 526 m 1,58,-1
 873 492 l 2,59,60
 840 456 840 456 840 424 c 0,61,62
 840 335 840 335 1030 335 c 0,63,64
 1096 335 1096 335 1161 357 c 0,65,66
 1251 388 1251 388 1251 449 c 0,67,68
 1251 505 1251 505 1172 509 c 2,69,-1
 988 517 l 1,70,-1
 940 522 l 1,71,-1
 904 526 l 1,58,-1
907 960 m 0,72,73
 907 896 907 896 927 835 c 0,74,75
 955 746 955 746 1025 746 c 0,76,77
 1117 748 1117 748 1117 867 c 0,78,79
 1117 936 1117 936 1088 998 c 0,80,81
 1051 1081 1051 1081 993 1081 c 0,82,83
 905 1079 905 1079 907 960 c 0,72,73
0 1913 m 1,84,-1
 0 2013 l 1,85,-1
 2048 2013 l 1,86,-1
 2048 1913 l 1,87,-1
 0 1913 l 1,84,-1
0 1638 m 1,88,-1
 0 1809 l 1,89,-1
 2047 1809 l 1,90,-1
 2047 1638 l 1,91,-1
 0 1638 l 1,88,-1
EndSplineSet
EndChar

StartChar: cedilla
Encoding: 184 184 121
Width: 2048
Flags: W
LayerCount: 2
Fore
SplineSet
721 533 m 1,0,1
 773 534 773 534 792 564 c 0,2,3
 807 587 807 587 807 643 c 2,4,-1
 807 1200 l 1,5,-1
 806 1226 l 2,6,7
 804 1266 804 1266 747 1270 c 1,8,-1
 721 1269 l 1,9,-1
 721 1298 l 1,10,-1
 912 1355 l 1,11,-1
 912 1001 l 1,12,-1
 946 1034 l 2,13,14
 1015 1097 1015 1097 1087 1097 c 0,15,16
 1194 1097 1194 1097 1223 1000 c 0,17,18
 1233 970 1233 970 1235 932 c 2,19,-1
 1237 893 l 1,20,-1
 1237 656 l 2,21,22
 1237 590 1237 590 1247 569 c 0,23,24
 1264 533 1264 533 1323 533 c 1,25,-1
 1323 505 l 1,26,-1
 1046 505 l 1,27,-1
 1046 533 l 1,28,29
 1106 534 1106 534 1120 569 c 0,30,31
 1132 599 1132 599 1132 656 c 2,32,-1
 1132 895 l 2,33,34
 1132 900 1132 900 1127 945 c 0,35,36
 1113 1030 1113 1030 1037 1030 c 0,37,38
 990 1028 990 1028 949 993 c 1,39,-1
 912 955 l 1,40,-1
 912 643 l 2,41,42
 912 583 912 583 925 564 c 0,43,44
 945 537 945 537 998 533 c 1,45,-1
 998 505 l 1,46,-1
 721 505 l 1,47,-1
 721 533 l 1,0,1
0 1913 m 1,48,-1
 0 2013 l 1,49,-1
 2048 2013 l 1,50,-1
 2048 1913 l 1,51,-1
 0 1913 l 1,48,-1
0 1638 m 1,52,-1
 0 1809 l 1,53,-1
 2047 1809 l 1,54,-1
 2047 1638 l 1,55,-1
 0 1638 l 1,52,-1
EndSplineSet
EndChar

StartChar: onesuperior
Encoding: 185 185 122
Width: 1229
Flags: W
LayerCount: 2
Fore
SplineSet
508 723 m 1,0,-1
 190 1042 l 1,1,-1
 295 1147 l 1,2,-1
 612 829 l 1,3,-1
 934 1147 l 1,4,-1
 1038 1044 l 1,5,-1
 717 723 l 1,6,-1
 1036 403 l 1,7,-1
 934 301 l 1,8,-1
 612 618 l 1,9,-1
 295 303 l 1,10,-1
 193 406 l 1,11,-1
 508 723 l 1,0,-1
EndSplineSet
EndChar

StartChar: ordmasculine
Encoding: 186 186 123
Width: 1229
Flags: W
LayerCount: 2
Fore
SplineSet
612 784 m 0,0,1
 468 784 468 784 374.5 877 c 128,-1,2
 281 970 281 970 281 1133 c 0,3,4
 281 1295 281 1295 371 1387 c 128,-1,5
 461 1479 461 1479 616 1479 c 0,6,7
 761 1479 761 1479 854.5 1386.5 c 128,-1,8
 948 1294 948 1294 948 1133 c 0,9,10
 948 968 948 968 856 876 c 128,-1,11
 764 784 764 784 612 784 c 0,0,1
614 903 m 0,12,13
 795 903 795 903 795 1133 c 0,14,15
 795 1358 795 1358 614 1358 c 0,16,17
 432 1358 432 1358 432 1133 c 0,18,19
 432 903 432 903 614 903 c 0,12,13
EndSplineSet
Validated: 1
EndChar

StartChar: guillemotright
Encoding: 187 187 124
Width: 2048
Flags: W
LayerCount: 2
Fore
SplineSet
864 1447 m 1,0,-1
 1189 1447 l 1,1,-1
 1135 1341 l 1,2,-1
 872 1341 l 1,3,-1
 872 1338 l 1,4,-1
 823 1240 l 1,5,-1
 823 1241 l 1,6,-1
 868 1233 l 1,7,8
 1168 1175 1168 1175 1170 915 c 0,9,10
 1170 774 1170 774 1068 683 c 0,11,12
 972 596 972 596 830 596 c 0,13,14
 775 596 775 596 734 609 c 0,15,16
 673 628 673 628 673 675 c 0,17,18
 673 728 673 728 732 730 c 0,19,20
 763 730 763 730 828 690 c 0,21,22
 871 663 871 663 914 663 c 0,23,24
 985 663 985 663 1033 729 c 0,25,26
 1074 785 1074 785 1074 861 c 0,27,28
 1074 1071 1074 1071 779 1121 c 1,29,-1
 711 1131 l 1,30,-1
 864 1447 l 1,0,-1
1915 0 m 1,31,-1
 1916 2049 l 1,32,-1
 2015 2049 l 1,33,-1
 2015 0 l 1,34,-1
 1915 0 l 1,31,-1
1640 0 m 1,35,-1
 1642 2049 l 1,36,-1
 1813 2049 l 1,37,-1
 1812 0 l 1,38,-1
 1640 0 l 1,35,-1
EndSplineSet
EndChar

StartChar: Agrave
Encoding: 192 192 128
Width: 1229
Flags: W
LayerCount: 2
Fore
SplineSet
992 26 m 0,0,1
 999 15 999 15 999 10 c 0,2,3
 999 0 999 0 984 0 c 0,4,5
 980 0 980 0 951 3 c 128,-1,6
 922 6 922 6 896 6 c 0,7,8
 878 6 878 6 856 3 c 128,-1,9
 834 0 834 0 830 0 c 0,10,11
 807 0 807 0 807 11 c 0,12,13
 807 15 807 15 812 22 c 0,14,15
 821 35 821 35 826.5 49.5 c 128,-1,16
 832 64 832 64 832 82 c 2,17,-1
 826 178 l 1,18,19
 787 96 787 96 697 35 c 0,20,21
 597 -32 597 -32 488 -32 c 0,22,23
 334 -32 334 -32 228 59 c 0,24,25
 116 155 116 155 116 308 c 0,26,27
 116 462 116 462 238 566 c 0,28,29
 355 666 355 666 518 666 c 0,30,31
 597 666 597 666 669.5 635 c 128,-1,32
 742 604 742 604 780 560 c 1,33,34
 780 604 780 604 729 691 c 0,35,36
 669 794 669 794 588 860 c 0,37,38
 486 944 486 944 378 944 c 0,39,40
 311 944 311 944 263 916 c 0,41,42
 208 884 208 884 208 828 c 0,43,44
 208 796 208 796 224.5 775 c 128,-1,45
 241 754 241 754 270 754 c 0,46,47
 290 754 290 754 305 767 c 128,-1,48
 320 780 320 780 320 798 c 0,49,50
 320 811 320 811 316.5 823.5 c 128,-1,51
 313 836 313 836 310 846 c 0,52,53
 307 853 307 853 311 855 c 0,54,55
 313 856 313 856 324 856 c 0,56,57
 352 853 352 853 375 830 c 128,-1,58
 398 807 398 807 398 778 c 0,59,60
 398 731 398 731 360.5 699.5 c 128,-1,61
 323 668 323 668 274 668 c 0,62,63
 216 668 216 668 178 707 c 128,-1,64
 140 746 140 746 140 812 c 0,65,66
 140 898 140 898 231 946 c 0,67,68
 311 988 311 988 424 988 c 0,69,70
 535 988 535 988 643 917.5 c 128,-1,71
 751 847 751 847 818 726 c 0,72,73
 865 641 865 641 893 515 c 0,74,75
 911 435 911 435 927 295.5 c 128,-1,76
 943 156 943 156 954 104 c 0,77,78
 959 78 959 78 973 54 c 0,79,80
 988 32 988 32 992 26 c 0,0,1
822 346 m 0,81,82
 822 459 822 459 738.5 526.5 c 128,-1,83
 655 594 655 594 520 594 c 0,84,85
 410 594 410 594 328 522 c 128,-1,86
 246 450 246 450 246 344 c 0,87,88
 246 231 246 231 329.5 153.5 c 128,-1,89
 413 76 413 76 528 76 c 0,90,91
 661 76 661 76 741.5 151.5 c 128,-1,92
 822 227 822 227 822 346 c 0,81,82
EndSplineSet
EndChar

StartChar: Aacute
Encoding: 193 193 129
Width: 1229
Flags: W
LayerCount: 2
Fore
SplineSet
1024 540 m 0,0,1
 1024 302 1024 302 897 139 c 0,2,3
 764 -32 764 -32 554 -32 c 0,4,5
 471 -32 471 -32 404.5 0 c 128,-1,6
 338 32 338 32 294 92 c 1,7,8
 284 56 284 56 261 22 c 0,9,10
 242 -6 242 -6 222 -22 c 0,11,12
 214 -28 214 -28 208 -28 c 0,13,14
 206 -28 206 -28 198 -20 c 128,-1,15
 190 -12 190 -12 180 1 c 0,16,17
 166 19 166 19 160 26 c 2,18,-1
 112 76 l 2,19,20
 107 81 107 81 107 86 c 0,21,22
 107 93 107 93 116 98 c 0,23,24
 147 111 147 111 162 131 c 0,25,26
 190 169 190 169 190 246 c 2,27,-1
 190 1168 l 2,28,29
 190 1197 190 1197 188 1214 c 128,-1,30
 186 1231 186 1231 164 1228 c 0,31,32
 151 1226 151 1226 125.5 1208.5 c 128,-1,33
 100 1191 100 1191 92 1188 c 0,34,35
 86 1185 86 1185 80 1188 c 0,36,37
 75 1190 75 1190 75 1196 c 0,38,39
 75 1204 75 1204 82.5 1213.5 c 128,-1,40
 90 1223 90 1223 123 1254 c 0,41,42
 176 1305 176 1305 200 1330 c 0,43,44
 237 1367 237 1367 276 1412 c 0,45,46
 305 1446 305 1446 311 1450 c 128,-1,47
 317 1454 317 1454 322 1454 c 0,48,49
 330 1454 330 1454 330 1438 c 0,50,51
 323 1372 323 1372 322 1363 c 0,52,53
 318 1308 318 1308 318 1258 c 2,54,-1
 318 776 l 1,55,56
 369 859 369 859 444 916 c 0,57,58
 539 988 539 988 640 988 c 0,59,60
 813 988 813 988 918.5 865.5 c 128,-1,61
 1024 743 1024 743 1024 540 c 0,0,1
892 510 m 0,62,63
 892 664 892 664 817 770 c 0,64,65
 736 884 736 884 604 884 c 0,66,67
 479 884 479 884 398.5 793.5 c 128,-1,68
 318 703 318 703 318 566 c 2,69,-1
 318 254 l 2,70,71
 318 144 318 144 382 83 c 0,72,73
 442 26 442 26 542 26 c 0,74,75
 701 26 701 26 801 181 c 0,76,77
 892 322 892 322 892 510 c 0,62,63
EndSplineSet
EndChar

StartChar: Acircumflex
Encoding: 194 194 130
Width: 1229
Flags: W
LayerCount: 2
Fore
SplineSet
958 242 m 0,0,1
 958 228 958 228 950 208 c 0,2,3
 918 127 918 127 836 60 c 0,4,5
 723 -32 723 -32 574 -32 c 0,6,7
 355 -32 355 -32 226 100 c 0,8,9
 94 235 94 235 94 472 c 0,10,11
 94 679 94 679 243.5 833.5 c 128,-1,12
 393 988 393 988 602 988 c 0,13,14
 722 988 722 988 812 924 c 0,15,16
 910 854 910 854 910 746 c 0,17,18
 910 655 910 655 852.5 592.5 c 128,-1,19
 795 530 795 530 710 530 c 0,20,21
 638 530 638 530 586 572 c 0,22,23
 530 617 530 617 530 686 c 0,24,25
 530 731 530 731 560 770 c 0,26,27
 586 805 586 805 614 812 c 0,28,29
 625 816 625 816 631 810 c 128,-1,30
 637 804 637 804 634 796 c 0,31,32
 629 782 629 782 627 773 c 0,33,34
 621 753 621 753 621 737 c 0,35,36
 621 726 621 726 622 720 c 0,37,38
 628 689 628 689 654.5 672.5 c 128,-1,39
 681 656 681 656 716 656 c 0,40,41
 764 656 764 656 793 691 c 128,-1,42
 822 726 822 726 822 778 c 0,43,44
 822 854 822 854 749 898 c 0,45,46
 683 938 683 938 594 938 c 0,47,48
 425 938 425 938 320.5 809.5 c 128,-1,49
 216 681 216 681 216 488 c 0,50,51
 216 320 216 320 323 201 c 0,52,53
 434 78 434 78 598 78 c 0,54,55
 701 78 701 78 769.5 108.5 c 128,-1,56
 838 139 838 139 910 222 c 0,57,58
 911 224 911 224 922 239 c 0,59,60
 930 250 930 250 936 254 c 0,61,62
 941 257 941 257 949.5 254.5 c 128,-1,63
 958 252 958 252 958 242 c 0,0,1
EndSplineSet
EndChar

StartChar: Atilde
Encoding: 195 195 131
Width: 1229
Flags: W
LayerCount: 2
Fore
SplineSet
1030 70 m 0,0,1
 1025 67 1025 67 1014 58 c 0,2,3
 996 43 996 43 984.5 32.5 c 128,-1,4
 973 22 973 22 959 8 c 0,5,6
 949 -2 949 -2 946 -6 c 0,7,8
 938 -15 938 -15 930 -15 c 0,9,10
 925 -15 925 -15 914 -8 c 0,11,12
 891 9 891 9 860 60 c 0,13,14
 826 116 826 116 812 162 c 1,15,16
 765 75 765 75 687.5 21.5 c 128,-1,17
 610 -32 610 -32 520 -32 c 0,18,19
 335 -32 335 -32 217.5 105.5 c 128,-1,20
 100 243 100 243 100 456 c 256,21,22
 100 669 100 669 220 823 c 0,23,24
 348 988 348 988 544 988 c 0,25,26
 626 988 626 988 691 961 c 0,27,28
 750 937 750 937 806 884 c 1,29,-1
 806 1168 l 2,30,31
 806 1197 806 1197 804 1214 c 128,-1,32
 802 1231 802 1231 780 1228 c 0,33,34
 768 1227 768 1227 747 1212 c 0,35,36
 719 1192 719 1192 714 1190 c 0,37,38
 709 1187 709 1187 705 1187 c 0,39,40
 692 1187 692 1187 692 1199 c 0,41,42
 692 1204 692 1204 698.5 1213 c 128,-1,43
 705 1222 705 1222 738 1254 c 0,44,45
 797 1311 797 1311 816 1330 c 0,46,47
 850 1364 850 1364 890 1411 c 0,48,49
 918 1444 918 1444 926 1450 c 0,50,51
 928 1452 928 1452 932 1453 c 0,52,53
 935 1454 935 1454 937 1454 c 0,54,55
 946 1454 946 1454 946 1438 c 0,56,57
 939 1372 939 1372 938 1363 c 0,58,59
 934 1308 934 1308 934 1258 c 2,60,-1
 934 256 l 2,61,62
 934 197 934 197 955 158 c 128,-1,63
 976 119 976 119 1026 94 c 0,64,65
 1037 88 1037 88 1037 80 c 0,66,67
 1037 74 1037 74 1030 70 c 0,0,1
806 340 m 2,68,-1
 806 678 l 2,69,70
 806 799 806 799 722 869 c 0,71,72
 647 932 647 932 534 932 c 0,73,74
 399 932 399 932 304 806 c 0,75,76
 214 686 214 686 214 530 c 0,77,78
 214 343 214 343 303 217 c 0,79,80
 400 80 400 80 558 80 c 0,81,82
 659 80 659 80 729 146 c 0,83,84
 806 219 806 219 806 340 c 2,68,-1
EndSplineSet
EndChar

StartChar: Adieresis
Encoding: 196 196 132
Width: 1229
Flags: W
LayerCount: 2
Fore
SplineSet
986 212 m 0,0,1
 960 127 960 127 861 53 c 0,2,3
 745 -34 745 -34 608 -34 c 0,4,5
 520 -34 520 -34 452 -15 c 0,6,7
 374 7 374 7 304 60 c 1,8,9
 276 25 276 25 253 -16 c 0,10,11
 224 -67 224 -67 224 -90 c 0,12,13
 224 -118 224 -118 239 -129 c 0,14,15
 249 -136 249 -136 272 -136 c 0,16,17
 279 -136 279 -136 286 -134 c 0,18,19
 292 -132 292 -132 298 -130 c 0,20,21
 302 -128 302 -128 305 -130 c 0,22,23
 312 -134 312 -134 308 -146 c 0,24,25
 302 -170 302 -170 284 -190 c 0,26,27
 260 -216 260 -216 228 -216 c 0,28,29
 194 -216 194 -216 172 -191 c 128,-1,30
 150 -166 150 -166 150 -126 c 0,31,32
 150 -94 150 -94 172 -48 c 0,33,34
 178 -35 178 -35 258 94 c 1,35,36
 184 170 184 170 144 259 c 0,37,38
 100 358 100 358 100 472 c 0,39,40
 100 682 100 682 236.5 835 c 128,-1,41
 373 988 373 988 576 988 c 0,42,43
 657 988 657 988 742 949 c 0,44,45
 789 926 789 926 836 904 c 0,46,47
 845 900 845 900 862 898 c 128,-1,48
 879 896 879 896 896 896 c 2,49,-1
 926 898 l 2,50,51
 937 898 937 898 937 889 c 0,52,53
 937 882 937 882 930 878 c 0,54,55
 914 868 914 868 895 851 c 0,56,57
 869 829 869 829 850 806 c 0,58,59
 753 698 753 698 625 523 c 128,-1,60
 497 348 497 348 384 172 c 1,61,62
 443 130 443 130 504 107 c 0,63,64
 576 80 576 80 654 80 c 0,65,66
 762 80 762 80 832 121 c 0,67,68
 883 151 883 151 946 228 c 0,69,70
 952 237 952 237 960 247.5 c 128,-1,71
 968 258 968 258 978 256 c 0,72,73
 991 253 991 253 991 237 c 0,74,75
 991 225 991 225 986 212 c 0,0,1
712 802 m 0,76,77
 712 861 712 861 648 894 c 0,78,79
 594 922 594 922 518 922 c 0,80,81
 376 922 376 922 284 801 c 0,82,83
 198 687 198 687 198 530 c 0,84,85
 198 437 198 437 243 344 c 0,86,87
 281 265 281 265 338 210 c 1,88,89
 406 311 406 311 444 367 c 0,90,91
 505 457 505 457 548 518 c 0,92,93
 603 596 603 596 658 674 c 1,94,95
 712 758 712 758 712 802 c 0,76,77
EndSplineSet
EndChar

StartChar: Aring
Encoding: 197 197 133
Width: 1229
Flags: W
LayerCount: 2
Fore
SplineSet
685.286132812 1314 m 0,0,1
 685.286132812 1266 685.286132812 1266 656.286132812 1230 c 128,-1,2
 627.286132812 1194 627.286132812 1194 581.286132812 1194 c 0,3,4
 542.286132812 1194 542.286132812 1194 512.786132812 1215 c 128,-1,5
 483.286132812 1236 483.286132812 1236 483.286132812 1270 c 256,6,7
 483.286132812 1304 483.286132812 1304 505.286132812 1322 c 0,8,9
 508.286132812 1325 508.286132812 1325 511.286132812 1323 c 0,10,11
 516.286132812 1320 516.286132812 1320 517.786132812 1310 c 128,-1,12
 519.286132812 1300 519.286132812 1300 525.286132812 1294 c 0,13,14
 535.286132812 1283 535.286132812 1283 554.286132812 1283 c 0,15,16
 560.286132812 1284 560.286132812 1284 563.286132812 1284 c 0,17,18
 579.286132812 1286 579.286132812 1286 590.286132812 1298.5 c 128,-1,19
 601.286132812 1311 601.286132812 1311 601.286132812 1332 c 0,20,21
 601.286132812 1357 601.286132812 1357 579.786132812 1371.5 c 128,-1,22
 558.286132812 1386 558.286132812 1386 529.286132812 1386 c 0,23,24
 475.286132812 1386 475.286132812 1386 450.286132812 1341.5 c 128,-1,25
 425.286132812 1297 425.286132812 1297 425.286132812 1216 c 2,26,-1
 425.286132812 952 l 1,27,28
 458.286132812 952 458.286132812 952 490.286132812 953 c 128,-1,29
 522.286132812 954 522.286132812 954 557.286132812 956 c 0,30,31
 571.286132812 956 571.286132812 956 571.286132812 942 c 2,32,-1
 571.286132812 908 l 2,33,34
 571.286132812 892 571.286132812 892 557.286132812 892 c 0,35,36
 552.286132812 892 552.286132812 892 508.286132812 894 c 128,-1,37
 464.286132812 896 464.286132812 896 425.286132812 896 c 1,38,-1
 425.286132812 46 l 2,39,40
 425.286132812 -125 425.286132812 -125 370.286132812 -240 c 0,41,42
 328.286132812 -328 328.286132812 -328 254.286132812 -383 c 0,43,44
 216.286132812 -411 216.286132812 -411 155.286132812 -436 c 0,45,46
 147.286132812 -439 147.286132812 -439 140.786132812 -435 c 128,-1,47
 134.286132812 -431 134.286132812 -431 132.786132812 -420 c 128,-1,48
 131.286132812 -409 131.286132812 -409 130.286132812 -396 c 0,49,50
 126.286132812 -381 126.286132812 -381 123.286132812 -370 c 0,51,52
 117.286132812 -348 117.286132812 -348 111.786132812 -334.5 c 128,-1,53
 106.286132812 -321 106.286132812 -321 101.286132812 -310 c 0,54,55
 98.2861328125 -303 98.2861328125 -303 102.286132812 -300 c 256,56,57
 106.286132812 -297 106.286132812 -297 115.286132812 -298 c 0,58,59
 130.286132812 -300 130.286132812 -300 146.286132812 -302 c 0,60,61
 207.286132812 -302 207.286132812 -302 243.286132812 -246 c 0,62,63
 297.286132812 -163 297.286132812 -163 297.286132812 38 c 2,64,-1
 297.286132812 896 l 1,65,66
 265.286132812 896 265.286132812 896 236.286132812 894.5 c 128,-1,67
 207.286132812 893 207.286132812 893 177.286132812 892 c 0,68,69
 163.286132812 892 163.286132812 892 163.286132812 908 c 2,70,-1
 163.286132812 940 l 2,71,72
 163.286132812 956 163.286132812 956 181.286132812 956 c 0,73,74
 186.286132812 956 186.286132812 956 225.286132812 954 c 128,-1,75
 264.286132812 952 264.286132812 952 297.286132812 952 c 1,76,-1
 297.286132812 1132 l 2,77,78
 297.286132812 1257 297.286132812 1257 363.786132812 1343.5 c 128,-1,79
 430.286132812 1430 430.286132812 1430 535.286132812 1430 c 0,80,81
 594.286132812 1430 594.286132812 1430 639.786132812 1398.5 c 128,-1,82
 685.286132812 1367 685.286132812 1367 685.286132812 1314 c 0,0,1
EndSplineSet
EndChar

StartChar: AE
Encoding: 198 198 134
Width: 1229
Flags: W
LayerCount: 2
Fore
SplineSet
1024 -94 m 0,0,1
 1024 -257 1024 -257 839 -355 c 0,2,3
 678 -440 678 -440 460 -440 c 0,4,5
 302 -440 302 -440 184 -376 c 0,6,7
 54 -306 54 -306 54 -196 c 0,8,9
 54 -129 54 -129 92.5 -89.5 c 128,-1,10
 131 -50 131 -50 192 -50 c 0,11,12
 249 -50 249 -50 283.5 -75 c 128,-1,13
 318 -100 318 -100 324 -144 c 0,14,15
 326 -154 326 -154 326 -159 c 0,16,17
 326 -181 326 -181 314 -198 c 0,18,19
 308 -204 308 -204 304 -204 c 0,20,21
 298 -204 298 -204 296 -198 c 0,22,23
 284 -169 284 -169 261.5 -155.5 c 128,-1,24
 239 -142 239 -142 208 -142 c 0,25,26
 179 -142 179 -142 159.5 -166.5 c 128,-1,27
 140 -191 140 -191 140 -220 c 0,28,29
 140 -300 140 -300 243 -346 c 0,30,31
 333 -386 333 -386 462 -386 c 0,32,33
 619 -386 619 -386 742 -303 c 0,34,35
 874 -214 874 -214 874 -84 c 0,36,37
 874 30 874 30 770 102 c 0,38,39
 675 168 675 168 544 168 c 0,40,41
 424 168 424 168 344 130 c 0,42,43
 302 110 302 110 264 72 c 0,44,45
 255 63 255 63 244 74 c 0,46,47
 223 87 223 87 210 97 c 128,-1,48
 197 107 197 107 188 116 c 0,49,50
 180 124 180 124 190 134 c 0,51,52
 191 135 191 135 244 169 c 0,53,54
 262 180 262 180 290 202 c 0,55,56
 345 242 345 242 375 275 c 0,57,58
 397 298 397 298 414 328 c 1,59,60
 302 349 302 349 208 428 c 0,61,62
 90 527 90 527 90 660 c 0,63,64
 90 807 90 807 219 901 c 0,65,66
 339 988 339 988 504 988 c 0,67,68
 593 988 593 988 653.5 975.5 c 128,-1,69
 714 963 714 963 782 926 c 1,70,71
 802 948 802 948 814 972 c 0,72,73
 830 1005 830 1005 830 1042 c 0,74,75
 830 1071 830 1071 815 1088 c 0,76,77
 797 1109 797 1109 764 1106 c 0,78,79
 747 1106 747 1106 734 1098 c 0,80,81
 729 1095 729 1095 718 1084 c 0,82,83
 713 1079 713 1079 710 1081 c 256,84,85
 707 1083 707 1083 708 1092 c 0,86,87
 713 1127 713 1127 730 1154 c 0,88,89
 756 1194 756 1194 798 1194 c 0,90,91
 856 1194 856 1194 886 1155 c 0,92,93
 912 1121 912 1121 912 1060 c 0,94,95
 912 1014 912 1014 885 963 c 0,96,97
 862 919 862 919 834 898 c 1,98,99
 904 846 904 846 938 784 c 128,-1,100
 972 722 972 722 972 638 c 0,101,102
 972 491 972 491 842 400 c 0,103,104
 722 316 722 316 548 316 c 0,105,106
 532 316 532 316 512.5 317.5 c 128,-1,107
 493 319 493 319 482 320 c 1,108,109
 465 291 465 291 424 251 c 128,-1,110
 383 211 383 211 354 192 c 1,111,112
 406 209 406 209 461 215.5 c 128,-1,113
 516 222 516 222 576 222 c 0,114,115
 747 222 747 222 872 151 c 0,116,117
 1024 64 1024 64 1024 -94 c 0,0,1
836 640 m 0,118,119
 836 703 836 703 820 749 c 128,-1,120
 804 795 804 795 764 840 c 1,121,122
 741 825 741 825 717.5 817.5 c 128,-1,123
 694 810 694 810 664 810 c 0,124,125
 607 810 607 810 575 842 c 0,126,127
 550 867 550 867 550 894 c 0,128,129
 550 905 550 905 554 905 c 0,130,131
 557 905 557 905 562 900 c 0,132,133
 577 882 577 882 586 876 c 0,134,135
 610 860 610 860 644 860 c 0,136,137
 668 860 668 860 688 866 c 128,-1,138
 708 872 708 872 724 882 c 1,139,140
 696 910 696 910 642 931 c 128,-1,141
 588 952 588 952 532 952 c 0,142,143
 404 952 404 952 310 869.5 c 128,-1,144
 216 787 216 787 216 664 c 0,145,146
 216 556 216 556 272.5 477 c 128,-1,147
 329 398 329 398 432 370 c 1,148,149
 438 390 438 390 438 407 c 0,150,151
 438 437 438 437 418 470 c 0,152,153
 411 482 411 482 426 487.5 c 128,-1,154
 441 493 441 493 451.5 496.5 c 128,-1,155
 462 500 462 500 483 509 c 128,-1,156
 504 518 504 518 518.5 527.5 c 128,-1,157
 533 537 533 537 550 548 c 0,158,159
 556 554 556 554 560 550 c 0,160,161
 564 547 564 547 564 538 c 0,162,163
 564 515 564 515 543.5 459 c 128,-1,164
 523 403 523 403 504 364 c 1,165,166
 522 361 522 361 540 361 c 0,167,168
 648 361 648 361 740 443 c 0,169,170
 836 529 836 529 836 640 c 0,118,119
EndSplineSet
EndChar

StartChar: Ccedilla
Encoding: 199 199 135
Width: 1229
Flags: W
LayerCount: 2
Fore
SplineSet
960 614 m 0,0,1
 960 466 960 466 908 330.5 c 128,-1,2
 856 195 856 195 754 80 c 1,3,4
 757 80 757 80 764.5 79.5 c 128,-1,5
 772 79 772 79 785 79 c 0,6,7
 816 79 816 79 843 82.5 c 128,-1,8
 870 86 870 86 896 103 c 0,9,10
 922 124 922 124 928.5 129 c 128,-1,11
 935 134 935 134 940 134 c 0,12,13
 948 134 948 134 948 120 c 0,14,15
 945 100 945 100 942.5 80.5 c 128,-1,16
 940 61 940 61 940 52 c 0,17,18
 940 33 940 33 943 9 c 128,-1,19
 946 -15 946 -15 946 -20 c 0,20,21
 946 -35 946 -35 938 -35 c 0,22,23
 934 -35 934 -35 926 -30 c 0,24,25
 904 -14 904 -14 883 -6.5 c 128,-1,26
 862 1 862 1 841 4 c 128,-1,27
 820 7 820 7 777 7 c 0,28,29
 748 7 748 7 731 6 c 128,-1,30
 714 5 714 5 686 0 c 0,31,32
 674 -2 674 -2 667 -2 c 0,33,34
 657 -2 657 -2 654 2 c 0,35,36
 650 8 650 8 652.5 15 c 128,-1,37
 655 22 655 22 660 30 c 0,38,39
 714 114 714 114 744 169 c 0,40,41
 791 256 791 256 814 331 c 0,42,43
 842 423 842 423 842 518 c 0,44,45
 842 674 842 674 772 773 c 0,46,47
 699 876 699 876 574 876 c 0,48,49
 491 876 491 876 423 827 c 0,50,51
 365 785 365 785 324 712 c 1,52,-1
 324 98 l 2,53,54
 324 82 324 82 345 63 c 0,55,56
 363 47 363 47 382 32 c 0,57,58
 394 20 394 20 394 12 c 0,59,60
 394 0 394 0 372 0 c 0,61,62
 354 0 354 0 342 1 c 0,63,64
 280 6 280 6 260 6 c 0,65,66
 224 6 224 6 201.5 4 c 128,-1,67
 179 2 179 2 150 0 c 0,68,69
 126 0 126 0 126 12 c 0,70,71
 126 18 126 18 136 30 c 0,72,73
 161 50 161 50 173 61 c 0,74,75
 196 81 196 81 196 98 c 2,76,-1
 196 1168 l 2,77,78
 196 1197 196 1197 194 1214 c 128,-1,79
 192 1231 192 1231 170 1228 c 0,80,81
 159 1226 159 1226 133 1208.5 c 128,-1,82
 107 1191 107 1191 98 1188 c 0,83,84
 83 1183 83 1183 83 1199 c 0,85,86
 83 1204 83 1204 89 1213 c 128,-1,87
 95 1222 95 1222 144 1269 c 0,88,89
 183 1307 183 1307 206 1330 c 0,90,91
 240 1364 240 1364 280 1411 c 0,92,93
 308 1444 308 1444 316 1450 c 0,94,95
 318 1452 318 1452 322 1453 c 0,96,97
 325 1454 325 1454 327 1454 c 0,98,99
 336 1454 336 1454 336 1438 c 0,100,101
 331 1406 331 1406 327.5 1358.5 c 128,-1,102
 324 1311 324 1311 324 1258 c 2,103,-1
 324 798 l 1,104,105
 368 870 368 870 423 916 c 0,106,107
 509 988 509 988 606 988 c 0,108,109
 786 988 786 988 883 853 c 0,110,111
 960 746 960 746 960 614 c 0,0,1
EndSplineSet
EndChar

StartChar: Egrave
Encoding: 200 200 136
Width: 1229
Flags: W
LayerCount: 2
Fore
SplineSet
470 1228 m 0,0,1
 430 1104 430 1104 411 1026 c 0,2,3
 384 915 384 915 370 781 c 128,-1,4
 356 647 356 647 356 458 c 0,5,6
 356 322 356 322 380 222 c 0,7,8
 401 136 401 136 450 64 c 0,9,10
 455 58 455 58 455 51 c 256,11,12
 455 44 455 44 444 38 c 0,13,14
 421 33 421 33 400.5 28 c 128,-1,15
 380 23 380 23 354.5 13 c 128,-1,16
 329 3 329 3 309 -8.5 c 128,-1,17
 289 -20 289 -20 282 -24 c 2,18,-1
 277 -27 l 1,19,-1
 268 -29 l 2,20,21
 260 -29 260 -29 256 -18 c 0,22,23
 241 14 241 14 232.5 110.5 c 128,-1,24
 224 207 224 207 224 302 c 0,25,26
 224 473 224 473 263 700 c 128,-1,27
 302 927 302 927 362 1122 c 1,28,29
 332 1083 332 1083 295 1055 c 0,30,31
 246 1018 246 1018 202 1018 c 0,32,33
 169 1018 169 1018 142.5 1038 c 128,-1,34
 116 1058 116 1058 116 1091 c 0,35,36
 116 1109 116 1109 118.5 1121 c 128,-1,37
 121 1133 121 1133 138 1145 c 1,38,-1
 146 1140 l 1,39,40
 164 1118 164 1118 172 1114 c 0,41,42
 187 1106 187 1106 208 1106 c 0,43,44
 269 1106 269 1106 323 1168 c 0,45,46
 330 1176 330 1176 394 1272 c 0,47,48
 402 1285 402 1285 416 1280 c 0,49,50
 432 1274 432 1274 444.5 1268 c 128,-1,51
 457 1262 457 1262 465 1255 c 128,-1,52
 473 1248 473 1248 473 1240 c 0,53,54
 473 1234 473 1234 470 1228 c 0,0,1
EndSplineSet
EndChar

StartChar: Eacute
Encoding: 201 201 137
Width: 1229
Flags: W
LayerCount: 2
Fore
SplineSet
856 168 m 0,0,1
 843 144 843 144 830 121 c 0,2,3
 818 96 818 96 809.5 71.5 c 128,-1,4
 801 47 801 47 797 25 c 128,-1,5
 793 3 793 3 790 -18 c 0,6,7
 786 -33 786 -33 777 -33 c 0,8,9
 772 -33 772 -33 766 -30 c 0,10,11
 696 2 696 2 626 15 c 0,12,13
 531 32 531 32 412 32 c 0,14,15
 267 32 267 32 163 4 c 0,16,17
 157 2 157 2 60 -34 c 0,18,19
 47 -38 47 -38 47 -26 c 2,20,-1
 48 -16 l 2,21,22
 55 18 55 18 99 94 c 0,23,24
 140 165 140 165 186 228 c 0,25,26
 273 345 273 345 427.5 480.5 c 128,-1,27
 582 616 582 616 625 676 c 0,28,29
 706 788 706 788 706 938 c 0,30,31
 706 1057 706 1057 629 1141 c 0,32,33
 549 1228 549 1228 424 1228 c 0,34,35
 316 1228 316 1228 242 1167 c 128,-1,36
 168 1106 168 1106 168 1024 c 0,37,38
 168 966 168 966 192 929 c 0,39,40
 220 886 220 886 270 886 c 0,41,42
 294 886 294 886 310.5 893.5 c 128,-1,43
 327 901 327 901 344 920 c 0,44,45
 350 926 350 926 354 933.5 c 128,-1,46
 358 941 358 941 361 951 c 128,-1,47
 364 961 364 961 374 961 c 1,48,49
 390 947 390 947 395 919.5 c 128,-1,50
 400 892 400 892 400 870 c 0,51,52
 396 825 396 825 352.5 792.5 c 128,-1,53
 309 760 309 760 254 760 c 0,54,55
 179 760 179 760 130.5 821.5 c 128,-1,56
 82 883 82 883 82 964 c 0,57,58
 82 1099 82 1099 193 1190 c 0,59,60
 298 1276 298 1276 444 1276 c 0,61,62
 616 1276 616 1276 725 1187 c 0,63,64
 848 1086 848 1086 848 902 c 0,65,66
 848 805 848 805 803 725 c 0,67,68
 767 661 767 661 688 590 c 0,69,70
 664 568 664 568 536 466 c 0,71,72
 460 407 460 407 385 348 c 0,73,74
 306 285 306 285 260 232 c 0,75,76
 201 165 201 165 148 68 c 1,77,78
 240 111 240 111 337.5 129.5 c 128,-1,79
 435 148 435 148 558 148 c 0,80,81
 589 148 589 148 679 143 c 0,82,83
 693 143 693 143 709 144 c 128,-1,84
 725 145 725 145 749 149 c 128,-1,85
 773 153 773 153 803 165 c 0,86,87
 822 173 822 173 842 182 c 0,88,89
 851 185 851 185 855 181 c 256,90,91
 859 177 859 177 856 168 c 0,0,1
EndSplineSet
EndChar

StartChar: Ecircumflex
Encoding: 202 202 138
Width: 1229
Flags: W
LayerCount: 2
Fore
SplineSet
910 472 m 0,0,1
 910 268 910 268 755 122 c 0,2,3
 591 -32 591 -32 340 -32 c 0,4,5
 216 -32 216 -32 124 23 c 0,6,7
 20 85 20 85 20 188 c 0,8,9
 20 238 20 238 59.5 274 c 128,-1,10
 99 310 99 310 152 310 c 0,11,12
 210 310 210 310 245 283 c 0,13,14
 276 259 276 259 276 224 c 0,15,16
 276 207 276 207 275 201 c 2,17,-1
 272 192 l 2,18,19
 271 185 271 185 263 185 c 2,20,-1
 254 188 l 1,21,22
 237 205 237 205 220 211.5 c 128,-1,23
 203 218 203 218 180 218 c 0,24,25
 150 218 150 218 131 195 c 128,-1,26
 112 172 112 172 112 136 c 0,27,28
 112 86 112 86 184 54 c 0,29,30
 248 26 248 26 328 26 c 0,31,32
 506 26 506 26 638 151.5 c 128,-1,33
 770 277 770 277 770 450 c 0,34,35
 770 567 770 567 692 643 c 0,36,37
 611 722 611 722 480 722 c 0,38,39
 376 722 376 722 311 685 c 0,40,41
 284 670 284 670 248 630 c 0,42,43
 243 625 243 625 238 625 c 256,44,45
 233 625 233 625 228 630 c 2,46,-1
 196 656 l 2,47,48
 189 663 189 663 198 672 c 0,49,50
 222 696 222 696 350 806 c 2,51,-1
 578 1002 l 2,52,53
 702 1109 702 1109 734 1142 c 1,54,55
 690 1132 690 1132 647 1128 c 128,-1,56
 604 1124 604 1124 552 1124 c 0,57,58
 505 1124 505 1124 466 1127 c 0,59,60
 348 1136 348 1136 334 1136 c 0,61,62
 270 1136 270 1136 217 1103 c 1,63,64
 170 1065 170 1065 158 1056 c 2,65,-1
 152 1053 l 1,66,-1
 147 1052 l 2,67,68
 138 1052 138 1052 135 1061 c 128,-1,69
 132 1070 132 1070 128 1081.5 c 128,-1,70
 124 1093 124 1093 110 1114 c 0,71,72
 101 1127 101 1127 91 1138 c 128,-1,73
 81 1149 81 1149 73 1154.5 c 128,-1,74
 65 1160 65 1160 65 1166 c 0,75,76
 65 1173 65 1173 76 1180 c 0,77,78
 105 1204 105 1204 189 1227 c 128,-1,79
 273 1250 273 1250 358 1250 c 0,80,81
 411 1250 411 1250 566 1216 c 0,82,83
 639 1200 639 1200 698 1200 c 0,84,85
 748 1200 748 1200 782 1215 c 0,86,87
 808 1230 808 1230 834 1246 c 1,88,89
 853 1238 853 1238 872 1222 c 128,-1,90
 891 1206 891 1206 884 1200 c 0,91,92
 859 1180 859 1180 804 1134 c 0,93,94
 737 1077 737 1077 652 1004 c 0,95,96
 543 909 543 909 392 776 c 1,97,98
 431 789 431 789 466.5 793.5 c 128,-1,99
 502 798 502 798 550 798 c 0,100,101
 702 798 702 798 800 719 c 0,102,103
 910 630 910 630 910 472 c 0,0,1
EndSplineSet
EndChar

StartChar: Edieresis
Encoding: 203 203 139
Width: 1229
Flags: W
LayerCount: 2
Fore
SplineSet
1068 582 m 0,0,1
 1068 493 1068 493 986 431 c 0,2,3
 908 372 908 372 806 372 c 2,4,-1
 775 372 l 2,5,6
 740 372 740 372 724.5 373.5 c 128,-1,7
 709 375 709 375 680 384 c 1,8,9
 680 309 680 309 691 253 c 0,10,11
 694 236 694 236 712 172 c 0,12,13
 725 125 725 125 745 91 c 0,14,15
 755 74 755 74 772 54 c 2,16,-1
 777 47 l 1,17,-1
 778 41 l 2,18,19
 778 36 778 36 774 33 c 2,20,-1
 766 30 l 1,21,-1
 751 30 l 2,22,23
 733 30 733 30 717 27 c 128,-1,24
 701 24 701 24 672.5 12 c 128,-1,25
 644 0 644 0 624 -12 c 0,26,27
 615 -18 615 -18 602 -28 c 0,28,29
 594 -34 594 -34 589 -34 c 0,30,31
 582 -34 582 -34 578 -24 c 0,32,33
 566 8 566 8 560 122.5 c 128,-1,34
 554 237 554 237 554 392 c 1,35,36
 529 399 529 399 500.5 402 c 128,-1,37
 472 405 472 405 438 405 c 0,38,39
 385 405 385 405 335 398.5 c 128,-1,40
 285 392 285 392 228.5 378 c 128,-1,41
 172 364 172 364 124 339 c 0,42,43
 97 323 97 323 70 308 c 0,44,45
 50 300 50 300 50 323 c 0,46,47
 49 330 49 330 49 335 c 0,48,49
 49 385 49 385 79.5 488 c 128,-1,50
 110 591 110 591 162 699 c 0,51,52
 223 825 223 825 294 912 c 0,53,54
 398 1040 398 1040 517 1117 c 0,55,56
 616 1181 616 1181 790 1246 c 0,57,58
 803 1251 803 1251 820 1259 c 2,59,-1
 866 1280 l 2,60,61
 875 1283 875 1283 878 1278 c 256,62,63
 881 1273 881 1273 878 1264 c 2,64,-1
 810 1128 l 1,65,66
 772 1038 772 1038 744 934 c 0,67,68
 709 804 709 804 696.5 706.5 c 128,-1,69
 684 609 684 609 684 470 c 1,70,71
 724 459 724 459 758.5 453.5 c 128,-1,72
 793 448 793 448 832 448 c 0,73,74
 897 448 897 448 949 471 c 0,75,76
 1008 497 1008 497 1008 538 c 0,77,78
 1008 563 1008 563 997.5 580 c 128,-1,79
 987 597 987 597 966 600 c 0,80,81
 959 601 959 601 951.5 597.5 c 128,-1,82
 944 594 944 594 938 589 c 128,-1,83
 932 584 932 584 926 584 c 0,84,85
 919 584 919 584 920 596 c 0,86,87
 920 616 920 616 936.5 646 c 128,-1,88
 953 676 953 676 968 682 c 0,89,90
 976 684 976 684 982 684 c 0,91,92
 1012 684 1012 684 1038 658 c 0,93,94
 1068 628 1068 628 1068 582 c 0,0,1
770 1184 m 1,95,96
 648 1158 648 1158 520 1064 c 0,97,98
 377 959 377 959 276 804 c 0,99,100
 160 626 160 626 120 412 c 1,101,102
 183 445 183 445 241 464 c 0,103,104
 315 489 315 489 373 494.5 c 128,-1,105
 431 500 431 500 468 500 c 0,106,107
 510 500 510 500 566 490 c 1,108,109
 566 564 566 564 573.5 615.5 c 128,-1,110
 581 667 581 667 599 735 c 0,111,112
 604 755 604 755 636 862 c 0,113,114
 664 953 664 953 695 1027 c 0,115,116
 721 1090 721 1090 770 1184 c 1,95,96
EndSplineSet
EndChar

StartChar: Igrave
Encoding: 204 204 140
Width: 1229
Flags: W
LayerCount: 2
Fore
SplineSet
876 548 m 0,0,1
 876 319 876 319 706 146 c 0,2,3
 531 -32 531 -32 284 -32 c 0,4,5
 169 -32 169 -32 88 18 c 0,6,7
 -4 74 -4 74 -4 172 c 0,8,9
 -4 219 -4 219 26.5 256.5 c 128,-1,10
 57 294 57 294 102 294 c 256,11,12
 147 294 147 294 177.5 275.5 c 128,-1,13
 208 257 208 257 208 218 c 0,14,15
 208 181 208 181 190 160 c 0,16,17
 184 153 184 153 178 153 c 256,18,19
 172 153 172 153 164 164 c 0,20,21
 160 173 160 173 153 179 c 0,22,23
 142 188 142 188 122 188 c 0,24,25
 107 188 107 188 97.5 173.5 c 128,-1,26
 88 159 88 159 88 142 c 0,27,28
 88 80 88 80 162 45 c 0,29,30
 223 16 223 16 308 16 c 0,31,32
 486 16 486 16 617 168.5 c 128,-1,33
 748 321 748 321 748 518 c 0,34,35
 748 648 748 648 679 746 c 0,36,37
 604 852 604 852 488 852 c 0,38,39
 417 852 417 852 362 831 c 0,40,41
 295 805 295 805 272 756 c 0,42,43
 268 745 268 745 265 733.5 c 128,-1,44
 262 722 262 722 255 700 c 0,45,46
 250 695 250 695 240 696 c 2,47,-1
 166 704 l 2,48,49
 149 708 149 708 152 730 c 2,50,-1
 170 840 l 2,51,52
 178 910 178 910 178 974 c 0,53,54
 174 1179 174 1179 174 1210 c 0,55,56
 174 1220 174 1220 176 1234 c 1,57,-1
 182 1245 l 2,58,59
 187 1250 187 1250 200 1250 c 0,60,61
 291 1226 291 1226 389.5 1210 c 128,-1,62
 488 1194 488 1194 592 1194 c 0,63,64
 649 1194 649 1194 678 1203 c 0,65,66
 722 1217 722 1217 722 1254 c 0,67,68
 722 1278 722 1278 713 1290 c 0,69,70
 708 1297 708 1297 699 1301 c 128,-1,71
 690 1305 690 1305 690 1310 c 0,72,73
 690 1317 690 1317 699.5 1322.5 c 128,-1,74
 709 1328 709 1328 723.5 1329 c 128,-1,75
 738 1330 738 1330 756 1330 c 0,76,77
 796 1330 796 1330 826 1301 c 128,-1,78
 856 1272 856 1272 856 1232 c 0,79,80
 856 1165 856 1165 782 1129 c 0,81,82
 722 1100 722 1100 636 1100 c 0,83,84
 530 1100 530 1100 418 1121 c 0,85,86
 343 1135 343 1135 238 1166 c 1,87,88
 238 1132 238 1132 237 1072 c 128,-1,89
 236 1012 236 1012 236 974 c 0,90,91
 236 873 236 873 220 780 c 1,92,93
 272 866 272 866 353.5 908 c 128,-1,94
 435 950 435 950 534 950 c 0,95,96
 691 950 691 950 783.5 843.5 c 128,-1,97
 876 737 876 737 876 548 c 0,0,1
EndSplineSet
EndChar

StartChar: Iacute
Encoding: 205 205 141
Width: 1229
Flags: W
LayerCount: 2
Fore
SplineSet
996 398 m 0,0,1
 996 232 996 232 876 103 c 0,2,3
 751 -32 751 -32 578 -32 c 0,4,5
 368 -32 368 -32 239 150 c 0,6,7
 122 316 122 316 122 548 c 0,8,9
 122 832 122 832 293 1049 c 0,10,11
 472 1276 472 1276 728 1276 c 0,12,13
 818 1276 818 1276 879 1240 c 0,14,15
 949 1199 949 1199 962 1122 c 0,16,17
 963 1117 963 1117 963 1108 c 0,18,19
 963 1067 963 1067 927.5 1035.5 c 128,-1,20
 892 1004 892 1004 848 1004 c 0,21,22
 820 1004 820 1004 795 1012.5 c 128,-1,23
 770 1021 770 1021 754 1038 c 0,24,25
 747 1045 747 1045 747 1051 c 0,26,27
 747 1060 747 1060 762 1062 c 0,28,29
 794 1062 794 1062 813 1086 c 0,30,31
 828 1105 828 1105 828 1134 c 0,32,33
 828 1176 828 1176 789 1198 c 128,-1,34
 750 1220 750 1220 700 1220 c 0,35,36
 509 1220 509 1220 383 1042 c 0,37,38
 252 858 252 858 252 564 c 0,39,40
 252 358 252 358 347 215 c 0,41,42
 451 58 451 58 624 58 c 0,43,44
 751 58 751 58 836 161 c 0,45,46
 918 260 918 260 918 396 c 0,47,48
 918 521 918 521 840 615 c 0,49,50
 759 712 759 712 642 712 c 0,51,52
 591 712 591 712 540.5 689 c 128,-1,53
 490 666 490 666 472 626 c 0,54,55
 468 618 468 618 466 606.5 c 128,-1,56
 464 595 464 595 464 588 c 0,57,58
 466 567 466 567 466 560 c 0,59,60
 466 547 466 547 454 547 c 0,61,62
 448 547 448 547 442 554 c 0,63,64
 433 567 433 567 425 579 c 0,65,66
 411 600 411 600 390 622 c 0,67,68
 374 638 374 638 363 646.5 c 128,-1,69
 352 655 352 655 348 658 c 0,70,71
 342 664 342 664 342 673 c 0,72,73
 342 679 342 679 346 686 c 0,74,75
 374 732 374 732 436 771 c 0,76,77
 523 826 523 826 622 826 c 0,78,79
 787 826 787 826 893 699 c 0,80,81
 996 576 996 576 996 398 c 0,0,1
EndSplineSet
EndChar

StartChar: Icircumflex
Encoding: 206 206 142
Width: 1229
Flags: W
LayerCount: 2
Fore
SplineSet
956 1230 m 1,0,1
 941 1210 941 1210 883 1152 c 2,2,-1
 763 1032 l 2,3,4
 688 954 688 954 646 900 c 0,5,6
 545 769 545 769 508 712 c 0,7,8
 444 613 444 613 413 522 c 0,9,10
 378 418 378 418 378 296 c 0,11,12
 378 209 378 209 398 157 c 128,-1,13
 418 105 418 105 464 76 c 0,14,15
 471 72 471 72 471 67 c 0,16,17
 471 61 471 61 462 56 c 0,18,19
 442 47 442 47 421 36.5 c 128,-1,20
 400 26 400 26 382 16 c 2,21,-1
 316 -26 l 1,22,-1
 304 -31 l 2,23,24
 297 -31 297 -31 286 -20 c 0,25,26
 266 9 266 9 245 87 c 128,-1,27
 224 165 224 165 224 226 c 0,28,29
 224 329 224 329 256 428 c 0,30,31
 283 512 283 512 334 601 c 0,32,33
 363 651 363 651 428 744 c 0,34,35
 484 823 484 823 586 937 c 0,36,37
 693 1056 693 1056 792 1148 c 1,38,39
 725 1128 725 1128 677 1120 c 128,-1,40
 629 1112 629 1112 568 1112 c 0,41,42
 515 1112 515 1112 375 1124 c 0,43,44
 305 1130 305 1130 256 1130 c 0,45,46
 193 1130 193 1130 137 1083 c 1,47,48
 87 1029 87 1029 74 1016 c 1,49,-1
 61 1010 l 2,50,51
 55 1010 55 1010 55 1017 c 0,52,53
 55 1022 55 1022 59 1033.5 c 128,-1,54
 63 1045 63 1045 68 1057 c 0,55,56
 94 1120 94 1120 104 1148 c 2,57,-1
 128 1228 l 2,58,59
 133 1242 133 1242 153.5 1244.5 c 128,-1,60
 174 1247 174 1247 241 1248.5 c 128,-1,61
 308 1250 308 1250 336 1250 c 2,62,-1
 366 1250 l 2,63,64
 428 1250 428 1250 502 1238 c 0,65,66
 661 1212 661 1212 730 1212 c 0,67,68
 807 1212 807 1212 856 1234 c 0,69,70
 874 1242 874 1242 908 1270 c 1,71,-1
 914 1273 l 1,72,-1
 919 1274 l 2,73,74
 925 1274 925 1274 930 1270 c 2,75,-1
 954 1252 l 2,76,77
 959 1247 959 1247 959 1239 c 2,78,-1
 956 1230 l 1,0,1
EndSplineSet
EndChar

StartChar: Idieresis
Encoding: 207 207 143
Width: 1229
Flags: W
LayerCount: 2
Fore
SplineSet
1018 1302 m 2,0,-1
 1014 1276 l 1,1,2
 988 1199 988 1199 883 1171 c 0,3,4
 826 1156 826 1156 738 1156 c 0,5,6
 688 1156 688 1156 557 1173 c 0,7,8
 488 1182 488 1182 442 1182 c 0,9,10
 359 1182 359 1182 300.5 1130.5 c 128,-1,11
 242 1079 242 1079 242 1012 c 0,12,13
 242 899 242 899 372 822 c 0,14,15
 376 820 376 820 576 734 c 1,16,17
 648 775 648 775 721 817 c 1,18,19
 800 870 800 870 800 928 c 0,20,21
 800 966 800 966 785 986 c 0,22,23
 774 1000 774 1000 759.5 1003.5 c 128,-1,24
 745 1007 745 1007 745 1013 c 256,25,26
 745 1019 745 1019 754 1026 c 0,27,28
 775 1042 775 1042 808 1042 c 0,29,30
 847 1042 847 1042 873.5 1009.5 c 128,-1,31
 900 977 900 977 900 934 c 0,32,33
 900 847 900 847 765 773 c 0,34,35
 702 740 702 740 640 708 c 1,36,37
 781 664 781 664 870 576 c 0,38,39
 974 473 974 473 974 336 c 0,40,41
 974 172 974 172 832 67 c 0,42,43
 699 -32 699 -32 518 -32 c 0,44,45
 333 -32 333 -32 214.5 68.5 c 128,-1,46
 96 169 96 169 96 332 c 0,47,48
 96 456 96 456 218 565 c 0,49,50
 315 652 315 652 434 690 c 1,51,52
 348 742 348 742 263 795 c 1,53,54
 158 879 158 879 158 996 c 0,55,56
 158 1132 158 1132 268 1206 c 0,57,58
 372 1276 372 1276 548 1276 c 0,59,60
 596 1276 596 1276 723 1253 c 0,61,62
 784 1242 784 1242 834 1242 c 0,63,64
 906 1242 906 1242 934 1253 c 0,65,66
 941 1256 941 1256 980 1284 c 1,67,-1
 992 1297 l 2,68,69
 997 1303 997 1303 1004 1310 c 0,70,71
 1009 1315 1009 1315 1013 1313 c 0,72,73
 1018 1311 1018 1311 1018 1302 c 2,0,-1
848 336 m 0,74,75
 848 416 848 416 770 496 c 0,76,77
 710 557 710 557 617 608 c 0,78,79
 548 646 548 646 508 656 c 1,80,81
 473 649 473 649 410 615 c 0,82,83
 322 568 322 568 266 507 c 0,84,85
 192 426 192 426 192 336 c 0,86,87
 192 189 192 189 294 100 c 0,88,89
 384 22 384 22 506 22 c 0,90,91
 642 22 642 22 742 108 c 0,92,93
 848 199 848 199 848 336 c 0,74,75
EndSplineSet
EndChar

StartChar: Ugrave
Encoding: 217 217 145
Width: 2048
Flags: W
LayerCount: 2
Fore
SplineSet
1024 273 m 1,0,-1
 1515 273 l 1,1,2
 1536 345 1536 345 1536 414 c 0,3,4
 1536 570 1536 570 1449.5 697 c 128,-1,5
 1363 824 1363 824 1227 884 c 1,6,7
 1161 889 1161 889 1161 956 c 0,8,9
 1161 1009 1161 1009 1228 1034 c 1,10,11
 1321 1099 1321 1099 1321 1206 c 0,12,13
 1321 1283 1321 1283 1269 1341 c 128,-1,14
 1217 1399 1217 1399 1143 1408 c 0,15,16
 1083 1413 1083 1413 1083 1476 c 0,17,18
 1083 1504 1083 1504 1105 1528 c 1,19,20
 1159 1570 1159 1570 1159 1638 c 0,21,22
 1159 1694 1159 1694 1119 1734 c 128,-1,23
 1079 1774 1079 1774 1024 1774 c 0,24,25
 967 1774 967 1774 927.5 1734 c 128,-1,26
 888 1694 888 1694 888 1638 c 0,27,28
 888 1571 888 1571 942 1528 c 0,29,30
 964 1506 964 1506 964 1476 c 0,31,32
 964 1413 964 1413 905 1408 c 0,33,34
 830 1399 830 1399 778.5 1341 c 128,-1,35
 727 1283 727 1283 727 1206 c 0,36,37
 727 1099 727 1099 820 1034 c 1,38,39
 887 1008 887 1008 887 956 c 0,40,41
 887 889 887 889 820 884 c 1,42,43
 684 824 684 824 598 697 c 128,-1,44
 512 570 512 570 512 414 c 0,45,46
 512 340 512 340 533 273 c 1,47,-1
 1024 273 l 1,0,-1
1024 205 m 1,48,-1
 484 205 l 1,49,50
 444 305 444 305 444 414 c 0,51,52
 444 599 444 599 549 746 c 128,-1,53
 654 893 654 893 819 956 c 1,54,55
 748 989 748 989 703.5 1055.5 c 128,-1,56
 659 1122 659 1122 659 1206 c 0,57,58
 659 1311 659 1311 729 1388 c 128,-1,59
 799 1465 799 1465 901 1477 c 1,60,61
 820 1538 820 1538 820 1638 c 0,62,63
 820 1722 820 1722 879.5 1782 c 128,-1,64
 939 1842 939 1842 1024 1842 c 0,65,66
 1108 1842 1108 1842 1168 1782 c 128,-1,67
 1228 1722 1228 1722 1228 1638 c 0,68,69
 1228 1538 1228 1538 1147 1477 c 1,70,71
 1249 1465 1249 1465 1319 1388 c 128,-1,72
 1389 1311 1389 1311 1389 1206 c 0,73,74
 1389 1122 1389 1122 1343.5 1055.5 c 128,-1,75
 1298 989 1298 989 1228 956 c 1,76,77
 1393 893 1393 893 1498 746 c 128,-1,78
 1603 599 1603 599 1603 414 c 0,79,80
 1603 306 1603 306 1564 205 c 1,81,-1
 1024 205 l 1,48,-1
EndSplineSet
EndChar

StartChar: Uacute
Encoding: 218 218 146
Width: 2048
Flags: W
LayerCount: 2
Fore
SplineSet
697 1359 m 1,0,1
 710 1339 710 1339 707 1317 c 0,2,3
 697 1253 697 1253 636 1263 c 0,4,5
 618 1266 618 1266 607 1275 c 1,6,7
 603 1270 603 1270 595 1253 c 0,8,9
 584 1221 584 1221 553 1231 c 0,10,11
 522 1243 522 1243 529 1276 c 1,12,13
 574 1391 574 1391 692 1434 c 0,14,15
 726 1444 726 1444 737 1414 c 0,16,17
 749 1382 749 1382 719 1370 c 0,18,19
 713 1367 713 1367 708 1364.5 c 128,-1,20
 703 1362 703 1362 697 1359 c 1,0,1
400 882 m 0,21,22
 371 864 371 864 365 834 c 1,23,24
 366 801 366 801 334 798 c 0,25,26
 299 794 299 794 298 828 c 0,27,28
 302 894 302 894 357 933 c 0,29,30
 383 954 383 954 405 929 c 0,31,32
 427 902 427 902 400 882 c 0,21,22
1079 1697 m 1,33,34
 1236 1687 1236 1687 1370 1616 c 128,-1,35
 1504 1545 1504 1545 1598 1434 c 0,36,37
 1664 1356 1664 1356 1722.5 1246 c 128,-1,38
 1781 1136 1781 1136 1816 1013 c 0,39,40
 1856 870 1856 870 1866.5 712.5 c 128,-1,41
 1877 555 1877 555 1877 421 c 2,42,-1
 1877 203 l 1,43,44
 1877 203 1877 203 1721.5 203 c 128,-1,45
 1566 203 1566 203 1318 203 c 2,46,-1
 647 203 l 2,47,48
 638 203 638 203 638.5 252 c 128,-1,49
 639 301 639 301 645 331 c 0,50,51
 649 355 649 355 664 399 c 128,-1,52
 679 443 679 443 714 506 c 0,53,54
 730 538 730 538 790 599.5 c 128,-1,55
 850 661 850 661 928 742 c 0,56,57
 973 788 973 788 998.5 858 c 128,-1,58
 1024 928 1024 928 1020 985 c 1,59,60
 983 955 983 955 939 936 c 0,61,62
 727 860 727 860 632 716 c 0,63,64
 625 707 625 707 587 635 c 0,65,66
 567 597 567 597 553 583 c 0,67,68
 534 564 534 564 498 562 c 0,69,70
 442 559 442 559 411 616 c 1,71,72
 369 604 369 604 336 606 c 1,73,74
 280 627 280 627 255 651 c 0,75,76
 204 702 204 702 188.5 753 c 128,-1,77
 173 804 173 804 173 863 c 0,78,79
 173 947 173 947 277 1085 c 0,80,81
 399 1244 399 1244 407 1327 c 0,82,83
 407 1363 407 1363 414 1408 c 0,84,85
 420 1439 420 1439 439 1468 c 0,86,87
 452 1488 452 1488 456.5 1495.5 c 128,-1,88
 461 1503 461 1503 473 1518 c 0,89,90
 482 1530 482 1530 488 1536.5 c 128,-1,91
 494 1543 494 1543 503 1554 c 0,92,93
 514 1567 514 1567 531 1584 c 1,94,95
 478 1730 478 1730 488 1885 c 1,96,97
 687 1814 687 1814 822 1662 c 1,98,99
 855 1775 855 1775 952 1845 c 1,100,101
 1032 1789 1032 1789 1079 1697 c 1,33,34
1756 274 m 2,102,103
 1755 274 1755 274 1758 328.5 c 128,-1,104
 1761 383 1761 383 1761 446 c 0,105,106
 1762 571 1762 571 1761 704.5 c 128,-1,107
 1760 838 1760 838 1725 971 c 0,108,109
 1691 1099 1691 1099 1650 1189.5 c 128,-1,110
 1609 1280 1609 1280 1561 1346 c 0,111,112
 1489 1454 1489 1454 1365 1529 c 128,-1,113
 1241 1604 1241 1604 1106 1627 c 1,114,115
 1115 1578 1115 1578 1114 1531 c 0,116,117
 1112 1495 1112 1495 1080 1495 c 0,118,119
 1043 1495 1043 1495 1047 1531 c 0,120,121
 1050 1663 1050 1663 953 1757 c 1,122,123
 877 1677 877 1677 871 1571 c 0,124,125
 869 1536 869 1536 835 1540 c 0,126,127
 803 1541 803 1541 803 1577 c 1,128,129
 803 1577 803 1577 805 1585 c 1,130,131
 764 1572 764 1572 719 1548 c 0,132,133
 690 1528 690 1528 672 1558 c 256,134,135
 654 1588 654 1588 688 1605 c 0,136,137
 731 1627 731 1627 753 1638 c 1,138,139
 667 1726 667 1726 557 1780 c 1,140,141
 569 1641 569 1641 633 1517 c 0,142,143
 650 1491 650 1491 625 1471 c 0,144,145
 597 1449 597 1449 578 1478 c 0,146,147
 571 1488 571 1488 558 1514 c 1,148,149
 537 1493 537 1493 530 1483 c 0,150,151
 523 1474 523 1474 505.5 1443 c 128,-1,152
 488 1412 488 1412 480 1392 c 0,153,154
 471 1367 471 1367 472.5 1351.5 c 128,-1,155
 474 1336 474 1336 475 1317 c 0,156,157
 466 1258 466 1258 434.5 1206 c 128,-1,158
 403 1154 403 1154 354 1079 c 0,159,160
 307 1007 307 1007 282 971 c 128,-1,161
 257 935 257 935 244 879 c 0,162,163
 235 845 235 845 244 796.5 c 128,-1,164
 253 748 253 748 283 721 c 0,165,166
 329 674 329 674 372 678 c 0,167,168
 386 678 386 678 409.5 689 c 128,-1,169
 433 700 433 700 446 731 c 0,170,171
 472 788 472 788 489 788 c 0,172,173
 514 788 514 788 516 760 c 0,174,175
 516 754 516 754 500 710 c 0,176,177
 491 690 491 690 476 668 c 0,178,179
 457 642 457 642 459 646 c 1,180,181
 475 589 475 589 512 626 c 0,182,183
 523 637 523 637 537 667 c 128,-1,184
 551 697 551 697 581 748 c 0,185,186
 616 807 616 807 656 844 c 128,-1,187
 696 881 696 881 727 904 c 0,188,189
 745 917 745 917 771 934 c 128,-1,190
 797 951 797 951 841 969 c 0,191,192
 876 983 876 983 918.5 1003.5 c 128,-1,193
 961 1024 961 1024 994 1056 c 0,194,195
 1040 1101 1040 1101 1065 1167 c 0,196,197
 1078 1204 1078 1204 1075 1258 c 1,198,199
 1066 1292 1066 1292 1109 1292 c 0,200,201
 1141 1292 1141 1292 1145 1259 c 1,202,203
 1145 1146 1145 1146 1081 1053 c 1,204,205
 1102 989 1102 989 1092 913 c 0,206,207
 1083 852 1083 852 1049.5 782.5 c 128,-1,208
 1016 713 1016 713 914 628 c 0,209,210
 707 456 707 456 718 274 c 1,211,212
 718 274 718 274 888.5 274 c 128,-1,213
 1059 274 1059 274 1209 274 c 2,214,-1
 1756 274 l 2,102,103
EndSplineSet
EndChar

StartChar: Ucircumflex
Encoding: 219 219 147
Width: 2048
Flags: W
LayerCount: 2
Fore
SplineSet
988 1138 m 1,0,-1
 905 1139 l 2,1,2
 871 1139 871 1139 871 1173 c 1,3,-1
 871 1173 l 1,4,5
 871 1207 871 1207 905 1207 c 2,6,-1
 988 1207 l 1,7,-1
 988 1293 l 2,8,9
 988 1328 988 1328 1024 1328 c 1,10,-1
 1024 1328 l 1,11,12
 1059 1328 1059 1328 1059 1293 c 2,13,-1
 1059 1207 l 1,14,-1
 1145 1207 l 2,15,16
 1178 1207 1178 1207 1178 1173 c 1,17,-1
 1178 1173 l 1,18,19
 1178 1139 1178 1139 1145 1139 c 2,20,-1
 1059 1139 l 1,21,-1
 1059 1057 l 2,22,23
 1059 1021 1059 1021 1024 1021 c 1,24,-1
 1024 1021 l 1,25,26
 988 1021 988 1021 988 1057 c 2,27,-1
 988 1138 l 1,0,-1
1024 560 m 0,28,29
 1092 560 1092 560 1156.5 571.5 c 128,-1,30
 1221 583 1221 583 1281 599 c 1,31,32
 1164 630 1164 630 1024 630 c 0,33,34
 882 630 882 630 767 599 c 1,35,36
 825 583 825 583 890 571.5 c 128,-1,37
 955 560 955 560 1024 560 c 0,28,29
1024 1649 m 256,38,39
 1092 1649 1092 1649 1092 1717 c 256,40,41
 1092 1785 1092 1785 1024 1785 c 256,42,43
 956 1785 956 1785 956 1717 c 256,44,45
 956 1649 956 1649 1024 1649 c 256,38,39
1024 700 m 0,46,47
 1141 700 1141 700 1249 677 c 1,48,-1
 1201 800 l 1,49,50
 1113 814 1113 814 1024 814 c 0,51,52
 933 814 933 814 846 800 c 1,53,-1
 798 677 l 1,54,55
 905 700 905 700 1024 700 c 0,46,47
1024 882 m 0,56,57
 1121 882 1121 882 1210 867 c 1,58,59
 1308 902 1308 902 1352 976 c 0,60,61
 1390 1040 1390 1040 1390 1117 c 0,62,63
 1390 1163 1390 1163 1367 1218.5 c 128,-1,64
 1344 1274 1344 1274 1292 1319 c 0,65,66
 1233 1368 1233 1368 1163 1426.5 c 128,-1,67
 1093 1485 1093 1485 1024 1563 c 1,68,69
 954 1485 954 1485 884 1426.5 c 128,-1,70
 814 1368 814 1368 756 1319 c 0,71,72
 703 1274 703 1274 680.5 1218.5 c 128,-1,73
 658 1163 658 1163 658 1117 c 0,74,75
 658 1040 658 1040 695 976 c 0,76,77
 738 902 738 902 838 867 c 1,78,79
 926 882 926 882 1024 882 c 0,56,57
988 505 m 1,80,-1
 956 505 l 1,81,82
 900 415 900 415 849 392 c 0,83,84
 825 380 825 380 796 370 c 128,-1,85
 767 360 767 360 729 360 c 0,86,87
 722 360 722 360 622 376 c 0,88,89
 574 383 574 383 546 391 c 128,-1,90
 518 399 518 399 502 401 c 0,91,92
 445 408 445 408 369 395 c 0,93,94
 323 387 323 387 283 366 c 1,95,-1
 331 288 l 1,96,97
 343 300 343 300 362.5 303.5 c 128,-1,98
 382 307 382 307 398 311 c 0,99,100
 440 318 440 318 478 313 c 0,101,102
 491 310 491 310 529 305.5 c 128,-1,103
 567 301 567 301 630 291 c 0,104,105
 705 280 705 280 732 280 c 0,106,107
 837 280 837 280 893 320 c 0,108,109
 927 346 927 346 957.5 392.5 c 128,-1,110
 988 439 988 439 988 505 c 1,80,-1
1024 392 m 1,111,112
 1010 335 1010 335 990 313 c 128,-1,113
 970 291 970 291 937 267 c 0,114,115
 901 242 901 242 852 224.5 c 128,-1,116
 803 207 803 207 743 216 c 2,117,-1
 462 255 l 2,118,119
 445 257 445 257 431.5 255 c 128,-1,120
 418 253 418 253 406 253 c 0,121,122
 385 253 385 253 352.5 243.5 c 128,-1,123
 320 234 320 234 302 216 c 1,124,-1
 205 375 l 1,125,126
 223 395 223 395 237 403 c 128,-1,127
 251 411 251 411 270 420 c 0,128,129
 328 447 328 447 394 453 c 0,130,131
 422 455 422 455 449 454 c 128,-1,132
 476 453 476 453 505 456 c 1,133,134
 559 447 559 447 613.5 439.5 c 128,-1,135
 668 432 668 432 723 424 c 1,136,137
 783 424 783 424 804 436 c 0,138,139
 815 442 815 442 839 458 c 128,-1,140
 863 474 863 474 887 505 c 1,141,142
 834 511 834 511 779 525.5 c 128,-1,143
 724 540 724 540 682 556 c 1,144,-1
 786 814 l 1,145,146
 708 859 708 859 677 886.5 c 128,-1,147
 646 914 646 914 628 950 c 0,148,149
 602 996 602 996 594.5 1039 c 128,-1,150
 587 1082 587 1082 588 1116 c 0,151,152
 589 1176 589 1176 616.5 1248.5 c 128,-1,153
 644 1321 644 1321 720 1378 c 0,154,155
 783 1426 783 1426 843 1477 c 128,-1,156
 903 1528 903 1528 962 1596 c 1,157,158
 888 1634 888 1634 888 1717 c 0,159,160
 888 1773 888 1773 927.5 1813 c 128,-1,161
 967 1853 967 1853 1024 1853 c 0,162,163
 1080 1853 1080 1853 1120 1813 c 128,-1,164
 1160 1773 1160 1773 1160 1717 c 0,165,166
 1160 1635 1160 1635 1086 1596 c 1,167,168
 1144 1528 1144 1528 1203.5 1477 c 128,-1,169
 1263 1426 1263 1426 1328 1378 c 0,170,171
 1403 1321 1403 1321 1430 1248.5 c 128,-1,172
 1457 1176 1457 1176 1459 1116 c 0,173,174
 1459 1082 1459 1082 1452 1039 c 128,-1,175
 1445 996 1445 996 1420 950 c 0,176,177
 1400 914 1400 914 1369.5 886.5 c 128,-1,178
 1339 859 1339 859 1262 814 c 1,179,-1
 1366 556 l 1,180,181
 1322 540 1322 540 1267 525.5 c 128,-1,182
 1212 511 1212 511 1161 505 c 1,183,184
 1184 474 1184 474 1208 458 c 128,-1,185
 1232 442 1232 442 1244 436 c 0,186,187
 1265 424 1265 424 1325 424 c 1,188,189
 1379 432 1379 432 1433.5 439.5 c 128,-1,190
 1488 447 1488 447 1543 456 c 1,191,192
 1570 453 1570 453 1597.5 454 c 128,-1,193
 1625 455 1625 455 1654 453 c 0,194,195
 1718 447 1718 447 1778 420 c 0,196,197
 1796 411 1796 411 1810.5 403 c 128,-1,198
 1825 395 1825 395 1843 375 c 1,199,-1
 1745 216 l 1,200,201
 1727 234 1727 234 1694.5 243.5 c 128,-1,202
 1662 253 1662 253 1642 253 c 0,203,204
 1629 253 1629 253 1615.5 255 c 128,-1,205
 1602 257 1602 257 1585 255 c 2,206,-1
 1305 216 l 2,207,208
 1245 207 1245 207 1193.5 224 c 128,-1,209
 1142 241 1142 241 1109 269 c 0,210,211
 1076 296 1076 296 1056.5 315.5 c 128,-1,212
 1037 335 1037 335 1024 392 c 1,111,112
1059 505 m 1,213,214
 1059 439 1059 439 1089.5 392.5 c 128,-1,215
 1120 346 1120 346 1155 320 c 0,216,217
 1210 280 1210 280 1316 280 c 0,218,219
 1342 280 1342 280 1418 291 c 0,220,221
 1480 301 1480 301 1518 305.5 c 128,-1,222
 1556 310 1556 310 1569 313 c 0,223,224
 1607 318 1607 318 1649 311 c 0,225,226
 1665 307 1665 307 1684.5 303.5 c 128,-1,227
 1704 300 1704 300 1717 288 c 1,228,-1
 1765 366 l 1,229,230
 1724 387 1724 387 1678 395 c 0,231,232
 1602 408 1602 408 1545 401 c 0,233,234
 1528 399 1528 399 1500.5 391 c 128,-1,235
 1473 383 1473 383 1426 376 c 0,236,237
 1325 360 1325 360 1319 360 c 0,238,239
 1280 360 1280 360 1251 370 c 128,-1,240
 1222 380 1222 380 1199 392 c 0,241,242
 1146 416 1146 416 1091 505 c 1,243,-1
 1059 505 l 1,213,214
EndSplineSet
EndChar

StartChar: Udieresis
Encoding: 220 220 148
Width: 2048
Flags: W
LayerCount: 2
Fore
SplineSet
1161 1706 m 1,0,-1
 1331 1706 l 1,1,-1
 1331 1843 l 1,2,-1
 1605 1843 l 1,3,-1
 1605 1468 l 1,4,-1
 1383 1297 l 1,5,-1
 1383 819 l 1,6,-1
 1553 649 l 1,7,-1
 1553 444 l 1,8,-1
 1706 444 l 1,9,-1
 1706 205 l 1,10,-1
 341 205 l 1,11,-1
 341 444 l 1,12,-1
 494 444 l 1,13,-1
 494 649 l 1,14,-1
 665 819 l 1,15,-1
 665 1297 l 1,16,-1
 443 1468 l 1,17,-1
 443 1843 l 1,18,-1
 716 1843 l 1,19,-1
 716 1706 l 1,20,-1
 887 1706 l 1,21,-1
 887 1843 l 1,22,-1
 1161 1843 l 1,23,-1
 1161 1706 l 1,0,-1
1639 376 m 1,24,-1
 409 376 l 1,25,-1
 409 273 l 1,26,-1
 1639 273 l 1,27,-1
 1639 376 l 1,24,-1
1484 580 m 1,28,-1
 564 580 l 1,29,-1
 564 444 l 1,30,-1
 1484 444 l 1,31,-1
 1484 580 l 1,28,-1
1314 1297 m 1,32,-1
 734 1297 l 1,33,-1
 734 819 l 1,34,-1
 1314 819 l 1,35,-1
 1314 1297 l 1,32,-1
1536 1536 m 1,36,-1
 1536 1775 l 1,37,-1
 1399 1775 l 1,38,-1
 1399 1638 l 1,39,-1
 1091 1638 l 1,40,-1
 1091 1775 l 1,41,-1
 956 1775 l 1,42,-1
 956 1638 l 1,43,-1
 649 1638 l 1,44,-1
 649 1775 l 1,45,-1
 512 1775 l 1,46,-1
 512 1536 l 1,47,-1
 1536 1536 l 1,36,-1
1459 649 m 1,48,-1
 1356 751 l 1,49,-1
 693 751 l 1,50,-1
 588 649 l 1,51,-1
 1459 649 l 1,48,-1
1349 1365 m 1,52,-1
 1476 1468 l 1,53,-1
 572 1468 l 1,54,-1
 700 1365 l 1,55,-1
 1349 1365 l 1,52,-1
EndSplineSet
EndChar

StartChar: Yacute
Encoding: 221 221 149
Width: 2048
Flags: W
LayerCount: 2
Fore
SplineSet
1024 1621 m 0,0,1
 967 1621 967 1621 927.5 1661 c 128,-1,2
 888 1701 888 1701 888 1758 c 0,3,4
 888 1814 888 1814 927.5 1854 c 128,-1,5
 967 1894 967 1894 1024 1894 c 0,6,7
 1080 1894 1080 1894 1120.5 1854 c 128,-1,8
 1161 1814 1161 1814 1161 1758 c 0,9,10
 1161 1701 1161 1701 1120.5 1661 c 128,-1,11
 1080 1621 1080 1621 1024 1621 c 0,0,1
1024 1691 m 0,12,13
 1091 1691 1091 1691 1091 1758 c 0,14,15
 1091 1824 1091 1824 1024 1824 c 0,16,17
 958 1824 958 1824 958 1758 c 0,18,19
 958 1691 958 1691 1024 1691 c 0,12,13
1533 684 m 1,20,21
 1340 733 1340 733 1028 733 c 0,22,23
 708 733 708 733 517 683 c 1,24,-1
 532 587 l 1,25,26
 727 633 727 633 1028 633 c 0,27,28
 1327 633 1327 633 1516 588 c 1,29,-1
 1533 684 l 1,20,21
1558 744 m 1,30,-1
 1623 859 l 1,31,32
 1575 840 1575 840 1525 840 c 0,33,34
 1391 840 1391 840 1311 949 c 1,35,36
 1251 899 1251 899 1177 899 c 0,37,38
 1081 899 1081 899 1024 974 c 1,39,40
 960 904 960 904 871 904 c 0,41,42
 799 904 799 904 739 953 c 1,43,44
 655 846 655 846 522 846 c 0,45,46
 471 846 471 846 421 865 c 1,47,-1
 491 745 l 1,48,49
 685 801 685 801 1024 801 c 0,50,51
 1369 801 1369 801 1558 744 c 1,30,-1
1110 983 m 1,52,-1
 1025 1472 l 1,53,-1
 940 989 l 2,54,55
 943 991 943 991 954 999 c 1,56,57
 977 1044 977 1044 1024 1044 c 0,58,59
 1075 1044 1075 1044 1090 999 c 0,60,61
 1096 993 1096 993 1110 983 c 1,52,-1
1387 964 m 1,62,-1
 1387 1427 l 1,63,-1
 1222 973 l 1,64,65
 1241 980 1241 980 1254 991 c 0,66,67
 1274 1016 1274 1016 1308 1016 c 0,68,69
 1348 1016 1348 1016 1372 981 c 0,70,71
 1375 977 1375 977 1379 972.5 c 128,-1,72
 1383 968 1383 968 1387 964 c 1,62,-1
825 978 m 1,73,-1
 661 1427 l 1,74,-1
 661 970 l 2,75,76
 664 974 664 974 670 980 c 0,77,78
 690 1022 690 1022 736 1022 c 0,79,80
 774 1022 774 1022 798 990 c 1,81,82
 825 978 825 978 825 978 c 1,73,-1
571 922 m 1,83,-1
 356 1293 l 1,84,-1
 411 955 l 1,85,86
 468 915 468 915 522 915 c 0,87,88
 543 915 543 915 571 922 c 1,83,-1
1474 917 m 1,89,90
 1497 910 1497 910 1525 910 c 0,91,92
 1586 910 1586 910 1639 948 c 1,93,-1
 1694 1294 l 1,94,-1
 1474 917 l 1,89,90
1534 411 m 1,95,-1
 1504 524 l 1,96,97
 1308 567 1308 567 1024 567 c 0,98,99
 743 567 743 567 545 524 c 1,100,-1
 514 410 l 1,101,102
 700 466 700 466 1025 466 c 0,103,104
 1342 466 1342 466 1534 411 c 1,95,-1
1640 283 m 1,105,106
 1591 240 1591 240 1420 211 c 128,-1,107
 1249 182 1249 182 1026 182 c 0,108,109
 799 182 799 182 627 212 c 128,-1,110
 455 242 455 242 410 287 c 1,111,-1
 473 527 l 1,112,-1
 445 684 l 1,113,-1
 357 837 l 1,114,-1
 272 1459 l 1,115,-1
 321 1478 l 1,116,-1
 595 1016 l 1,117,-1
 601 1566 l 1,118,-1
 669 1578 l 1,119,-1
 878 1025 l 1,120,-1
 990 1620 l 1,121,-1
 1059 1620 l 1,122,-1
 1171 1027 l 1,123,-1
 1378 1578 l 1,124,-1
 1447 1566 l 1,125,-1
 1453 1016 l 1,126,-1
 1728 1479 l 1,127,-1
 1775 1457 l 1,128,-1
 1692 838 l 1,129,-1
 1603 685 l 1,130,-1
 1575 526 l 1,131,-1
 1640 283 l 1,105,106
1559 319 m 1,132,133
 1376 395 1376 395 1028 395 c 0,134,135
 673 395 673 395 491 317 c 1,136,137
 666 248 666 248 1025 248 c 0,138,139
 1197 248 1197 248 1339.5 267 c 128,-1,140
 1482 286 1482 286 1559 319 c 1,132,133
604 1571 m 0,141,142
 547 1571 547 1571 507 1610.5 c 128,-1,143
 467 1650 467 1650 467 1707 c 0,144,145
 467 1763 467 1763 507 1803 c 128,-1,146
 547 1843 547 1843 604 1843 c 0,147,148
 660 1843 660 1843 700 1803 c 128,-1,149
 740 1763 740 1763 740 1707 c 0,150,151
 740 1650 740 1650 700 1610.5 c 128,-1,152
 660 1571 660 1571 604 1571 c 0,141,142
604 1641 m 0,153,154
 670 1641 670 1641 670 1707 c 256,155,156
 670 1773 670 1773 604 1773 c 0,157,158
 537 1773 537 1773 537 1707 c 256,159,160
 537 1641 537 1641 604 1641 c 0,153,154
1444 1641 m 0,161,162
 1511 1641 1511 1641 1511 1707 c 256,163,164
 1511 1773 1511 1773 1444 1773 c 0,165,166
 1378 1773 1378 1773 1378 1707 c 256,167,168
 1378 1641 1378 1641 1444 1641 c 0,161,162
1444 1571 m 256,169,170
 1387 1571 1387 1571 1347.5 1610.5 c 128,-1,171
 1308 1650 1308 1650 1308 1707 c 0,172,173
 1308 1763 1308 1763 1347.5 1803 c 128,-1,174
 1387 1843 1387 1843 1444 1843 c 256,175,176
 1501 1843 1501 1843 1541 1803 c 128,-1,177
 1581 1763 1581 1763 1581 1707 c 0,178,179
 1581 1650 1581 1650 1541 1610.5 c 128,-1,180
 1501 1571 1501 1571 1444 1571 c 256,169,170
236 1461 m 256,181,182
 179 1461 179 1461 139.5 1500.5 c 128,-1,183
 100 1540 100 1540 100 1597 c 0,184,185
 100 1653 100 1653 139.5 1693.5 c 128,-1,186
 179 1734 179 1734 236 1734 c 256,187,188
 293 1734 293 1734 333 1693.5 c 128,-1,189
 373 1653 373 1653 373 1597 c 0,190,191
 373 1540 373 1540 333 1500.5 c 128,-1,192
 293 1461 293 1461 236 1461 c 256,181,182
236 1531 m 0,193,194
 303 1531 303 1531 303 1597 c 0,195,196
 303 1664 303 1664 236 1664 c 0,197,198
 170 1664 170 1664 170 1597 c 0,199,200
 170 1531 170 1531 236 1531 c 0,193,194
1814 1531 m 0,201,202
 1880 1531 1880 1531 1880 1597 c 0,203,204
 1880 1664 1880 1664 1814 1664 c 0,205,206
 1747 1664 1747 1664 1747 1597 c 0,207,208
 1747 1531 1747 1531 1814 1531 c 0,201,202
1814 1461 m 0,209,210
 1757 1461 1757 1461 1717 1500.5 c 128,-1,211
 1677 1540 1677 1540 1677 1597 c 0,212,213
 1677 1653 1677 1653 1717 1693.5 c 128,-1,214
 1757 1734 1757 1734 1814 1734 c 0,215,216
 1870 1734 1870 1734 1910 1693.5 c 128,-1,217
 1950 1653 1950 1653 1950 1597 c 0,218,219
 1950 1540 1950 1540 1910 1500.5 c 128,-1,220
 1870 1461 1870 1461 1814 1461 c 0,209,210
EndSplineSet
EndChar

StartChar: Thorn
Encoding: 222 222 150
Width: 2048
Flags: W
LayerCount: 2
Fore
SplineSet
524 583 m 1,0,1
 714 631 714 631 1028 631 c 0,2,3
 1336 631 1336 631 1525 585 c 1,4,-1
 1550 732 l 1,5,6
 1349 785 1349 785 1024 785 c 0,7,8
 697 785 697 785 499 731 c 1,9,-1
 524 583 l 1,0,1
463 522 m 1,10,-1
 430 709 l 2,11,12
 429 709 429 709 427 713 c 0,13,14
 422 720 422 720 398.5 731.5 c 128,-1,15
 375 743 375 743 344 771 c 0,16,17
 300 808 300 808 275.5 831 c 128,-1,18
 251 854 251 854 231 881 c 0,19,20
 170 965 170 965 163 1084 c 0,21,22
 153 1199 153 1199 256 1313 c 0,23,24
 360 1427 360 1427 537 1420 c 0,25,26
 603 1416 603 1416 692 1388 c 0,27,28
 721 1376 721 1376 751.5 1364.5 c 128,-1,29
 782 1353 782 1353 812 1341 c 0,30,31
 828 1333 828 1333 840 1325 c 1,32,33
 835 1346 835 1346 835 1367 c 0,34,35
 835 1445 835 1445 890.5 1500 c 128,-1,36
 946 1555 946 1555 1024 1556 c 0,37,38
 1102 1556 1102 1556 1157 1500.5 c 128,-1,39
 1212 1445 1212 1445 1212 1368 c 0,40,41
 1212 1352 1212 1352 1208 1326 c 1,42,43
 1222 1335 1222 1335 1235 1341 c 0,44,45
 1281 1361 1281 1361 1356 1388 c 0,46,47
 1442 1417 1442 1417 1511 1421 c 0,48,49
 1688 1429 1688 1429 1791 1314 c 0,50,51
 1892 1200 1892 1200 1885 1085 c 0,52,53
 1877 966 1877 966 1816 882 c 0,54,55
 1796 855 1796 855 1771 831.5 c 128,-1,56
 1746 808 1746 808 1704 772 c 0,57,58
 1671 744 1671 744 1648 732.5 c 128,-1,59
 1625 721 1625 721 1621 714 c 0,60,61
 1620 712 1620 712 1619 711 c 128,-1,62
 1618 710 1618 710 1618 709 c 2,63,-1
 1586 521 l 1,64,-1
 1652 274 l 1,65,66
 1602 229 1602 229 1428 200 c 128,-1,67
 1254 171 1254 171 1026 171 c 0,68,69
 794 171 794 171 618 201.5 c 128,-1,70
 442 232 442 232 397 278 c 1,71,-1
 463 522 l 1,10,-1
1544 405 m 1,72,-1
 1514 520 l 1,73,74
 1316 564 1316 564 1024 564 c 0,75,76
 733 564 733 564 535 520 c 1,77,-1
 503 404 l 1,78,79
 694 460 694 460 1025 460 c 0,80,81
 1354 460 1354 460 1544 405 c 1,72,-1
1570 311 m 1,82,83
 1377 389 1377 389 1028 389 c 0,84,85
 666 389 666 389 480 309 c 1,86,87
 656 239 656 239 1025 239 c 0,88,89
 1201 239 1201 239 1346 258.5 c 128,-1,90
 1491 278 1491 278 1570 311 c 1,82,83
989 853 m 1,91,92
 988 892 988 892 986 930.5 c 128,-1,93
 984 969 984 969 971 1016 c 0,94,95
 930 1150 930 1150 847 1232 c 0,96,97
 804 1274 804 1274 715 1310 c 0,98,99
 613 1350 613 1350 522 1350 c 0,100,101
 364 1350 364 1350 288 1237 c 0,102,103
 245 1177 245 1177 245 1087 c 0,104,105
 245 989 245 989 293 926 c 0,106,107
 322 889 322 889 367 852 c 128,-1,108
 412 815 412 815 451 785 c 1,109,110
 626 848 626 848 989 853 c 1,91,92
1024 1039 m 1,111,112
 1031 1067 1031 1067 1036 1078 c 0,113,114
 1046 1117 1046 1117 1059 1144 c 0,115,116
 1065 1161 1065 1161 1076.5 1183.5 c 128,-1,117
 1088 1206 1088 1206 1101 1235 c 0,118,119
 1109 1252 1109 1252 1118 1276.5 c 128,-1,120
 1127 1301 1127 1301 1136 1325 c 0,121,122
 1144 1345 1144 1345 1144 1368 c 0,123,124
 1144 1417 1144 1417 1109 1451.5 c 128,-1,125
 1074 1486 1074 1486 1024 1486 c 0,126,127
 905 1486 905 1486 905 1367 c 0,128,129
 905 1344 905 1344 913 1324 c 0,130,131
 935 1259 935 1259 947 1234 c 0,132,133
 960 1205 960 1205 971 1182.5 c 128,-1,134
 982 1160 982 1160 990 1143 c 0,135,136
 1003 1110 1003 1110 1012 1077 c 0,137,138
 1014 1071 1014 1071 1024 1039 c 1,111,112
1058 853 m 1,139,140
 1230 851 1230 851 1373 832.5 c 128,-1,141
 1516 814 1516 814 1597 786 c 1,142,143
 1635 816 1635 816 1680 852.5 c 128,-1,144
 1725 889 1725 889 1755 927 c 0,145,146
 1803 988 1803 988 1803 1088 c 0,147,148
 1803 1178 1803 1178 1760 1238 c 0,149,150
 1683 1350 1683 1350 1526 1350 c 0,151,152
 1432 1350 1432 1350 1333 1311 c 0,153,154
 1246 1276 1246 1276 1201 1233 c 0,155,156
 1117 1149 1117 1149 1077 1017 c 0,157,158
 1063 970 1063 970 1060.5 931.5 c 128,-1,159
 1058 893 1058 893 1058 853 c 1,139,140
1059 1559 m 1,160,-1
 988 1559 l 1,161,-1
 988 1690 l 1,162,-1
 905 1690 l 2,163,164
 871 1690 871 1690 871 1723 c 2,165,-1
 871 1724 l 2,166,167
 871 1757 871 1757 905 1757 c 2,168,-1
 988 1757 l 1,169,-1
 988 1842 l 2,170,171
 988 1877 988 1877 1024 1877 c 1,172,-1
 1024 1877 l 1,173,174
 1059 1877 1059 1877 1059 1842 c 2,175,-1
 1059 1757 l 1,176,-1
 1145 1757 l 2,177,178
 1178 1757 1178 1757 1178 1724 c 2,179,-1
 1178 1723 l 2,180,181
 1178 1690 1178 1690 1145 1690 c 2,182,-1
 1060 1689 l 1,183,-1
 1059 1559 l 1,160,-1
EndSplineSet
EndChar

StartChar: germandbls
Encoding: 223 223 151
Width: 2048
Flags: W
LayerCount: 2
Fore
SplineSet
1024 205 m 1,0,-1
 484 205 l 1,1,2
 444 305 444 305 444 414 c 0,3,4
 444 599 444 599 549 746 c 128,-1,5
 654 893 654 893 819 956 c 1,6,7
 748 989 748 989 703.5 1055.5 c 128,-1,8
 659 1122 659 1122 659 1206 c 0,9,10
 659 1311 659 1311 729 1388 c 128,-1,11
 799 1465 799 1465 901 1477 c 1,12,13
 820 1538 820 1538 820 1638 c 0,14,15
 820 1722 820 1722 879.5 1782 c 128,-1,16
 939 1842 939 1842 1024 1842 c 0,17,18
 1108 1842 1108 1842 1168 1782 c 128,-1,19
 1228 1722 1228 1722 1228 1638 c 0,20,21
 1228 1538 1228 1538 1147 1477 c 1,22,23
 1249 1465 1249 1465 1319 1388 c 128,-1,24
 1389 1311 1389 1311 1389 1206 c 0,25,26
 1389 1122 1389 1122 1343.5 1055.5 c 128,-1,27
 1298 989 1298 989 1228 956 c 1,28,29
 1393 893 1393 893 1498 746 c 128,-1,30
 1603 599 1603 599 1603 414 c 0,31,32
 1603 306 1603 306 1564 205 c 1,33,-1
 1024 205 l 1,0,-1
EndSplineSet
EndChar

StartChar: agrave
Encoding: 224 224 152
Width: 2048
Flags: W
LayerCount: 2
Fore
SplineSet
490 683 m 0,0,1
 494 692 494 692 503 710 c 0,2,3
 520 752 520 752 520 760 c 0,4,5
 518 788 518 788 491 788 c 0,6,7
 471 788 471 788 444 731 c 0,8,9
 440 723 440 723 432 717 c 0,10,11
 405 689 405 689 440 670 c 1,12,-1
 440 670 l 1,13,14
 472 651 472 651 490 683 c 0,0,1
1080 1054 m 1,15,16
 1150 1146 1150 1146 1149 1259 c 0,17,18
 1145 1292 1145 1292 1111 1292 c 0,19,20
 1065 1292 1065 1292 1075 1258 c 1,21,22
 1078 1203 1078 1203 1064 1167 c 0,23,24
 1041 1110 1041 1110 1013 1082 c 1,25,26
 998 1052 998 1052 1031 1038 c 1,27,-1
 1031 1038 l 1,28,29
 1063 1023 1063 1023 1080 1054 c 1,15,16
819 1542 m 1,30,31
 814 1578 814 1578 821 1620 c 1,32,33
 761 1608 761 1608 708 1564 c 1,34,35
 676 1547 676 1547 693 1517 c 0,36,37
 710 1486 710 1486 740 1507 c 0,38,39
 761 1518 761 1518 778.5 1527.5 c 128,-1,40
 796 1537 796 1537 819 1542 c 1,30,31
1756 274 m 2,41,42
 1755 274 1755 274 1758 328.5 c 128,-1,43
 1761 383 1761 383 1761 446 c 0,44,45
 1762 571 1762 571 1761 704.5 c 128,-1,46
 1760 838 1760 838 1725 971 c 0,47,48
 1691 1099 1691 1099 1650 1189.5 c 128,-1,49
 1609 1280 1609 1280 1561 1346 c 0,50,51
 1489 1454 1489 1454 1365 1529 c 128,-1,52
 1241 1604 1241 1604 1106 1627 c 1,53,54
 1110 1604 1110 1604 1108.5 1580 c 128,-1,55
 1107 1556 1107 1556 1109 1534 c 1,56,57
 1206 1501 1206 1501 1292 1452 c 128,-1,58
 1378 1403 1378 1403 1418 1346 c 0,59,60
 1466 1280 1466 1280 1507 1189.5 c 128,-1,61
 1548 1099 1548 1099 1582 971 c 0,62,63
 1616 838 1616 838 1617 704.5 c 128,-1,64
 1618 571 1618 571 1618 446 c 0,65,66
 1618 383 1618 383 1615 328.5 c 128,-1,67
 1612 274 1612 274 1615 274 c 2,68,-1
 1756 274 l 2,41,42
1079 1697 m 1,69,70
 1236 1687 1236 1687 1370 1616 c 128,-1,71
 1504 1545 1504 1545 1598 1434 c 0,72,73
 1664 1356 1664 1356 1722.5 1246 c 128,-1,74
 1781 1136 1781 1136 1816 1013 c 0,75,76
 1856 870 1856 870 1866.5 712.5 c 128,-1,77
 1877 555 1877 555 1877 421 c 2,78,-1
 1877 203 l 1,79,80
 1877 203 1877 203 1721.5 203 c 128,-1,81
 1566 203 1566 203 1318 203 c 2,82,-1
 647 203 l 2,83,84
 638 203 638 203 638.5 252 c 128,-1,85
 639 301 639 301 645 331 c 0,86,87
 649 355 649 355 664 399 c 128,-1,88
 679 443 679 443 714 506 c 0,89,90
 730 538 730 538 790 599.5 c 128,-1,91
 850 661 850 661 928 742 c 0,92,93
 973 788 973 788 998.5 858 c 128,-1,94
 1024 928 1024 928 1020 985 c 1,95,96
 983 955 983 955 939 936 c 0,97,98
 727 860 727 860 632 716 c 0,99,100
 625 707 625 707 587 635 c 0,101,102
 567 597 567 597 553 583 c 0,103,104
 534 564 534 564 498 562 c 0,105,106
 442 559 442 559 411 616 c 1,107,108
 369 604 369 604 336 606 c 1,109,110
 280 627 280 627 255 651 c 0,111,112
 204 702 204 702 188.5 753 c 128,-1,113
 173 804 173 804 173 863 c 0,114,115
 173 947 173 947 277 1085 c 0,116,117
 399 1244 399 1244 407 1327 c 0,118,119
 407 1363 407 1363 414 1408 c 0,120,121
 420 1439 420 1439 439 1468 c 0,122,123
 452 1488 452 1488 456.5 1495.5 c 128,-1,124
 461 1503 461 1503 473 1518 c 0,125,126
 482 1530 482 1530 488 1536.5 c 128,-1,127
 494 1543 494 1543 503 1554 c 0,128,129
 514 1567 514 1567 531 1584 c 1,130,131
 478 1730 478 1730 488 1885 c 1,132,133
 687 1814 687 1814 822 1662 c 1,134,135
 855 1775 855 1775 952 1845 c 1,136,137
 1032 1789 1032 1789 1079 1697 c 1,69,70
404 861 m 1,138,139
 433 881 433 881 410 909 c 0,140,141
 386 932 386 932 357 913 c 0,142,143
 296 873 296 873 292 808 c 0,144,145
 293 775 293 775 331 777 c 0,146,147
 367 780 367 780 366 814 c 1,148,149
 374 846 374 846 404 861 c 1,138,139
656 1359 m 1,150,151
 678 1370 678 1370 678 1370 c 2,152,153
 708 1382 708 1382 697 1414 c 0,154,155
 685 1444 685 1444 651 1434 c 0,156,157
 533 1391 533 1391 488 1276 c 1,158,159
 481 1243 481 1243 512 1231 c 0,160,161
 543 1221 543 1221 554 1253 c 0,162,163
 562 1270 562 1270 566 1275 c 1,164,165
 577 1266 577 1266 595 1263 c 0,166,167
 656 1253 656 1253 666 1317 c 0,168,169
 669 1339 669 1339 656 1359 c 1,150,151
EndSplineSet
EndChar

StartChar: aacute
Encoding: 225 225 153
Width: 2048
Flags: W
LayerCount: 2
Fore
SplineSet
1290 582 m 1,0,-1
 1248 684 l 1,1,2
 1146 706 1146 706 1024 706 c 0,3,4
 903 706 903 706 802 684 c 1,5,-1
 760 583 l 1,6,7
 884 614 884 614 1024 614 c 0,8,9
 1162 614 1162 614 1290 582 c 1,0,-1
1206 788 m 1,10,-1
 1177 858 l 1,11,-1
 1177 885 l 1,12,13
 1101 896 1101 896 1024 896 c 0,14,15
 949 896 949 896 872 885 c 1,16,-1
 871 858 l 1,17,-1
 844 788 l 1,18,19
 929 803 929 803 1024 803 c 0,20,21
 1120 803 1120 803 1206 788 c 1,10,-1
1171 410 m 1,22,23
 1131 440 1131 440 1091 505 c 1,24,-1
 1059 505 l 1,25,26
 1059 456 1059 456 1082 410 c 1,27,-1
 1171 410 l 1,22,23
965 410 m 1,28,29
 988 459 988 459 988 505 c 1,30,-1
 956 505 l 1,31,32
 917 441 917 441 875 410 c 1,33,-1
 965 410 l 1,28,29
1024 392 m 1,34,35
 1010 335 1010 335 990 313 c 128,-1,36
 970 291 970 291 937 267 c 0,37,38
 901 242 901 242 852 224.5 c 128,-1,39
 803 207 803 207 743 216 c 2,40,-1
 462 255 l 2,41,42
 445 257 445 257 431.5 255 c 128,-1,43
 418 253 418 253 406 253 c 0,44,45
 385 253 385 253 352.5 243.5 c 128,-1,46
 320 234 320 234 302 216 c 1,47,-1
 205 375 l 1,48,49
 223 395 223 395 237 403 c 128,-1,50
 251 411 251 411 270 420 c 0,51,52
 328 447 328 447 394 453 c 0,53,54
 422 455 422 455 449 454 c 128,-1,55
 476 453 476 453 505 456 c 1,56,57
 559 447 559 447 613.5 439.5 c 128,-1,58
 668 432 668 432 723 424 c 1,59,60
 783 424 783 424 804 436 c 0,61,62
 815 442 815 442 839 458 c 128,-1,63
 863 474 863 474 887 505 c 1,64,65
 834 511 834 511 779 525.5 c 128,-1,66
 724 540 724 540 682 556 c 1,67,-1
 786 814 l 1,68,69
 708 859 708 859 677 886.5 c 128,-1,70
 646 914 646 914 628 950 c 0,71,72
 602 996 602 996 594.5 1039 c 128,-1,73
 587 1082 587 1082 588 1116 c 0,74,75
 589 1176 589 1176 616.5 1248.5 c 128,-1,76
 644 1321 644 1321 720 1378 c 0,77,78
 783 1426 783 1426 843 1477 c 128,-1,79
 903 1528 903 1528 962 1596 c 1,80,81
 888 1634 888 1634 888 1717 c 0,82,83
 888 1773 888 1773 927.5 1813 c 128,-1,84
 967 1853 967 1853 1024 1853 c 0,85,86
 1080 1853 1080 1853 1120 1813 c 128,-1,87
 1160 1773 1160 1773 1160 1717 c 0,88,89
 1160 1635 1160 1635 1086 1596 c 1,90,91
 1144 1528 1144 1528 1203.5 1477 c 128,-1,92
 1263 1426 1263 1426 1328 1378 c 0,93,94
 1403 1321 1403 1321 1430 1248.5 c 128,-1,95
 1457 1176 1457 1176 1459 1116 c 0,96,97
 1459 1082 1459 1082 1452 1039 c 128,-1,98
 1445 996 1445 996 1420 950 c 0,99,100
 1400 914 1400 914 1369.5 886.5 c 128,-1,101
 1339 859 1339 859 1262 814 c 1,102,-1
 1366 556 l 1,103,104
 1322 540 1322 540 1267 525.5 c 128,-1,105
 1212 511 1212 511 1161 505 c 1,106,107
 1184 474 1184 474 1208 458 c 128,-1,108
 1232 442 1232 442 1244 436 c 0,109,110
 1265 424 1265 424 1325 424 c 1,111,112
 1379 432 1379 432 1433.5 439.5 c 128,-1,113
 1488 447 1488 447 1543 456 c 1,114,115
 1570 453 1570 453 1597.5 454 c 128,-1,116
 1625 455 1625 455 1654 453 c 0,117,118
 1718 447 1718 447 1778 420 c 0,119,120
 1796 411 1796 411 1810.5 403 c 128,-1,121
 1825 395 1825 395 1843 375 c 1,122,-1
 1745 216 l 1,123,124
 1727 234 1727 234 1694.5 243.5 c 128,-1,125
 1662 253 1662 253 1642 253 c 0,126,127
 1629 253 1629 253 1615.5 255 c 128,-1,128
 1602 257 1602 257 1585 255 c 2,129,-1
 1305 216 l 2,130,131
 1245 207 1245 207 1193.5 224 c 128,-1,132
 1142 241 1142 241 1109 269 c 0,133,134
 1076 296 1076 296 1056.5 315.5 c 128,-1,135
 1037 335 1037 335 1024 392 c 1,34,35
987 1136 m 1,136,-1
 987 1051 l 2,137,138
 987 1014 987 1014 1024 1014 c 1,139,-1
 1024 1014 l 1,140,141
 1061 1014 1061 1014 1061 1051 c 2,142,-1
 1061 1137 l 1,143,-1
 1151 1137 l 2,144,145
 1186 1137 1186 1137 1186 1173 c 1,146,-1
 1186 1173 l 1,147,148
 1186 1209 1186 1209 1151 1209 c 2,149,-1
 1061 1209 l 1,150,-1
 1061 1299 l 2,151,152
 1061 1336 1061 1336 1024 1336 c 1,153,-1
 1024 1336 l 1,154,155
 987 1336 987 1336 987 1299 c 2,156,-1
 987 1209 l 1,157,-1
 899 1209 l 2,158,159
 864 1209 864 1209 864 1173 c 1,160,-1
 864 1173 l 1,161,162
 864 1137 864 1137 899 1137 c 2,163,-1
 987 1136 l 1,136,-1
EndSplineSet
EndChar

StartChar: acircumflex
Encoding: 226 226 154
Width: 2048
Flags: W
LayerCount: 2
Fore
SplineSet
1161 1706 m 1,0,-1
 1331 1706 l 1,1,-1
 1331 1843 l 1,2,-1
 1605 1843 l 1,3,-1
 1605 1468 l 1,4,-1
 1383 1297 l 1,5,-1
 1383 819 l 1,6,-1
 1553 649 l 1,7,-1
 1553 444 l 1,8,-1
 1706 444 l 1,9,-1
 1706 205 l 1,10,-1
 341 205 l 1,11,-1
 341 444 l 1,12,-1
 494 444 l 1,13,-1
 494 649 l 1,14,-1
 665 819 l 1,15,-1
 665 1297 l 1,16,-1
 443 1468 l 1,17,-1
 443 1843 l 1,18,-1
 716 1843 l 1,19,-1
 716 1706 l 1,20,-1
 887 1706 l 1,21,-1
 887 1843 l 1,22,-1
 1161 1843 l 1,23,-1
 1161 1706 l 1,0,-1
564 460 m 1,24,-1
 564 358 l 1,25,-1
 1484 358 l 1,26,-1
 1484 460 l 1,27,-1
 564 460 l 1,24,-1
1024 1552 m 1,28,-1
 512 1552 l 1,29,-1
 512 1506 l 1,30,-1
 585 1451 l 1,31,-1
 1464 1451 l 1,32,-1
 1535 1506 l 1,33,-1
 1535 1552 l 1,34,-1
 1024 1552 l 1,28,-1
1024 1383 m 1,35,-1
 674 1383 l 1,36,-1
 734 1336 l 1,37,-1
 734 1279 l 1,38,-1
 1314 1279 l 1,39,-1
 1314 1336 l 1,40,-1
 1374 1383 l 1,41,-1
 1024 1383 l 1,35,-1
1024 837 m 1,42,-1
 734 837 l 1,43,-1
 734 791 l 1,44,-1
 674 733 l 1,45,-1
 1374 733 l 1,46,-1
 1314 791 l 1,47,-1
 1314 837 l 1,48,-1
 1024 837 l 1,42,-1
1024 665 m 1,49,-1
 610 665 l 1,50,-1
 564 622 l 1,51,-1
 564 564 l 1,52,-1
 1484 564 l 1,53,-1
 1484 622 l 1,54,-1
 1438 665 l 1,55,-1
 1024 665 l 1,49,-1
EndSplineSet
EndChar

StartChar: atilde
Encoding: 227 227 155
Width: 2048
Flags: W
LayerCount: 2
Fore
SplineSet
1588 793 m 1,0,1
 1505 823 1505 823 1354.5 842.5 c 128,-1,2
 1204 862 1204 862 1022 862 c 0,3,4
 844 862 844 862 696 843.5 c 128,-1,5
 548 825 548 825 463 795 c 1,6,-1
 513 704 l 1,7,8
 597 729 597 729 731 740 c 128,-1,9
 865 751 865 751 1024 751 c 256,10,11
 1183 751 1183 751 1318 740 c 128,-1,12
 1453 729 1453 729 1537 703 c 1,13,-1
 1588 793 l 1,0,1
1814 1461 m 0,14,15
 1757 1461 1757 1461 1717 1500.5 c 128,-1,16
 1677 1540 1677 1540 1677 1597 c 0,17,18
 1677 1653 1677 1653 1717 1693.5 c 128,-1,19
 1757 1734 1757 1734 1814 1734 c 0,20,21
 1870 1734 1870 1734 1910 1693.5 c 128,-1,22
 1950 1653 1950 1653 1950 1597 c 0,23,24
 1950 1540 1950 1540 1910 1500.5 c 128,-1,25
 1870 1461 1870 1461 1814 1461 c 0,14,15
236 1461 m 256,26,27
 179 1461 179 1461 139.5 1500.5 c 128,-1,28
 100 1540 100 1540 100 1597 c 0,29,30
 100 1653 100 1653 139.5 1693.5 c 128,-1,31
 179 1734 179 1734 236 1734 c 256,32,33
 293 1734 293 1734 333 1693.5 c 128,-1,34
 373 1653 373 1653 373 1597 c 0,35,36
 373 1540 373 1540 333 1500.5 c 128,-1,37
 293 1461 293 1461 236 1461 c 256,26,27
1444 1571 m 256,38,39
 1387 1571 1387 1571 1347.5 1610.5 c 128,-1,40
 1308 1650 1308 1650 1308 1707 c 0,41,42
 1308 1763 1308 1763 1347.5 1803 c 128,-1,43
 1387 1843 1387 1843 1444 1843 c 256,44,45
 1501 1843 1501 1843 1541 1803 c 128,-1,46
 1581 1763 1581 1763 1581 1707 c 0,47,48
 1581 1650 1581 1650 1541 1610.5 c 128,-1,49
 1501 1571 1501 1571 1444 1571 c 256,38,39
604 1571 m 0,50,51
 547 1571 547 1571 507 1610.5 c 128,-1,52
 467 1650 467 1650 467 1707 c 0,53,54
 467 1763 467 1763 507 1803 c 128,-1,55
 547 1843 547 1843 604 1843 c 0,56,57
 660 1843 660 1843 700 1803 c 128,-1,58
 740 1763 740 1763 740 1707 c 0,59,60
 740 1650 740 1650 700 1610.5 c 128,-1,61
 660 1571 660 1571 604 1571 c 0,50,51
1640 283 m 1,62,63
 1591 240 1591 240 1420 211 c 128,-1,64
 1249 182 1249 182 1026 182 c 0,65,66
 799 182 799 182 627 212 c 128,-1,67
 455 242 455 242 410 287 c 1,68,-1
 473 527 l 1,69,-1
 445 684 l 1,70,-1
 357 837 l 1,71,-1
 272 1459 l 1,72,-1
 321 1478 l 1,73,-1
 595 1016 l 1,74,-1
 601 1566 l 1,75,-1
 669 1578 l 1,76,-1
 878 1025 l 1,77,-1
 990 1620 l 1,78,-1
 1059 1620 l 1,79,-1
 1171 1027 l 1,80,-1
 1378 1578 l 1,81,-1
 1447 1566 l 1,82,-1
 1453 1016 l 1,83,-1
 1728 1479 l 1,84,-1
 1775 1457 l 1,85,-1
 1692 838 l 1,86,-1
 1603 685 l 1,87,-1
 1575 526 l 1,88,-1
 1640 283 l 1,62,63
1544 315 m 1,89,-1
 1514 433 l 1,90,91
 1319 478 1319 478 1024 478 c 0,92,93
 732 478 732 478 536 433 c 1,94,-1
 504 314 l 1,95,96
 694 372 694 372 1025 372 c 0,97,98
 1184 372 1184 372 1320 356 c 128,-1,99
 1456 340 1456 340 1544 315 c 1,89,-1
1518 614 m 1,100,101
 1334 665 1334 665 1028 665 c 0,102,103
 720 665 720 665 532 613 c 1,104,-1
 547 512 l 1,105,106
 736 561 736 561 1028 561 c 0,107,108
 1319 561 1319 561 1502 513 c 1,109,-1
 1518 614 l 1,100,101
1024 1621 m 0,110,111
 967 1621 967 1621 927.5 1661 c 128,-1,112
 888 1701 888 1701 888 1758 c 0,113,114
 888 1814 888 1814 927.5 1854 c 128,-1,115
 967 1894 967 1894 1024 1894 c 0,116,117
 1080 1894 1080 1894 1120.5 1854 c 128,-1,118
 1161 1814 1161 1814 1161 1758 c 0,119,120
 1161 1701 1161 1701 1120.5 1661 c 128,-1,121
 1080 1621 1080 1621 1024 1621 c 0,110,111
EndSplineSet
EndChar

StartChar: adieresis
Encoding: 228 228 156
Width: 2048
Flags: W
LayerCount: 2
Fore
SplineSet
1133 865 m 1,0,1
 1133 894 1133 894 1139.5 947.5 c 128,-1,2
 1146 1001 1146 1001 1160 1031 c 0,3,4
 1197 1112 1197 1112 1266 1181 c 0,5,6
 1286 1201 1286 1201 1352 1235 c 0,7,8
 1417 1267 1417 1267 1491 1267 c 0,9,10
 1547 1267 1547 1267 1602.5 1247.5 c 128,-1,11
 1658 1228 1658 1228 1686 1188 c 0,12,13
 1711 1154 1711 1154 1711 1078 c 0,14,15
 1711 1018 1711 1018 1662 966 c 0,16,17
 1630 933 1630 933 1593 899.5 c 128,-1,18
 1556 866 1556 866 1522 821 c 1,19,20
 1464 841 1464 841 1360.5 852 c 128,-1,21
 1257 863 1257 863 1133 865 c 1,0,1
1060 787 m 1,22,23
 1232 784 1232 784 1342 770 c 128,-1,24
 1452 756 1452 756 1540 737 c 1,25,26
 1595 791 1595 791 1662 840 c 128,-1,27
 1729 889 1729 889 1756 924 c 0,28,29
 1804 989 1804 989 1804 1086 c 0,30,31
 1804 1175 1804 1175 1761 1235 c 0,32,33
 1684 1348 1684 1348 1526 1348 c 0,34,35
 1434 1348 1434 1348 1334 1308 c 0,36,37
 1243 1272 1243 1272 1202 1230 c 0,38,39
 1117 1148 1117 1148 1078 1014 c 0,40,41
 1063 968 1063 968 1061.5 897 c 128,-1,42
 1060 826 1060 826 1060 787 c 1,22,23
1518 614 m 1,43,44
 1334 665 1334 665 1028 665 c 0,45,46
 720 665 720 665 532 613 c 1,47,-1
 547 512 l 1,48,49
 736 561 736 561 1028 561 c 0,50,51
 1319 561 1319 561 1502 513 c 1,52,-1
 1518 614 l 1,43,44
1544 315 m 1,53,-1
 1514 433 l 1,54,55
 1319 478 1319 478 1024 478 c 0,56,57
 732 478 732 478 536 433 c 1,58,-1
 504 314 l 1,59,60
 694 372 694 372 1025 372 c 0,61,62
 1184 372 1184 372 1320 356 c 128,-1,63
 1456 340 1456 340 1544 315 c 1,53,-1
463 522 m 1,64,-1
 430 709 l 2,65,66
 429 709 429 709 427 713 c 0,67,68
 422 720 422 720 398.5 731.5 c 128,-1,69
 375 743 375 743 344 771 c 0,70,71
 300 808 300 808 275.5 831 c 128,-1,72
 251 854 251 854 231 881 c 0,73,74
 170 965 170 965 163 1084 c 0,75,76
 153 1199 153 1199 256 1313 c 0,77,78
 360 1427 360 1427 537 1420 c 0,79,80
 603 1416 603 1416 692 1388 c 0,81,82
 721 1376 721 1376 751.5 1364.5 c 128,-1,83
 782 1353 782 1353 812 1341 c 0,84,85
 828 1333 828 1333 840 1325 c 1,86,87
 835 1346 835 1346 835 1367 c 0,88,89
 835 1445 835 1445 890.5 1500 c 128,-1,90
 946 1555 946 1555 1024 1556 c 0,91,92
 1102 1556 1102 1556 1157 1500.5 c 128,-1,93
 1212 1445 1212 1445 1212 1368 c 0,94,95
 1212 1352 1212 1352 1208 1326 c 1,96,97
 1222 1335 1222 1335 1235 1341 c 0,98,99
 1281 1361 1281 1361 1356 1388 c 0,100,101
 1442 1417 1442 1417 1511 1421 c 0,102,103
 1688 1429 1688 1429 1791 1314 c 0,104,105
 1892 1200 1892 1200 1885 1085 c 0,106,107
 1877 966 1877 966 1816 882 c 0,108,109
 1796 855 1796 855 1771 831.5 c 128,-1,110
 1746 808 1746 808 1704 772 c 0,111,112
 1671 744 1671 744 1648 732.5 c 128,-1,113
 1625 721 1625 721 1621 714 c 0,114,115
 1620 712 1620 712 1619 711 c 128,-1,116
 1618 710 1618 710 1618 709 c 2,117,-1
 1586 521 l 1,118,-1
 1652 274 l 1,119,120
 1602 229 1602 229 1428 200 c 128,-1,121
 1254 171 1254 171 1026 171 c 0,122,123
 794 171 794 171 618 201.5 c 128,-1,124
 442 232 442 232 397 278 c 1,125,-1
 463 522 l 1,64,-1
988 788 m 1,126,127
 988 828 988 828 986 898.5 c 128,-1,128
 984 969 984 969 971 1016 c 0,129,130
 930 1150 930 1150 847 1232 c 0,131,132
 804 1274 804 1274 715 1310 c 0,133,134
 613 1350 613 1350 522 1350 c 0,135,136
 364 1350 364 1350 288 1237 c 0,137,138
 245 1177 245 1177 245 1087 c 0,139,140
 245 989 245 989 293 926 c 0,141,142
 318 890 318 890 389 837 c 128,-1,143
 460 784 460 784 509 739 c 1,144,145
 596 758 596 758 705.5 772 c 128,-1,146
 815 786 815 786 988 788 c 1,126,127
1024 1039 m 1,147,148
 1031 1067 1031 1067 1036 1078 c 0,149,150
 1046 1117 1046 1117 1059 1144 c 0,151,152
 1065 1161 1065 1161 1076.5 1183.5 c 128,-1,153
 1088 1206 1088 1206 1101 1235 c 0,154,155
 1109 1252 1109 1252 1118 1276.5 c 128,-1,156
 1127 1301 1127 1301 1136 1325 c 0,157,158
 1144 1345 1144 1345 1144 1368 c 0,159,160
 1144 1417 1144 1417 1109 1451.5 c 128,-1,161
 1074 1486 1074 1486 1024 1486 c 0,162,163
 905 1486 905 1486 905 1367 c 0,164,165
 905 1344 905 1344 913 1324 c 0,166,167
 935 1259 935 1259 947 1234 c 0,168,169
 960 1205 960 1205 971 1182.5 c 128,-1,170
 982 1160 982 1160 990 1143 c 0,171,172
 1003 1110 1003 1110 1012 1077 c 0,173,174
 1014 1071 1014 1071 1024 1039 c 1,147,148
1059 1559 m 1,175,-1
 988 1559 l 1,176,-1
 988 1690 l 1,177,-1
 905 1690 l 2,178,179
 871 1690 871 1690 871 1723 c 2,180,-1
 871 1724 l 2,181,182
 871 1757 871 1757 905 1757 c 2,183,-1
 988 1757 l 1,184,-1
 988 1842 l 2,185,186
 988 1877 988 1877 1024 1877 c 1,187,-1
 1024 1877 l 1,188,189
 1059 1877 1059 1877 1059 1842 c 2,190,-1
 1059 1757 l 1,191,-1
 1145 1757 l 2,192,193
 1178 1757 1178 1757 1178 1724 c 2,194,-1
 1178 1723 l 2,195,196
 1178 1690 1178 1690 1145 1690 c 2,197,-1
 1060 1689 l 1,198,-1
 1059 1559 l 1,175,-1
912 865 m 1,199,200
 787 863 787 863 683.5 852 c 128,-1,201
 580 841 580 841 523 821 c 1,202,203
 493 858 493 858 453.5 895.5 c 128,-1,204
 414 933 414 933 384 966 c 0,205,206
 334 1017 334 1017 334 1078 c 0,207,208
 334 1153 334 1153 359 1188 c 0,209,210
 386 1228 386 1228 442 1247.5 c 128,-1,211
 498 1267 498 1267 555 1267 c 0,212,213
 627 1267 627 1267 693 1235 c 0,214,215
 758 1201 758 1201 779 1181 c 0,216,217
 847 1112 847 1112 885 1031 c 0,218,219
 898 1001 898 1001 904.5 947.5 c 128,-1,220
 911 894 911 894 912 865 c 1,199,200
1024 1210 m 1,221,222
 1022 1220 1022 1220 1019 1227 c 0,223,224
 1013 1247 1013 1247 1009 1256 c 0,225,226
 1006 1263 1006 1263 1001 1273.5 c 128,-1,227
 996 1284 996 1284 991 1296 c 0,228,229
 988 1303 988 1303 983.5 1314.5 c 128,-1,230
 979 1326 979 1326 976 1336 c 0,231,232
 973 1345 973 1345 973 1355 c 0,233,234
 973 1408 973 1408 1024 1408 c 0,235,236
 1077 1408 1077 1408 1077 1356 c 0,237,238
 1077 1343 1077 1343 1073 1337 c 0,239,240
 1059 1299 1059 1299 1058 1296 c 0,241,242
 1043 1266 1043 1266 1039 1257 c 0,243,244
 1032 1241 1032 1241 1030 1228 c 0,245,246
 1027 1222 1027 1222 1026 1217.5 c 128,-1,247
 1025 1213 1025 1213 1024 1210 c 1,221,222
EndSplineSet
EndChar

StartChar: aring
Encoding: 229 229 157
Width: 2048
Flags: W
LayerCount: 2
Fore
SplineSet
1170 1024 m 1,0,-1
 1652 542 l 2,1,2
 1725 469 1725 469 1652 396 c 1,3,-1
 1652 396 l 1,4,5
 1579 323 1579 323 1507 396 c 2,6,-1
 1024 878 l 1,7,-1
 542 396 l 2,8,9
 469 323 469 323 395 396 c 1,10,-1
 395 396 l 1,11,12
 323 469 323 469 395 543 c 2,13,-1
 877 1025 l 1,14,-1
 395 1507 l 2,15,16
 322 1580 322 1580 395 1653 c 1,17,-1
 395 1653 l 1,18,19
 468 1726 468 1726 541 1653 c 2,20,-1
 1024 1171 l 1,21,-1
 1505 1653 l 2,22,23
 1578 1724 1578 1724 1652 1653 c 1,24,-1
 1652 1653 l 1,25,26
 1724 1578 1724 1578 1652 1506 c 2,27,-1
 1170 1024 l 1,0,-1
EndSplineSet
EndChar

StartChar: ae
Encoding: 230 230 158
Width: 2048
Flags: W
LayerCount: 2
Fore
SplineSet
1024 1305 m 0,0,1
 1140 1305 1140 1305 1222.5 1222.5 c 128,-1,2
 1305 1140 1305 1140 1305 1024 c 0,3,4
 1305 907 1305 907 1222.5 825 c 128,-1,5
 1140 743 1140 743 1024 743 c 0,6,7
 907 743 907 743 825 825 c 128,-1,8
 743 907 743 907 743 1024 c 0,9,10
 743 1140 743 1140 825 1222.5 c 128,-1,11
 907 1305 907 1305 1024 1305 c 0,0,1
EndSplineSet
EndChar

StartChar: ccedilla
Encoding: 231 231 159
Width: 2048
Flags: W
LayerCount: 2
Fore
SplineSet
0 585 m 1,0,-1
 1462 2047 l 1,1,-1
 1507 2047 l 1,2,-1
 0 537 l 1,3,-1
 0 585 l 1,0,-1
0 1413 m 1,4,-1
 632 2047 l 1,5,-1
 677 2047 l 1,6,-1
 0 1370 l 1,7,-1
 0 1413 l 1,4,-1
0 1691 m 1,8,-1
 356 2047 l 1,9,-1
 401 2047 l 1,10,-1
 0 1647 l 1,11,-1
 0 1691 l 1,8,-1
0 1136 m 1,12,-1
 909 2047 l 1,13,-1
 954 2047 l 1,14,-1
 0 1094 l 1,15,-1
 0 1136 l 1,12,-1
0 858 m 1,16,-1
 1185 2047 l 1,17,-1
 1230 2047 l 1,18,-1
 0 814 l 1,19,-1
 0 858 l 1,16,-1
0 309 m 1,20,-1
 1738 2047 l 1,21,-1
 1783 2047 l 1,22,-1
 0 261 l 1,23,-1
 0 309 l 1,20,-1
1949 0 m 1,24,-1
 1906 0 l 1,25,-1
 2048 140 l 1,26,-1
 2048 95 l 1,27,-1
 1949 0 l 1,24,-1
0 1923 m 1,28,-1
 0 1967 l 1,29,-1
 79 2047 l 1,30,-1
 124 2047 l 1,31,-1
 0 1923 l 1,28,-1
1630 0 m 1,32,-1
 2048 416 l 1,33,-1
 2048 370 l 1,34,-1
 1677 0 l 1,35,-1
 1630 0 l 1,32,-1
1353 0 m 1,36,-1
 2048 691 l 1,37,-1
 2048 646 l 1,38,-1
 1402 0 l 1,39,-1
 1353 0 l 1,36,-1
1077 0 m 1,40,-1
 2048 970 l 1,41,-1
 2048 923 l 1,42,-1
 1124 0 l 1,43,-1
 1077 0 l 1,40,-1
794 0 m 1,44,-1
 2048 1251 l 1,45,-1
 2048 1206 l 1,46,-1
 839 0 l 1,47,-1
 794 0 l 1,44,-1
518 0 m 1,48,-1
 2048 1528 l 1,49,-1
 2048 1483 l 1,50,-1
 563 0 l 1,51,-1
 518 0 l 1,48,-1
241 0 m 1,52,-1
 2048 1804 l 1,53,-1
 2048 1759 l 1,54,-1
 286 0 l 1,55,-1
 241 0 l 1,52,-1
0 32 m 1,56,-1
 2015 2047 l 1,57,58
 2048 2047 2048 2047 2048 2040 c 1,59,-1
 13 0 l 1,60,61
 0 0 0 0 0 32 c 1,56,-1
EndSplineSet
EndChar

StartChar: egrave
Encoding: 232 232 160
Width: 2048
Flags: W
LayerCount: 2
Fore
SplineSet
1024 205 m 1,0,-1
 484 205 l 1,1,2
 444 305 444 305 444 414 c 0,3,4
 444 599 444 599 549 746 c 128,-1,5
 654 893 654 893 819 956 c 1,6,7
 748 989 748 989 703.5 1055.5 c 128,-1,8
 659 1122 659 1122 659 1206 c 0,9,10
 659 1311 659 1311 729 1388 c 128,-1,11
 799 1465 799 1465 901 1477 c 1,12,13
 820 1538 820 1538 820 1638 c 0,14,15
 820 1722 820 1722 879.5 1782 c 128,-1,16
 939 1842 939 1842 1024 1842 c 0,17,18
 1108 1842 1108 1842 1168 1782 c 128,-1,19
 1228 1722 1228 1722 1228 1638 c 0,20,21
 1228 1538 1228 1538 1147 1477 c 1,22,23
 1249 1465 1249 1465 1319 1388 c 128,-1,24
 1389 1311 1389 1311 1389 1206 c 0,25,26
 1389 1122 1389 1122 1343.5 1055.5 c 128,-1,27
 1298 989 1298 989 1228 956 c 1,28,29
 1393 893 1393 893 1498 746 c 128,-1,30
 1603 599 1603 599 1603 414 c 0,31,32
 1603 306 1603 306 1564 205 c 1,33,-1
 1024 205 l 1,0,-1
1024 273 m 1,34,-1
 1515 273 l 1,35,36
 1536 345 1536 345 1536 414 c 0,37,38
 1536 570 1536 570 1449.5 697 c 128,-1,39
 1363 824 1363 824 1227 884 c 1,40,41
 1161 889 1161 889 1161 956 c 0,42,43
 1161 1009 1161 1009 1228 1034 c 1,44,45
 1321 1099 1321 1099 1321 1206 c 0,46,47
 1321 1283 1321 1283 1269 1341 c 128,-1,48
 1217 1399 1217 1399 1143 1408 c 0,49,50
 1083 1413 1083 1413 1083 1476 c 0,51,52
 1083 1504 1083 1504 1105 1528 c 1,53,54
 1159 1570 1159 1570 1159 1638 c 0,55,56
 1159 1694 1159 1694 1119 1734 c 128,-1,57
 1079 1774 1079 1774 1024 1774 c 0,58,59
 967 1774 967 1774 927.5 1734 c 128,-1,60
 888 1694 888 1694 888 1638 c 0,61,62
 888 1571 888 1571 942 1528 c 0,63,64
 964 1506 964 1506 964 1476 c 0,65,66
 964 1413 964 1413 905 1408 c 0,67,68
 830 1399 830 1399 778.5 1341 c 128,-1,69
 727 1283 727 1283 727 1206 c 0,70,71
 727 1099 727 1099 820 1034 c 1,72,73
 887 1008 887 1008 887 956 c 0,74,75
 887 889 887 889 820 884 c 1,76,77
 684 824 684 824 598 697 c 128,-1,78
 512 570 512 570 512 414 c 0,79,80
 512 340 512 340 533 273 c 1,81,-1
 1024 273 l 1,34,-1
1471 117 m 1,82,-1
 1520 117 l 1,83,-1
 1402 0 l 1,84,-1
 1353 0 l 1,85,-1
 1471 117 l 1,82,-1
1195 117 m 1,86,-1
 1241 117 l 1,87,-1
 1124 0 l 1,88,-1
 1077 0 l 1,89,-1
 1195 117 l 1,86,-1
912 117 m 1,90,-1
 957 117 l 1,91,-1
 839 0 l 1,92,-1
 794 0 l 1,93,-1
 912 117 l 1,90,-1
637 117 m 1,94,-1
 682 117 l 1,95,-1
 563 0 l 1,96,-1
 518 0 l 1,97,-1
 637 117 l 1,94,-1
359 117 m 1,98,-1
 404 117 l 1,99,-1
 286 0 l 1,100,-1
 241 0 l 1,101,-1
 359 117 l 1,98,-1
1255 1797 m 1,102,103
 1247 1810 1247 1810 1236 1822 c 1,104,-1
 1462 2047 l 1,105,-1
 1507 2047 l 1,106,-1
 1255 1797 l 1,102,103
578 1163 m 1,107,-1
 0 585 l 1,108,-1
 0 537 l 1,109,-1
 584 1122 l 1,110,111
 579 1141 579 1141 578 1163 c 1,107,-1
0 1413 m 1,112,-1
 632 2047 l 1,113,-1
 677 2047 l 1,114,-1
 0 1370 l 1,115,-1
 0 1413 l 1,112,-1
0 1691 m 1,116,-1
 356 2047 l 1,117,-1
 401 2047 l 1,118,-1
 0 1647 l 1,119,-1
 0 1691 l 1,116,-1
0 1136 m 1,120,-1
 909 2047 l 1,121,-1
 954 2047 l 1,122,-1
 0 1094 l 1,123,-1
 0 1136 l 1,120,-1
1092 1908 m 1,124,125
 1080 1912 1080 1912 1054 1916 c 1,126,-1
 1185 2047 l 1,127,-1
 1230 2047 l 1,128,-1
 1092 1908 l 1,124,125
748 1564 m 1,129,130
 743 1582 743 1582 742 1602 c 1,131,-1
 0 858 l 1,132,-1
 0 814 l 1,133,-1
 748 1564 l 1,129,130
1300 1562 m 1,134,135
 1308 1596 1308 1596 1308 1616 c 1,136,-1
 1738 2047 l 1,137,-1
 1783 2047 l 1,138,-1
 1300 1562 l 1,134,135
475 783 m 1,139,-1
 0 309 l 1,140,-1
 0 261 l 1,141,-1
 416 677 l 1,142,143
 441 734 441 734 475 783 c 1,139,-1
1949 0 m 1,144,-1
 1906 0 l 1,145,-1
 2048 140 l 1,146,-1
 2048 95 l 1,147,-1
 1949 0 l 1,144,-1
0 1923 m 1,148,-1
 0 1967 l 1,149,-1
 79 2047 l 1,150,-1
 124 2047 l 1,151,-1
 0 1923 l 1,148,-1
1630 0 m 1,152,-1
 2048 416 l 1,153,-1
 2048 370 l 1,154,-1
 1677 0 l 1,155,-1
 1630 0 l 1,152,-1
1677 274 m 1,156,157
 1681 292 1681 292 1685 330 c 1,158,-1
 2048 691 l 1,159,-1
 2048 646 l 1,160,-1
 1677 274 l 1,156,157
1674 549 m 1,161,162
 1673 554 1673 554 1663 585 c 1,163,-1
 2048 970 l 1,164,-1
 2048 923 l 1,165,-1
 1674 549 l 1,161,162
1594 751 m 1,166,167
 1589 758 1589 758 1584.5 765 c 128,-1,168
 1580 772 1580 772 1576 780 c 1,169,-1
 2048 1251 l 1,170,-1
 2048 1206 l 1,171,-1
 1594 751 l 1,166,167
1470 902 m 1,172,173
 1459 912 1459 912 1443 923 c 1,174,-1
 2048 1528 l 1,175,-1
 2048 1483 l 1,176,-1
 1470 902 l 1,172,173
1472 1183 m 2,177,178
 1472 1188 1472 1188 1472.5 1192.5 c 128,-1,179
 1473 1197 1473 1197 1473 1202 c 0,180,181
 1473 1213 1473 1213 1471 1229 c 1,182,-1
 2048 1804 l 1,183,-1
 2048 1759 l 1,184,-1
 1472 1183 l 2,177,178
1410 1400 m 1,185,186
 1405 1406 1405 1406 1400.5 1412 c 128,-1,187
 1396 1418 1396 1418 1392 1424 c 1,188,-1
 2015 2047 l 1,189,190
 2048 2047 2048 2047 2048 2040 c 1,191,-1
 1410 1400 l 1,185,186
359 390 m 1,192,193
 359 373 359 373 361 347 c 1,194,-1
 13 0 l 1,195,196
 0 0 0 0 0 32 c 1,197,-1
 359 390 l 1,192,193
EndSplineSet
EndChar

StartChar: eacute
Encoding: 233 233 161
Width: 2048
Flags: W
LayerCount: 2
Fore
SplineSet
1756 274 m 2,0,1
 1755 274 1755 274 1758 328.5 c 128,-1,2
 1761 383 1761 383 1761 446 c 0,3,4
 1762 571 1762 571 1761 704.5 c 128,-1,5
 1760 838 1760 838 1725 971 c 0,6,7
 1691 1099 1691 1099 1650 1189.5 c 128,-1,8
 1609 1280 1609 1280 1561 1346 c 0,9,10
 1489 1454 1489 1454 1365 1529 c 128,-1,11
 1241 1604 1241 1604 1106 1627 c 1,12,13
 1115 1578 1115 1578 1114 1531 c 0,14,15
 1112 1495 1112 1495 1080 1495 c 0,16,17
 1043 1495 1043 1495 1047 1531 c 0,18,19
 1050 1663 1050 1663 953 1757 c 1,20,21
 877 1677 877 1677 871 1571 c 0,22,23
 869 1536 869 1536 835 1540 c 0,24,25
 803 1541 803 1541 803 1577 c 1,26,27
 803 1577 803 1577 805 1585 c 1,28,29
 764 1572 764 1572 719 1548 c 0,30,31
 690 1528 690 1528 672 1558 c 256,32,33
 654 1588 654 1588 688 1605 c 0,34,35
 731 1627 731 1627 753 1638 c 1,36,37
 667 1726 667 1726 557 1780 c 1,38,39
 569 1641 569 1641 633 1517 c 0,40,41
 650 1491 650 1491 625 1471 c 0,42,43
 597 1449 597 1449 578 1478 c 0,44,45
 571 1488 571 1488 558 1514 c 1,46,47
 537 1493 537 1493 530 1483 c 0,48,49
 523 1474 523 1474 505.5 1443 c 128,-1,50
 488 1412 488 1412 480 1392 c 0,51,52
 471 1367 471 1367 472.5 1351.5 c 128,-1,53
 474 1336 474 1336 475 1317 c 0,54,55
 466 1258 466 1258 434.5 1206 c 128,-1,56
 403 1154 403 1154 354 1079 c 0,57,58
 307 1007 307 1007 282 971 c 128,-1,59
 257 935 257 935 244 879 c 0,60,61
 235 845 235 845 244 796.5 c 128,-1,62
 253 748 253 748 283 721 c 0,63,64
 329 674 329 674 372 678 c 0,65,66
 386 678 386 678 409.5 689 c 128,-1,67
 433 700 433 700 446 731 c 0,68,69
 472 788 472 788 489 788 c 0,70,71
 514 788 514 788 516 760 c 0,72,73
 516 754 516 754 500 710 c 0,74,75
 491 690 491 690 476 668 c 0,76,77
 457 642 457 642 459 646 c 1,78,79
 475 589 475 589 512 626 c 0,80,81
 523 637 523 637 537 667 c 128,-1,82
 551 697 551 697 581 748 c 0,83,84
 616 807 616 807 656 844 c 128,-1,85
 696 881 696 881 727 904 c 0,86,87
 745 917 745 917 771 934 c 128,-1,88
 797 951 797 951 841 969 c 0,89,90
 876 983 876 983 918.5 1003.5 c 128,-1,91
 961 1024 961 1024 994 1056 c 0,92,93
 1040 1101 1040 1101 1065 1167 c 0,94,95
 1078 1204 1078 1204 1075 1258 c 1,96,97
 1066 1292 1066 1292 1109 1292 c 0,98,99
 1141 1292 1141 1292 1145 1259 c 1,100,101
 1145 1146 1145 1146 1081 1053 c 1,102,103
 1102 989 1102 989 1092 913 c 0,104,105
 1083 852 1083 852 1049.5 782.5 c 128,-1,106
 1016 713 1016 713 914 628 c 0,107,108
 707 456 707 456 718 274 c 1,109,110
 718 274 718 274 888.5 274 c 128,-1,111
 1059 274 1059 274 1209 274 c 2,112,-1
 1756 274 l 2,0,1
1079 1697 m 1,113,114
 1236 1687 1236 1687 1370 1616 c 128,-1,115
 1504 1545 1504 1545 1598 1434 c 0,116,117
 1664 1356 1664 1356 1722.5 1246 c 128,-1,118
 1781 1136 1781 1136 1816 1013 c 0,119,120
 1856 870 1856 870 1866.5 712.5 c 128,-1,121
 1877 555 1877 555 1877 421 c 2,122,-1
 1877 203 l 1,123,124
 1877 203 1877 203 1721.5 203 c 128,-1,125
 1566 203 1566 203 1318 203 c 2,126,-1
 647 203 l 2,127,128
 638 203 638 203 638.5 252 c 128,-1,129
 639 301 639 301 645 331 c 0,130,131
 649 355 649 355 664 399 c 128,-1,132
 679 443 679 443 714 506 c 0,133,134
 730 538 730 538 790 599.5 c 128,-1,135
 850 661 850 661 928 742 c 0,136,137
 973 788 973 788 998.5 858 c 128,-1,138
 1024 928 1024 928 1020 985 c 1,139,140
 983 955 983 955 939 936 c 0,141,142
 727 860 727 860 632 716 c 0,143,144
 625 707 625 707 587 635 c 0,145,146
 567 597 567 597 553 583 c 0,147,148
 534 564 534 564 498 562 c 0,149,150
 442 559 442 559 411 616 c 1,151,152
 369 604 369 604 336 606 c 1,153,154
 280 627 280 627 255 651 c 0,155,156
 204 702 204 702 188.5 753 c 128,-1,157
 173 804 173 804 173 863 c 0,158,159
 173 947 173 947 277 1085 c 0,160,161
 399 1244 399 1244 407 1327 c 0,162,163
 407 1363 407 1363 414 1408 c 0,164,165
 420 1439 420 1439 439 1468 c 0,166,167
 452 1488 452 1488 456.5 1495.5 c 128,-1,168
 461 1503 461 1503 473 1518 c 0,169,170
 482 1530 482 1530 488 1536.5 c 128,-1,171
 494 1543 494 1543 503 1554 c 0,172,173
 514 1567 514 1567 531 1584 c 1,174,175
 478 1730 478 1730 488 1885 c 1,176,177
 687 1814 687 1814 822 1662 c 1,178,179
 855 1775 855 1775 952 1845 c 1,180,181
 1032 1789 1032 1789 1079 1697 c 1,113,114
400 882 m 0,182,183
 371 864 371 864 365 834 c 1,184,185
 366 801 366 801 334 798 c 0,186,187
 299 794 299 794 298 828 c 0,188,189
 302 894 302 894 357 933 c 0,190,191
 383 954 383 954 405 929 c 0,192,193
 427 902 427 902 400 882 c 0,182,183
697 1359 m 1,194,195
 710 1339 710 1339 707 1317 c 0,196,197
 697 1253 697 1253 636 1263 c 0,198,199
 618 1266 618 1266 607 1275 c 1,200,201
 603 1270 603 1270 595 1253 c 0,202,203
 584 1221 584 1221 553 1231 c 0,204,205
 522 1243 522 1243 529 1276 c 1,206,207
 574 1391 574 1391 692 1434 c 0,208,209
 726 1444 726 1444 737 1414 c 0,210,211
 749 1382 749 1382 719 1370 c 0,212,213
 713 1367 713 1367 708 1364.5 c 128,-1,214
 703 1362 703 1362 697 1359 c 1,194,195
1799 119 m 1,215,-1
 1677 0 l 1,216,-1
 1630 0 l 1,217,-1
 1749 119 l 1,218,-1
 1799 119 l 1,215,-1
1523 119 m 1,219,-1
 1402 0 l 1,220,-1
 1353 0 l 1,221,-1
 1477 119 l 1,222,-1
 1523 119 l 1,219,-1
1246 119 m 1,223,-1
 1124 0 l 1,224,-1
 1077 0 l 1,225,-1
 1196 119 l 1,226,-1
 1246 119 l 1,223,-1
960 119 m 1,227,-1
 839 0 l 1,228,-1
 794 0 l 1,229,-1
 914 119 l 1,230,-1
 960 119 l 1,227,-1
683 119 m 1,231,-1
 563 0 l 1,232,-1
 518 0 l 1,233,-1
 635 119 l 1,234,-1
 683 119 l 1,231,-1
1226 1764 m 1,235,236
 1191 1772 1191 1772 1185 1773 c 1,237,-1
 1462 2047 l 1,238,-1
 1507 2047 l 1,239,-1
 1226 1764 l 1,235,236
120 705 m 1,240,241
 124 684 124 684 134 669 c 1,242,-1
 0 537 l 1,243,-1
 0 585 l 1,244,-1
 120 705 l 1,240,241
580 1953 m 2,245,246
 578 1954 578 1954 551 1966 c 1,247,-1
 632 2047 l 1,248,-1
 677 2047 l 1,249,-1
 580 1953 l 2,245,246
391 1807 m 1,250,-1
 0 1413 l 1,251,-1
 0 1370 l 1,252,-1
 396 1765 l 1,253,254
 392 1789 392 1789 391 1807 c 1,250,-1
0 1691 m 1,255,-1
 356 2047 l 1,256,-1
 401 2047 l 1,257,-1
 0 1647 l 1,258,-1
 0 1691 l 1,255,-1
753 1847 m 2,259,260
 751 1848 751 1848 728 1866 c 1,261,-1
 909 2047 l 1,262,-1
 954 2047 l 1,263,-1
 753 1847 l 2,259,260
350 1487 m 1,264,-1
 0 1136 l 1,265,-1
 0 1094 l 1,266,-1
 339 1432 l 1,267,268
 339 1438 339 1438 340.5 1445.5 c 128,-1,269
 342 1453 342 1453 343 1462 c 0,270,271
 343 1468 343 1468 350 1487 c 1,264,-1
1049 1868 m 1,272,273
 1034 1884 1034 1884 1029 1891 c 1,274,-1
 1185 2047 l 1,275,-1
 1230 2047 l 1,276,-1
 1049 1868 l 1,272,273
103 962 m 1,277,278
 90 937 90 937 80 894 c 1,279,-1
 0 814 l 1,280,-1
 0 858 l 1,281,-1
 103 962 l 1,277,278
1422 1682 m 1,282,283
 1416 1686 1416 1686 1391 1699 c 1,284,-1
 1738 2047 l 1,285,-1
 1783 2047 l 1,286,-1
 1422 1682 l 1,282,283
236 546 m 1,287,288
 242 542 242 542 251 538 c 128,-1,289
 260 534 260 534 269 530 c 1,290,-1
 0 261 l 1,291,-1
 0 309 l 1,292,-1
 236 546 l 1,287,288
1949 0 m 1,293,-1
 1906 0 l 1,294,-1
 2048 140 l 1,295,-1
 2048 95 l 1,296,-1
 1949 0 l 1,293,-1
0 1923 m 1,297,-1
 0 1967 l 1,298,-1
 79 2047 l 1,299,-1
 124 2047 l 1,300,-1
 0 1923 l 1,297,-1
1964 285 m 1,301,-1
 1964 332 l 1,302,-1
 2048 416 l 1,303,-1
 2048 370 l 1,304,-1
 1964 285 l 1,301,-1
1962 559 m 1,305,306
 1960 587 1960 587 1960 604 c 1,307,-1
 2048 691 l 1,308,-1
 2048 646 l 1,309,-1
 1962 559 l 1,305,306
1941 816 m 1,310,311
 1939 830 1939 830 1935 856 c 1,312,-1
 2048 970 l 1,313,-1
 2048 923 l 1,314,-1
 1941 816 l 1,310,311
1893 1048 m 1,315,316
 1887 1071 1887 1071 1881 1086 c 1,317,-1
 2048 1251 l 1,318,-1
 2048 1206 l 1,319,-1
 1893 1048 l 1,315,316
1813 1249 m 1,320,321
 1808 1261 1808 1261 1798 1278 c 1,322,-1
 2048 1528 l 1,323,-1
 2048 1483 l 1,324,-1
 1813 1249 l 1,320,321
1710 1422 m 1,325,326
 1692 1446 1692 1446 1692 1446 c 1,327,-1
 2048 1804 l 1,328,-1
 2048 1759 l 1,329,-1
 1710 1422 l 1,325,326
567 326 m 1,330,331
 563 303 563 303 562 274 c 1,332,-1
 286 0 l 1,333,-1
 241 0 l 1,334,-1
 567 326 l 1,330,331
1581 1568 m 1,335,336
 1569 1579 1569 1579 1556 1590 c 1,337,-1
 2015 2047 l 1,338,339
 2048 2047 2048 2047 2048 2040 c 1,340,-1
 1581 1568 l 1,335,336
442 473 m 1,341,342
 463 467 463 467 481 469 c 1,343,-1
 13 0 l 1,344,345
 0 0 0 0 0 32 c 1,346,-1
 442 473 l 1,341,342
EndSplineSet
EndChar

StartChar: ecircumflex
Encoding: 234 234 162
Width: 2048
Flags: W
LayerCount: 2
Fore
SplineSet
1059 505 m 1,0,1
 1059 439 1059 439 1089.5 392.5 c 128,-1,2
 1120 346 1120 346 1155 320 c 0,3,4
 1210 280 1210 280 1316 280 c 0,5,6
 1342 280 1342 280 1418 291 c 0,7,8
 1480 301 1480 301 1518 305.5 c 128,-1,9
 1556 310 1556 310 1569 313 c 0,10,11
 1607 318 1607 318 1649 311 c 0,12,13
 1665 307 1665 307 1684.5 303.5 c 128,-1,14
 1704 300 1704 300 1717 288 c 1,15,-1
 1765 366 l 1,16,17
 1724 387 1724 387 1678 395 c 0,18,19
 1602 408 1602 408 1545 401 c 0,20,21
 1528 399 1528 399 1500.5 391 c 128,-1,22
 1473 383 1473 383 1426 376 c 0,23,24
 1325 360 1325 360 1319 360 c 0,25,26
 1280 360 1280 360 1251 370 c 128,-1,27
 1222 380 1222 380 1199 392 c 0,28,29
 1146 416 1146 416 1091 505 c 1,30,-1
 1059 505 l 1,0,1
1024 392 m 1,31,32
 1010 335 1010 335 990 313 c 128,-1,33
 970 291 970 291 937 267 c 0,34,35
 901 242 901 242 852 224.5 c 128,-1,36
 803 207 803 207 743 216 c 2,37,-1
 462 255 l 2,38,39
 445 257 445 257 431.5 255 c 128,-1,40
 418 253 418 253 406 253 c 0,41,42
 385 253 385 253 352.5 243.5 c 128,-1,43
 320 234 320 234 302 216 c 1,44,-1
 205 375 l 1,45,46
 223 395 223 395 237 403 c 128,-1,47
 251 411 251 411 270 420 c 0,48,49
 328 447 328 447 394 453 c 0,50,51
 422 455 422 455 449 454 c 128,-1,52
 476 453 476 453 505 456 c 1,53,54
 559 447 559 447 613.5 439.5 c 128,-1,55
 668 432 668 432 723 424 c 1,56,57
 783 424 783 424 804 436 c 0,58,59
 815 442 815 442 839 458 c 128,-1,60
 863 474 863 474 887 505 c 1,61,62
 834 511 834 511 779 525.5 c 128,-1,63
 724 540 724 540 682 556 c 1,64,-1
 786 814 l 1,65,66
 708 859 708 859 677 886.5 c 128,-1,67
 646 914 646 914 628 950 c 0,68,69
 602 996 602 996 594.5 1039 c 128,-1,70
 587 1082 587 1082 588 1116 c 0,71,72
 589 1176 589 1176 616.5 1248.5 c 128,-1,73
 644 1321 644 1321 720 1378 c 0,74,75
 783 1426 783 1426 843 1477 c 128,-1,76
 903 1528 903 1528 962 1596 c 1,77,78
 888 1634 888 1634 888 1717 c 0,79,80
 888 1773 888 1773 927.5 1813 c 128,-1,81
 967 1853 967 1853 1024 1853 c 0,82,83
 1080 1853 1080 1853 1120 1813 c 128,-1,84
 1160 1773 1160 1773 1160 1717 c 0,85,86
 1160 1635 1160 1635 1086 1596 c 1,87,88
 1144 1528 1144 1528 1203.5 1477 c 128,-1,89
 1263 1426 1263 1426 1328 1378 c 0,90,91
 1403 1321 1403 1321 1430 1248.5 c 128,-1,92
 1457 1176 1457 1176 1459 1116 c 0,93,94
 1459 1082 1459 1082 1452 1039 c 128,-1,95
 1445 996 1445 996 1420 950 c 0,96,97
 1400 914 1400 914 1369.5 886.5 c 128,-1,98
 1339 859 1339 859 1262 814 c 1,99,-1
 1366 556 l 1,100,101
 1322 540 1322 540 1267 525.5 c 128,-1,102
 1212 511 1212 511 1161 505 c 1,103,104
 1184 474 1184 474 1208 458 c 128,-1,105
 1232 442 1232 442 1244 436 c 0,106,107
 1265 424 1265 424 1325 424 c 1,108,109
 1379 432 1379 432 1433.5 439.5 c 128,-1,110
 1488 447 1488 447 1543 456 c 1,111,112
 1570 453 1570 453 1597.5 454 c 128,-1,113
 1625 455 1625 455 1654 453 c 0,114,115
 1718 447 1718 447 1778 420 c 0,116,117
 1796 411 1796 411 1810.5 403 c 128,-1,118
 1825 395 1825 395 1843 375 c 1,119,-1
 1745 216 l 1,120,121
 1727 234 1727 234 1694.5 243.5 c 128,-1,122
 1662 253 1662 253 1642 253 c 0,123,124
 1629 253 1629 253 1615.5 255 c 128,-1,125
 1602 257 1602 257 1585 255 c 2,126,-1
 1305 216 l 2,127,128
 1245 207 1245 207 1193.5 224 c 128,-1,129
 1142 241 1142 241 1109 269 c 0,130,131
 1076 296 1076 296 1056.5 315.5 c 128,-1,132
 1037 335 1037 335 1024 392 c 1,31,32
988 505 m 1,133,-1
 956 505 l 1,134,135
 900 415 900 415 849 392 c 0,136,137
 825 380 825 380 796 370 c 128,-1,138
 767 360 767 360 729 360 c 0,139,140
 722 360 722 360 622 376 c 0,141,142
 574 383 574 383 546 391 c 128,-1,143
 518 399 518 399 502 401 c 0,144,145
 445 408 445 408 369 395 c 0,146,147
 323 387 323 387 283 366 c 1,148,-1
 331 288 l 1,149,150
 343 300 343 300 362.5 303.5 c 128,-1,151
 382 307 382 307 398 311 c 0,152,153
 440 318 440 318 478 313 c 0,154,155
 491 310 491 310 529 305.5 c 128,-1,156
 567 301 567 301 630 291 c 0,157,158
 705 280 705 280 732 280 c 0,159,160
 837 280 837 280 893 320 c 0,161,162
 927 346 927 346 957.5 392.5 c 128,-1,163
 988 439 988 439 988 505 c 1,133,-1
1024 882 m 0,164,165
 1121 882 1121 882 1210 867 c 1,166,167
 1308 902 1308 902 1352 976 c 0,168,169
 1390 1040 1390 1040 1390 1117 c 0,170,171
 1390 1163 1390 1163 1367 1218.5 c 128,-1,172
 1344 1274 1344 1274 1292 1319 c 0,173,174
 1233 1368 1233 1368 1163 1426.5 c 128,-1,175
 1093 1485 1093 1485 1024 1563 c 1,176,177
 954 1485 954 1485 884 1426.5 c 128,-1,178
 814 1368 814 1368 756 1319 c 0,179,180
 703 1274 703 1274 680.5 1218.5 c 128,-1,181
 658 1163 658 1163 658 1117 c 0,182,183
 658 1040 658 1040 695 976 c 0,184,185
 738 902 738 902 838 867 c 1,186,187
 926 882 926 882 1024 882 c 0,164,165
1024 700 m 0,188,189
 1141 700 1141 700 1249 677 c 1,190,-1
 1201 800 l 1,191,192
 1113 814 1113 814 1024 814 c 0,193,194
 933 814 933 814 846 800 c 1,195,-1
 798 677 l 1,196,197
 905 700 905 700 1024 700 c 0,188,189
1024 1649 m 256,198,199
 1092 1649 1092 1649 1092 1717 c 256,200,201
 1092 1785 1092 1785 1024 1785 c 256,202,203
 956 1785 956 1785 956 1717 c 256,204,205
 956 1649 956 1649 1024 1649 c 256,198,199
1024 560 m 0,206,207
 1092 560 1092 560 1156.5 571.5 c 128,-1,208
 1221 583 1221 583 1281 599 c 1,209,210
 1164 630 1164 630 1024 630 c 0,211,212
 882 630 882 630 767 599 c 1,213,214
 825 583 825 583 890 571.5 c 128,-1,215
 955 560 955 560 1024 560 c 0,206,207
988 1138 m 1,216,-1
 905 1139 l 2,217,218
 871 1139 871 1139 871 1173 c 1,219,-1
 871 1173 l 1,220,221
 871 1207 871 1207 905 1207 c 2,222,-1
 988 1207 l 1,223,-1
 988 1293 l 2,224,225
 988 1328 988 1328 1024 1328 c 1,226,-1
 1024 1328 l 1,227,228
 1059 1328 1059 1328 1059 1293 c 2,229,-1
 1059 1207 l 1,230,-1
 1145 1207 l 2,231,232
 1178 1207 1178 1207 1178 1173 c 1,233,-1
 1178 1173 l 1,234,235
 1178 1139 1178 1139 1145 1139 c 2,236,-1
 1059 1139 l 1,237,-1
 1059 1057 l 2,238,239
 1059 1021 1059 1021 1024 1021 c 1,240,-1
 1024 1021 l 1,241,242
 988 1021 988 1021 988 1057 c 2,243,-1
 988 1138 l 1,216,-1
1503 149 m 1,244,-1
 1552 149 l 1,245,-1
 1402 0 l 1,246,-1
 1353 0 l 1,247,-1
 1503 149 l 1,244,-1
1227 149 m 1,248,-1
 1274 150 l 1,249,-1
 1124 0 l 1,250,-1
 1077 0 l 1,251,-1
 1227 149 l 1,248,-1
944 149 m 1,252,-1
 989 149 l 1,253,-1
 839 0 l 1,254,-1
 794 0 l 1,255,-1
 944 149 l 1,252,-1
668 149 m 1,256,-1
 715 149 l 1,257,-1
 563 0 l 1,258,-1
 518 0 l 1,259,-1
 668 149 l 1,256,-1
392 149 m 1,260,-1
 436 149 l 1,261,-1
 286 0 l 1,262,-1
 241 0 l 1,263,-1
 392 149 l 1,260,-1
1238 1778 m 1,264,265
 1232 1792 1232 1792 1224 1810 c 1,266,-1
 1462 2047 l 1,267,-1
 1507 2047 l 1,268,-1
 1238 1778 l 1,264,265
502 1086 m 1,269,270
 502 1073 502 1073 506 1043 c 1,271,-1
 0 537 l 1,272,-1
 0 585 l 1,273,-1
 502 1086 l 1,269,270
0 1413 m 1,274,-1
 632 2047 l 1,275,-1
 677 2047 l 1,276,-1
 0 1370 l 1,277,-1
 0 1413 l 1,274,-1
0 1691 m 1,278,-1
 356 2047 l 1,279,-1
 401 2047 l 1,280,-1
 0 1647 l 1,281,-1
 0 1691 l 1,278,-1
0 1136 m 1,282,-1
 909 2047 l 1,283,-1
 954 2047 l 1,284,-1
 0 1094 l 1,285,-1
 0 1136 l 1,282,-1
1102 1919 m 1,286,287
 1086 1925 1086 1925 1068 1929 c 1,288,-1
 1185 2047 l 1,289,-1
 1230 2047 l 1,290,-1
 1102 1919 l 1,286,287
804 1664 m 1,291,-1
 0 858 l 1,292,-1
 0 814 l 1,293,-1
 814 1629 l 1,294,295
 810 1640 810 1640 804 1664 c 1,291,-1
1263 1527 m 1,296,297
 1255 1533 1255 1533 1239 1547 c 1,298,-1
 1738 2047 l 1,299,-1
 1783 2047 l 1,300,-1
 1263 1527 l 1,296,297
570 878 m 1,301,302
 584 862 584 862 592 854 c 1,303,-1
 0 261 l 1,304,-1
 0 309 l 1,305,-1
 570 878 l 1,301,302
1949 0 m 1,306,-1
 1906 0 l 1,307,-1
 2048 140 l 1,308,-1
 2048 95 l 1,309,-1
 1949 0 l 1,306,-1
0 1923 m 1,310,-1
 0 1967 l 1,311,-1
 79 2047 l 1,312,-1
 124 2047 l 1,313,-1
 0 1923 l 1,310,-1
1630 0 m 1,314,-1
 2048 416 l 1,315,-1
 2048 370 l 1,316,-1
 1677 0 l 1,317,-1
 1630 0 l 1,314,-1
1878 474 m 1,318,319
 1869 481 1869 481 1849 493 c 1,320,-1
 2048 691 l 1,321,-1
 2048 646 l 1,322,-1
 1878 474 l 1,318,319
1668 544 m 1,323,324
 1653 545 1653 545 1622 545 c 1,325,-1
 2048 970 l 1,326,-1
 2048 923 l 1,327,-1
 1668 544 l 1,323,324
1446 605 m 1,328,-1
 1433 637 l 1,329,-1
 2048 1251 l 1,330,-1
 2048 1206 l 1,331,-1
 1446 605 l 1,328,-1
1518 953 m 1,332,333
 1529 980 1529 980 1537 1018 c 1,334,-1
 2048 1528 l 1,335,-1
 2048 1483 l 1,336,-1
 1518 953 l 1,332,333
1525 1236 m 1,337,338
 1521 1247 1521 1247 1513 1268 c 1,339,-1
 2048 1804 l 1,340,-1
 2048 1759 l 1,341,-1
 1525 1236 l 1,337,338
1415 1405 m 1,342,343
 1407 1413 1407 1413 1392 1423 c 1,344,-1
 2015 2047 l 1,345,346
 2048 2047 2048 2047 2048 2040 c 1,347,-1
 1415 1405 l 1,342,343
621 652 m 1,348,-1
 591 579 l 1,349,-1
 552 540 l 1,350,351
 542 540 542 540 515 545 c 1,352,-1
 621 652 l 1,348,-1
196 228 m 1,353,-1
 213 200 l 1,354,-1
 13 0 l 1,355,356
 0 0 0 0 0 32 c 1,357,-1
 196 228 l 1,353,-1
EndSplineSet
EndChar

StartChar: edieresis
Encoding: 235 235 163
Width: 2048
Flags: W
LayerCount: 2
Fore
SplineSet
1349 1365 m 1,0,-1
 1476 1468 l 1,1,-1
 572 1468 l 1,2,-1
 700 1365 l 1,3,-1
 1349 1365 l 1,0,-1
1459 649 m 1,4,-1
 1356 751 l 1,5,-1
 693 751 l 1,6,-1
 588 649 l 1,7,-1
 1459 649 l 1,4,-1
1536 1536 m 1,8,-1
 1536 1775 l 1,9,-1
 1399 1775 l 1,10,-1
 1399 1638 l 1,11,-1
 1091 1638 l 1,12,-1
 1091 1775 l 1,13,-1
 956 1775 l 1,14,-1
 956 1638 l 1,15,-1
 649 1638 l 1,16,-1
 649 1775 l 1,17,-1
 512 1775 l 1,18,-1
 512 1536 l 1,19,-1
 1536 1536 l 1,8,-1
1314 1297 m 1,20,-1
 734 1297 l 1,21,-1
 734 819 l 1,22,-1
 1314 819 l 1,23,-1
 1314 1297 l 1,20,-1
1484 580 m 1,24,-1
 564 580 l 1,25,-1
 564 444 l 1,26,-1
 1484 444 l 1,27,-1
 1484 580 l 1,24,-1
1639 376 m 1,28,-1
 409 376 l 1,29,-1
 409 273 l 1,30,-1
 1639 273 l 1,31,-1
 1639 376 l 1,28,-1
1161 1706 m 1,32,-1
 1331 1706 l 1,33,-1
 1331 1843 l 1,34,-1
 1605 1843 l 1,35,-1
 1605 1468 l 1,36,-1
 1383 1297 l 1,37,-1
 1383 819 l 1,38,-1
 1553 649 l 1,39,-1
 1553 444 l 1,40,-1
 1706 444 l 1,41,-1
 1706 205 l 1,42,-1
 341 205 l 1,43,-1
 341 444 l 1,44,-1
 494 444 l 1,45,-1
 494 649 l 1,46,-1
 665 819 l 1,47,-1
 665 1297 l 1,48,-1
 443 1468 l 1,49,-1
 443 1843 l 1,50,-1
 716 1843 l 1,51,-1
 716 1706 l 1,52,-1
 887 1706 l 1,53,-1
 887 1843 l 1,54,-1
 1161 1843 l 1,55,-1
 1161 1706 l 1,32,-1
360 1774 m 1,56,-1
 0 1413 l 1,57,-1
 0 1370 l 1,58,-1
 360 1730 l 1,59,-1
 360 1774 l 1,56,-1
359 1497 m 1,60,-1
 0 1136 l 1,61,-1
 0 1094 l 1,62,-1
 359 1452 l 1,63,-1
 359 1497 l 1,60,-1
580 1118 m 1,64,-1
 0 537 l 1,65,-1
 0 585 l 1,66,-1
 580 1165 l 1,67,-1
 580 1118 l 1,64,-1
579 842 m 1,68,-1
 579 888 l 1,69,-1
 0 309 l 1,70,-1
 0 261 l 1,71,-1
 579 842 l 1,68,-1
253 285 m 1,72,-1
 253 239 l 1,73,-1
 13 0 l 1,74,75
 0 0 0 0 0 32 c 1,76,-1
 253 285 l 1,72,-1
637 119 m 1,77,-1
 683 119 l 1,78,-1
 563 0 l 1,79,-1
 518 0 l 1,80,-1
 637 119 l 1,77,-1
913 119 m 1,81,-1
 957 119 l 1,82,-1
 839 0 l 1,83,-1
 794 0 l 1,84,-1
 913 119 l 1,81,-1
1198 119 m 1,85,-1
 1244 119 l 1,86,-1
 1124 0 l 1,87,-1
 1077 0 l 1,88,-1
 1198 119 l 1,85,-1
1791 390 m 1,89,-1
 1792 436 l 1,90,-1
 2048 691 l 1,91,-1
 2048 646 l 1,92,-1
 1791 390 l 1,89,-1
1468 905 m 1,93,-1
 1469 949 l 1,94,-1
 2048 1528 l 1,95,-1
 2048 1483 l 1,96,-1
 1468 905 l 1,93,-1
1468 1182 m 1,97,-1
 1468 1225 l 1,98,-1
 2048 1804 l 1,99,-1
 2048 1759 l 1,100,-1
 1468 1182 l 1,97,-1
1688 1681 m 1,101,-1
 1688 1720 l 1,102,-1
 2015 2047 l 1,103,104
 2048 2047 2048 2047 2048 2040 c 1,105,-1
 1688 1681 l 1,101,-1
1386 1927 m 1,106,-1
 1342 1927 l 1,107,-1
 1462 2047 l 1,108,-1
 1507 2047 l 1,109,-1
 1386 1927 l 1,106,-1
1111 1927 m 1,110,-1
 1067 1927 l 1,111,-1
 1185 2047 l 1,112,-1
 1230 2047 l 1,113,-1
 1111 1927 l 1,110,-1
835 1928 m 1,114,-1
 788 1927 l 1,115,-1
 909 2047 l 1,116,-1
 954 2047 l 1,117,-1
 835 1928 l 1,114,-1
0 1691 m 1,118,-1
 356 2047 l 1,119,-1
 401 2047 l 1,120,-1
 0 1647 l 1,121,-1
 0 1691 l 1,118,-1
504 1317 m 1,122,-1
 0 814 l 1,123,-1
 0 858 l 1,124,-1
 478 1338 l 1,125,-1
 504 1317 l 1,122,-1
1949 0 m 1,126,-1
 1906 0 l 1,127,-1
 2048 140 l 1,128,-1
 2048 95 l 1,129,-1
 1949 0 l 1,126,-1
0 1923 m 1,130,-1
 0 1967 l 1,131,-1
 79 2047 l 1,132,-1
 124 2047 l 1,133,-1
 0 1923 l 1,130,-1
1630 0 m 1,134,-1
 2048 416 l 1,135,-1
 2048 370 l 1,136,-1
 1677 0 l 1,137,-1
 1630 0 l 1,134,-1
1522 119 m 1,138,-1
 1402 0 l 1,139,-1
 1353 0 l 1,140,-1
 1474 119 l 1,141,-1
 1522 119 l 1,138,-1
1579 736 m 1,142,-1
 1555 760 l 1,143,-1
 2048 1251 l 1,144,-1
 2048 1206 l 1,145,-1
 1579 736 l 1,142,-1
1639 516 m 1,146,-1
 1639 562 l 1,147,-1
 2048 970 l 1,148,-1
 2048 923 l 1,149,-1
 1639 516 l 1,146,-1
1663 1927 m 1,150,-1
 1618 1927 l 1,151,-1
 1738 2047 l 1,152,-1
 1783 2047 l 1,153,-1
 1663 1927 l 1,150,-1
361 119 m 1,154,-1
 405 119 l 1,155,-1
 286 0 l 1,156,-1
 241 0 l 1,157,-1
 361 119 l 1,154,-1
557 1928 m 1,158,-1
 512 1928 l 1,159,-1
 632 2047 l 1,160,-1
 677 2047 l 1,161,-1
 557 1928 l 1,158,-1
EndSplineSet
EndChar

StartChar: igrave
Encoding: 236 236 164
Width: 2048
Flags: W
LayerCount: 2
Fore
SplineSet
1814 1461 m 0,0,1
 1757 1461 1757 1461 1717 1500.5 c 128,-1,2
 1677 1540 1677 1540 1677 1597 c 0,3,4
 1677 1653 1677 1653 1717 1693.5 c 128,-1,5
 1757 1734 1757 1734 1814 1734 c 0,6,7
 1870 1734 1870 1734 1910 1693.5 c 128,-1,8
 1950 1653 1950 1653 1950 1597 c 0,9,10
 1950 1540 1950 1540 1910 1500.5 c 128,-1,11
 1870 1461 1870 1461 1814 1461 c 0,0,1
1814 1531 m 0,12,13
 1880 1531 1880 1531 1880 1597 c 0,14,15
 1880 1664 1880 1664 1814 1664 c 0,16,17
 1747 1664 1747 1664 1747 1597 c 0,18,19
 1747 1531 1747 1531 1814 1531 c 0,12,13
236 1531 m 0,20,21
 303 1531 303 1531 303 1597 c 0,22,23
 303 1664 303 1664 236 1664 c 0,24,25
 170 1664 170 1664 170 1597 c 0,26,27
 170 1531 170 1531 236 1531 c 0,20,21
236 1461 m 256,28,29
 179 1461 179 1461 139.5 1500.5 c 128,-1,30
 100 1540 100 1540 100 1597 c 0,31,32
 100 1653 100 1653 139.5 1693.5 c 128,-1,33
 179 1734 179 1734 236 1734 c 256,34,35
 293 1734 293 1734 333 1693.5 c 128,-1,36
 373 1653 373 1653 373 1597 c 0,37,38
 373 1540 373 1540 333 1500.5 c 128,-1,39
 293 1461 293 1461 236 1461 c 256,28,29
1444 1571 m 256,40,41
 1387 1571 1387 1571 1347.5 1610.5 c 128,-1,42
 1308 1650 1308 1650 1308 1707 c 0,43,44
 1308 1763 1308 1763 1347.5 1803 c 128,-1,45
 1387 1843 1387 1843 1444 1843 c 256,46,47
 1501 1843 1501 1843 1541 1803 c 128,-1,48
 1581 1763 1581 1763 1581 1707 c 0,49,50
 1581 1650 1581 1650 1541 1610.5 c 128,-1,51
 1501 1571 1501 1571 1444 1571 c 256,40,41
1444 1641 m 0,52,53
 1511 1641 1511 1641 1511 1707 c 256,54,55
 1511 1773 1511 1773 1444 1773 c 0,56,57
 1378 1773 1378 1773 1378 1707 c 256,58,59
 1378 1641 1378 1641 1444 1641 c 0,52,53
604 1641 m 0,60,61
 670 1641 670 1641 670 1707 c 256,62,63
 670 1773 670 1773 604 1773 c 0,64,65
 537 1773 537 1773 537 1707 c 256,66,67
 537 1641 537 1641 604 1641 c 0,60,61
604 1571 m 0,68,69
 547 1571 547 1571 507 1610.5 c 128,-1,70
 467 1650 467 1650 467 1707 c 0,71,72
 467 1763 467 1763 507 1803 c 128,-1,73
 547 1843 547 1843 604 1843 c 0,74,75
 660 1843 660 1843 700 1803 c 128,-1,76
 740 1763 740 1763 740 1707 c 0,77,78
 740 1650 740 1650 700 1610.5 c 128,-1,79
 660 1571 660 1571 604 1571 c 0,68,69
1559 319 m 1,80,81
 1376 395 1376 395 1028 395 c 0,82,83
 673 395 673 395 491 317 c 1,84,85
 666 248 666 248 1025 248 c 0,86,87
 1197 248 1197 248 1339.5 267 c 128,-1,88
 1482 286 1482 286 1559 319 c 1,80,81
1640 283 m 1,89,90
 1591 240 1591 240 1420 211 c 128,-1,91
 1249 182 1249 182 1026 182 c 0,92,93
 799 182 799 182 627 212 c 128,-1,94
 455 242 455 242 410 287 c 1,95,-1
 473 527 l 1,96,-1
 445 684 l 1,97,-1
 357 837 l 1,98,-1
 272 1459 l 1,99,-1
 321 1478 l 1,100,-1
 595 1016 l 1,101,-1
 601 1566 l 1,102,-1
 669 1578 l 1,103,-1
 878 1025 l 1,104,-1
 990 1620 l 1,105,-1
 1059 1620 l 1,106,-1
 1171 1027 l 1,107,-1
 1378 1578 l 1,108,-1
 1447 1566 l 1,109,-1
 1453 1016 l 1,110,-1
 1728 1479 l 1,111,-1
 1775 1457 l 1,112,-1
 1692 838 l 1,113,-1
 1603 685 l 1,114,-1
 1575 526 l 1,115,-1
 1640 283 l 1,89,90
1534 411 m 1,116,-1
 1504 524 l 1,117,118
 1308 567 1308 567 1024 567 c 0,119,120
 743 567 743 567 545 524 c 1,121,-1
 514 410 l 1,122,123
 700 466 700 466 1025 466 c 0,124,125
 1342 466 1342 466 1534 411 c 1,116,-1
1474 917 m 1,126,127
 1497 910 1497 910 1525 910 c 0,128,129
 1586 910 1586 910 1639 948 c 1,130,-1
 1694 1294 l 1,131,-1
 1474 917 l 1,126,127
571 922 m 1,132,-1
 356 1293 l 1,133,-1
 411 955 l 1,134,135
 468 915 468 915 522 915 c 0,136,137
 543 915 543 915 571 922 c 1,132,-1
825 978 m 1,138,-1
 661 1427 l 1,139,-1
 661 970 l 2,140,141
 664 974 664 974 670 980 c 0,142,143
 690 1022 690 1022 736 1022 c 0,144,145
 774 1022 774 1022 798 990 c 1,146,147
 825 978 825 978 825 978 c 1,138,-1
1387 964 m 1,148,-1
 1387 1427 l 1,149,-1
 1222 973 l 1,150,151
 1241 980 1241 980 1254 991 c 0,152,153
 1274 1016 1274 1016 1308 1016 c 0,154,155
 1348 1016 1348 1016 1372 981 c 0,156,157
 1375 977 1375 977 1379 972.5 c 128,-1,158
 1383 968 1383 968 1387 964 c 1,148,-1
1110 983 m 1,159,-1
 1025 1472 l 1,160,-1
 940 989 l 2,161,162
 943 991 943 991 954 999 c 1,163,164
 977 1044 977 1044 1024 1044 c 0,165,166
 1075 1044 1075 1044 1090 999 c 0,167,168
 1096 993 1096 993 1110 983 c 1,159,-1
1558 744 m 1,169,-1
 1623 859 l 1,170,171
 1575 840 1575 840 1525 840 c 0,172,173
 1391 840 1391 840 1311 949 c 1,174,175
 1251 899 1251 899 1177 899 c 0,176,177
 1081 899 1081 899 1024 974 c 1,178,179
 960 904 960 904 871 904 c 0,180,181
 799 904 799 904 739 953 c 1,182,183
 655 846 655 846 522 846 c 0,184,185
 471 846 471 846 421 865 c 1,186,-1
 491 745 l 1,187,188
 685 801 685 801 1024 801 c 0,189,190
 1369 801 1369 801 1558 744 c 1,169,-1
1533 684 m 1,191,192
 1340 733 1340 733 1028 733 c 0,193,194
 708 733 708 733 517 683 c 1,195,-1
 532 587 l 1,196,197
 727 633 727 633 1028 633 c 0,198,199
 1327 633 1327 633 1516 588 c 1,200,-1
 1533 684 l 1,191,192
1024 1691 m 0,201,202
 1091 1691 1091 1691 1091 1758 c 0,203,204
 1091 1824 1091 1824 1024 1824 c 0,205,206
 958 1824 958 1824 958 1758 c 0,207,208
 958 1691 958 1691 1024 1691 c 0,201,202
1024 1621 m 0,209,210
 967 1621 967 1621 927.5 1661 c 128,-1,211
 888 1701 888 1701 888 1758 c 0,212,213
 888 1814 888 1814 927.5 1854 c 128,-1,214
 967 1894 967 1894 1024 1894 c 0,215,216
 1080 1894 1080 1894 1120.5 1854 c 128,-1,217
 1161 1814 1161 1814 1161 1758 c 0,218,219
 1161 1701 1161 1701 1120.5 1661 c 128,-1,220
 1080 1621 1080 1621 1024 1621 c 0,209,210
1263 1804 m 1,221,-1
 1241 1782 l 1,222,223
 1239 1791 1239 1791 1237 1801 c 128,-1,224
 1235 1811 1235 1811 1234 1820 c 1,225,-1
 1462 2047 l 1,226,-1
 1507 2047 l 1,227,-1
 1343 1885 l 1,228,229
 1292 1858 1292 1858 1263 1804 c 1,221,-1
271 855 m 1,230,-1
 277 814 l 1,231,-1
 0 537 l 1,232,-1
 0 585 l 1,233,-1
 271 855 l 1,230,-1
407 1776 m 1,234,-1
 385 1755 l 1,235,236
 372 1768 372 1768 360 1777 c 1,237,-1
 632 2047 l 1,238,-1
 677 2047 l 1,239,-1
 531 1904 l 1,240,241
 433 1869 433 1869 407 1776 c 1,234,-1
58 1471 m 1,242,243
 62 1465 62 1465 78 1447 c 1,244,-1
 0 1370 l 1,245,-1
 0 1413 l 1,246,-1
 58 1471 l 1,242,243
152 1798 m 1,247,248
 71 1764 71 1764 37 1685 c 1,249,-1
 0 1647 l 1,250,-1
 0 1691 l 1,251,-1
 356 2047 l 1,252,-1
 401 2047 l 1,253,-1
 152 1798 l 1,247,248
764 1855 m 1,254,255
 752 1867 752 1867 739 1877 c 1,256,-1
 909 2047 l 1,257,-1
 954 2047 l 1,258,-1
 764 1855 l 1,254,255
205 1341 m 1,259,-1
 210 1303 l 1,260,-1
 0 1094 l 1,261,-1
 0 1136 l 1,262,-1
 205 1341 l 1,259,-1
1132 1947 m 1,263,264
 1110 1958 1110 1958 1099 1962 c 1,265,-1
 1185 2047 l 1,266,-1
 1230 2047 l 1,267,-1
 1132 1947 l 1,263,264
238 1097 m 1,268,-1
 243 1056 l 1,269,-1
 0 814 l 1,270,-1
 0 858 l 1,271,-1
 238 1097 l 1,268,-1
1598 1862 m 1,272,273
 1588 1872 1588 1872 1573 1881 c 1,274,-1
 1738 2047 l 1,275,-1
 1783 2047 l 1,276,-1
 1598 1862 l 1,272,273
358 667 m 1,277,-1
 376 636 l 1,278,-1
 0 261 l 1,279,-1
 0 309 l 1,280,-1
 358 667 l 1,277,-1
1949 0 m 1,281,-1
 1906 0 l 1,282,-1
 2048 140 l 1,283,-1
 2048 95 l 1,284,-1
 1949 0 l 1,281,-1
0 1923 m 1,285,-1
 0 1967 l 1,286,-1
 79 2047 l 1,287,-1
 124 2047 l 1,288,-1
 0 1923 l 1,285,-1
1630 0 m 1,289,-1
 2048 416 l 1,290,-1
 2048 370 l 1,291,-1
 1677 0 l 1,292,-1
 1630 0 l 1,289,-1
1724 319 m 1,293,-1
 1714 357 l 1,294,-1
 2048 691 l 1,295,-1
 2048 646 l 1,296,-1
 1724 319 l 1,293,-1
1503 149 m 1,297,298
 1539 157 1539 157 1565 164 c 1,299,-1
 1402 0 l 1,300,-1
 1353 0 l 1,301,-1
 1503 149 l 1,297,298
1646 520 m 1,302,-1
 1657 580 l 1,303,-1
 2048 970 l 1,304,-1
 2048 923 l 1,305,-1
 1646 520 l 1,302,-1
1189 111 m 1,306,307
 1216 114 1216 114 1240 114 c 1,308,-1
 1124 0 l 1,309,-1
 1077 0 l 1,310,-1
 1189 111 l 1,306,307
1791 950 m 1,311,-1
 1799 1003 l 1,312,-1
 2048 1251 l 1,313,-1
 2048 1206 l 1,314,-1
 1791 950 l 1,311,-1
948 109 m 1,315,-1
 839 0 l 1,316,-1
 794 0 l 1,317,-1
 903 110 l 1,318,319
 933 110 933 110 948 109 c 1,315,-1
1835 1270 m 1,320,-1
 1842 1323 l 1,321,-1
 2048 1528 l 1,322,-1
 2048 1483 l 1,323,-1
 1835 1270 l 1,320,-1
649 131 m 1,324,325
 659 130 659 130 689 126 c 1,326,-1
 563 0 l 1,327,-1
 518 0 l 1,328,-1
 649 131 l 1,324,325
2000 1712 m 1,329,330
 1994 1720 1994 1720 1981 1736 c 1,331,-1
 2048 1804 l 1,332,-1
 2048 1759 l 1,333,-1
 2000 1712 l 1,329,330
427 184 m 1,334,335
 442 176 442 176 460 172 c 1,336,-1
 286 0 l 1,337,-1
 241 0 l 1,338,-1
 427 184 l 1,334,335
1824 1814 m 1,339,340
 1818 1816 1818 1816 1814 1816 c 0,341,342
 1794 1816 1794 1816 1780 1812 c 1,343,-1
 2015 2047 l 1,344,345
 2048 2047 2048 2047 2048 2040 c 1,346,-1
 1824 1814 l 1,339,340
338 369 m 1,347,-1
 0 32 l 1,348,349
 0 0 0 0 13 0 c 1,350,-1
 322 308 l 1,351,-1
 338 369 l 1,347,-1
EndSplineSet
EndChar

StartChar: iacute
Encoding: 237 237 165
Width: 2048
Flags: W
LayerCount: 2
Fore
SplineSet
427 184 m 1,0,1
 442 176 442 176 460 172 c 1,2,-1
 286 0 l 1,3,-1
 241 0 l 1,4,-1
 427 184 l 1,0,1
649 131 m 1,5,6
 659 130 659 130 689 126 c 1,7,-1
 563 0 l 1,8,-1
 518 0 l 1,9,-1
 649 131 l 1,5,6
948 109 m 1,10,-1
 839 0 l 1,11,-1
 794 0 l 1,12,-1
 903 110 l 1,13,14
 933 110 933 110 948 109 c 1,10,-1
1189 111 m 1,15,16
 1216 114 1216 114 1240 114 c 1,17,-1
 1124 0 l 1,18,-1
 1077 0 l 1,19,-1
 1189 111 l 1,15,16
1503 149 m 1,20,21
 1539 157 1539 157 1565 164 c 1,22,-1
 1402 0 l 1,23,-1
 1353 0 l 1,24,-1
 1503 149 l 1,20,21
1103 1919 m 1,25,26
 1089 1931 1089 1931 1074 1935 c 1,27,-1
 1185 2047 l 1,28,-1
 1230 2047 l 1,29,-1
 1103 1919 l 1,25,26
1233 1771 m 1,30,31
 1226 1788 1226 1788 1212 1798 c 1,32,-1
 1462 2047 l 1,33,-1
 1507 2047 l 1,34,-1
 1233 1771 l 1,30,31
834 1649 m 1,35,36
 820 1663 820 1663 812 1675 c 1,37,-1
 626 1487 l 1,38,39
 660 1477 660 1477 663 1477 c 2,40,-1
 834 1649 l 1,35,36
199 787 m 1,41,42
 205 780 205 780 223 760 c 1,43,-1
 0 537 l 1,44,-1
 0 585 l 1,45,-1
 199 787 l 1,41,42
0 1413 m 1,46,-1
 632 2047 l 1,47,-1
 677 2047 l 1,48,-1
 0 1370 l 1,49,-1
 0 1413 l 1,46,-1
0 1691 m 1,50,-1
 356 2047 l 1,51,-1
 401 2047 l 1,52,-1
 0 1647 l 1,53,-1
 0 1691 l 1,50,-1
399 1492 m 1,54,55
 366 1483 366 1483 329 1466 c 1,56,-1
 909 2047 l 1,57,-1
 954 2047 l 1,58,-1
 399 1492 l 1,54,55
142 1285 m 1,59,60
 121 1246 121 1246 109 1202 c 1,61,-1
 0 1094 l 1,62,-1
 0 1136 l 1,63,-1
 142 1285 l 1,59,60
110 967 m 1,64,65
 113 958 113 958 114.5 949.5 c 128,-1,66
 116 941 116 941 119 933 c 1,67,-1
 0 814 l 1,68,-1
 0 858 l 1,69,-1
 110 967 l 1,64,65
1254 1515 m 1,70,71
 1246 1526 1246 1526 1233 1542 c 1,72,-1
 1738 2047 l 1,73,-1
 1783 2047 l 1,74,-1
 1254 1515 l 1,70,71
349 659 m 1,75,-1
 357 617 l 1,76,-1
 0 261 l 1,77,-1
 0 309 l 1,78,-1
 349 659 l 1,75,-1
1949 0 m 1,79,-1
 1906 0 l 1,80,-1
 2048 140 l 1,81,-1
 2048 95 l 1,82,-1
 1949 0 l 1,79,-1
0 1923 m 1,83,-1
 0 1967 l 1,84,-1
 79 2047 l 1,85,-1
 124 2047 l 1,86,-1
 0 1923 l 1,83,-1
1630 0 m 1,87,-1
 2048 416 l 1,88,-1
 2048 370 l 1,89,-1
 1677 0 l 1,90,-1
 1630 0 l 1,87,-1
1717 314 m 1,91,-1
 1708 352 l 1,92,-1
 2048 691 l 1,93,-1
 2048 646 l 1,94,-1
 1717 314 l 1,91,-1
1681 557 m 1,95,-1
 1691 613 l 1,96,-1
 2048 970 l 1,97,-1
 2048 923 l 1,98,-1
 1681 557 l 1,95,-1
1953 1111 m 1,99,100
 1953 1121 1953 1121 1951.5 1132 c 128,-1,101
 1950 1143 1950 1143 1950 1154 c 1,102,-1
 2048 1251 l 1,103,-1
 2048 1206 l 1,104,-1
 1953 1111 l 1,99,100
1884 1320 m 1,105,106
 1877 1327 1877 1327 1865 1345 c 1,107,-1
 2048 1528 l 1,108,-1
 2048 1483 l 1,109,-1
 1884 1320 l 1,105,106
1742 1454 m 1,110,111
 1735 1458 1735 1458 1713 1471 c 1,112,-1
 2048 1804 l 1,113,-1
 2048 1759 l 1,114,-1
 1742 1454 l 1,110,111
1514 1505 m 1,115,116
 1488 1502 1488 1502 1466 1499 c 1,117,-1
 2015 2047 l 1,118,119
 2048 2047 2048 2047 2048 2040 c 1,120,-1
 1514 1505 l 1,115,116
350 381 m 1,121,-1
 333 320 l 1,122,-1
 13 0 l 1,123,124
 0 0 0 0 0 32 c 1,125,-1
 350 381 l 1,121,-1
1059 1559 m 1,126,-1
 988 1559 l 1,127,-1
 988 1690 l 1,128,-1
 905 1690 l 2,129,130
 871 1690 871 1690 871 1723 c 2,131,-1
 871 1724 l 2,132,133
 871 1757 871 1757 905 1757 c 2,134,-1
 988 1757 l 1,135,-1
 988 1842 l 2,136,137
 988 1877 988 1877 1024 1877 c 1,138,-1
 1024 1877 l 1,139,140
 1059 1877 1059 1877 1059 1842 c 2,141,-1
 1059 1757 l 1,142,-1
 1145 1757 l 2,143,144
 1178 1757 1178 1757 1178 1724 c 2,145,-1
 1178 1723 l 2,146,147
 1178 1690 1178 1690 1145 1690 c 2,148,-1
 1060 1689 l 1,149,-1
 1059 1559 l 1,126,-1
1058 853 m 1,150,151
 1230 851 1230 851 1373 832.5 c 128,-1,152
 1516 814 1516 814 1597 786 c 1,153,154
 1635 816 1635 816 1680 852.5 c 128,-1,155
 1725 889 1725 889 1755 927 c 0,156,157
 1803 988 1803 988 1803 1088 c 0,158,159
 1803 1178 1803 1178 1760 1238 c 0,160,161
 1683 1350 1683 1350 1526 1350 c 0,162,163
 1432 1350 1432 1350 1333 1311 c 0,164,165
 1246 1276 1246 1276 1201 1233 c 0,166,167
 1117 1149 1117 1149 1077 1017 c 0,168,169
 1063 970 1063 970 1060.5 931.5 c 128,-1,170
 1058 893 1058 893 1058 853 c 1,150,151
1024 1039 m 1,171,172
 1031 1067 1031 1067 1036 1078 c 0,173,174
 1046 1117 1046 1117 1059 1144 c 0,175,176
 1065 1161 1065 1161 1076.5 1183.5 c 128,-1,177
 1088 1206 1088 1206 1101 1235 c 0,178,179
 1109 1252 1109 1252 1118 1276.5 c 128,-1,180
 1127 1301 1127 1301 1136 1325 c 0,181,182
 1144 1345 1144 1345 1144 1368 c 0,183,184
 1144 1417 1144 1417 1109 1451.5 c 128,-1,185
 1074 1486 1074 1486 1024 1486 c 0,186,187
 905 1486 905 1486 905 1367 c 0,188,189
 905 1344 905 1344 913 1324 c 0,190,191
 935 1259 935 1259 947 1234 c 0,192,193
 960 1205 960 1205 971 1182.5 c 128,-1,194
 982 1160 982 1160 990 1143 c 0,195,196
 1003 1110 1003 1110 1012 1077 c 0,197,198
 1014 1071 1014 1071 1024 1039 c 1,171,172
989 853 m 1,199,200
 988 892 988 892 986 930.5 c 128,-1,201
 984 969 984 969 971 1016 c 0,202,203
 930 1150 930 1150 847 1232 c 0,204,205
 804 1274 804 1274 715 1310 c 0,206,207
 613 1350 613 1350 522 1350 c 0,208,209
 364 1350 364 1350 288 1237 c 0,210,211
 245 1177 245 1177 245 1087 c 0,212,213
 245 989 245 989 293 926 c 0,214,215
 322 889 322 889 367 852 c 128,-1,216
 412 815 412 815 451 785 c 1,217,218
 626 848 626 848 989 853 c 1,199,200
1570 311 m 1,219,220
 1377 389 1377 389 1028 389 c 0,221,222
 666 389 666 389 480 309 c 1,223,224
 656 239 656 239 1025 239 c 0,225,226
 1201 239 1201 239 1346 258.5 c 128,-1,227
 1491 278 1491 278 1570 311 c 1,219,220
1544 405 m 1,228,-1
 1514 520 l 1,229,230
 1316 564 1316 564 1024 564 c 0,231,232
 733 564 733 564 535 520 c 1,233,-1
 503 404 l 1,234,235
 694 460 694 460 1025 460 c 0,236,237
 1354 460 1354 460 1544 405 c 1,228,-1
463 522 m 1,238,-1
 430 709 l 2,239,240
 429 709 429 709 427 713 c 0,241,242
 422 720 422 720 398.5 731.5 c 128,-1,243
 375 743 375 743 344 771 c 0,244,245
 300 808 300 808 275.5 831 c 128,-1,246
 251 854 251 854 231 881 c 0,247,248
 170 965 170 965 163 1084 c 0,249,250
 153 1199 153 1199 256 1313 c 0,251,252
 360 1427 360 1427 537 1420 c 0,253,254
 603 1416 603 1416 692 1388 c 0,255,256
 721 1376 721 1376 751.5 1364.5 c 128,-1,257
 782 1353 782 1353 812 1341 c 0,258,259
 828 1333 828 1333 840 1325 c 1,260,261
 835 1346 835 1346 835 1367 c 0,262,263
 835 1445 835 1445 890.5 1500 c 128,-1,264
 946 1555 946 1555 1024 1556 c 0,265,266
 1102 1556 1102 1556 1157 1500.5 c 128,-1,267
 1212 1445 1212 1445 1212 1368 c 0,268,269
 1212 1352 1212 1352 1208 1326 c 1,270,271
 1222 1335 1222 1335 1235 1341 c 0,272,273
 1281 1361 1281 1361 1356 1388 c 0,274,275
 1442 1417 1442 1417 1511 1421 c 0,276,277
 1688 1429 1688 1429 1791 1314 c 0,278,279
 1892 1200 1892 1200 1885 1085 c 0,280,281
 1877 966 1877 966 1816 882 c 0,282,283
 1796 855 1796 855 1771 831.5 c 128,-1,284
 1746 808 1746 808 1704 772 c 0,285,286
 1671 744 1671 744 1648 732.5 c 128,-1,287
 1625 721 1625 721 1621 714 c 0,288,289
 1620 712 1620 712 1619 711 c 128,-1,290
 1618 710 1618 710 1618 709 c 2,291,-1
 1586 521 l 1,292,-1
 1652 274 l 1,293,294
 1602 229 1602 229 1428 200 c 128,-1,295
 1254 171 1254 171 1026 171 c 0,296,297
 794 171 794 171 618 201.5 c 128,-1,298
 442 232 442 232 397 278 c 1,299,-1
 463 522 l 1,238,-1
524 583 m 1,300,301
 714 631 714 631 1028 631 c 0,302,303
 1336 631 1336 631 1525 585 c 1,304,-1
 1550 732 l 1,305,306
 1349 785 1349 785 1024 785 c 0,307,308
 697 785 697 785 499 731 c 1,309,-1
 524 583 l 1,300,301
EndSplineSet
EndChar

